<?xml version="1.0" encoding="UTF-8"?>
<!DOCTYPE svg PUBLIC "-//W3C//DTD SVG 1.1//EN" "http://www.w3.org/Graphics/SVG/1.1/DTD/svg11.dtd">
<!-- Creator: CorelDRAW 2021.5 -->
<svg xmlns="http://www.w3.org/2000/svg" xml:space="preserve" width="600px" height="500px" version="1.1" style="shape-rendering:geometricPrecision; text-rendering:geometricPrecision; image-rendering:optimizeQuality; fill-rule:evenodd; clip-rule:evenodd"
viewBox="0 0 60000 50000"
 xmlns:xlink="http://www.w3.org/1999/xlink"
 xmlns:xodm="http://www.corel.com/coreldraw/odm/2003">
 <defs>
  <style type="text/css">
   <![CDATA[
    .fil0 {fill:#EF7F1A}
    .fil1 {fill:white;fill-rule:nonzero}
   ]]>
  </style>
 </defs>
 <g id="Layer_x0020_1">
  <metadata id="CorelCorpID_0Corel-Layer"/>
  <path class="fil0" d="M23017 21440c0,0 2400,-1441 3420,-3083 1056,-1699 914,-3725 -1166,-4749 -364,-179 -1501,-325 -1091,1053 737,2475 -17,4128 -1163,6779zm-10174 2172c-726,3744 -1098,7812 2278,10129 2665,1829 7377,1546 7549,-1565 108,-1955 -1795,-2881 -4221,-2231 -2899,777 -4223,-4358 -5606,-6333zm1671 -6548c0,0 -5018,330 -7238,2886 -2494,2872 -2577,6128 -276,8420 392,391 2328,1207 2567,-1205 489,-4922 1345,-7106 4947,-10101zm6976 36c0,0 -788,-3494 -2797,-5010 -2010,-1516 -3542,-1448 -4467,-1025 -925,424 -1621,1179 -1896,1642 -275,462 -648,1754 1157,1609 1806,-145 2091,-210 4001,354 1911,565 4002,2430 4002,2430zm21451 14511c-696,-1092 -1838,-2671 -2717,-3607l0 3607 -679 0 0 -4620 550 0 1477 1690 1269 1730 0 -3420 680 0 0 4620 -580 0zm5049 -1733c0,2433 -3490,2433 -3490,0 0,-2434 3490,-2434 3490,0zm-694 0c0,-1440 -1327,-1529 -1820,-930 -493,599 -418,2203 769,2203 716,0 1051,-572 1051,-1273zm4434 -1734c-347,1210 -850,2398 -1380,3467l-601 0c-530,-1070 -1033,-2256 -1380,-3467l715 0 980 2740 979 -2740 687 0zm1945 3020l722 -46 0 -1034c-208,-96 -1573,-253 -1573,487 0,487 395,593 851,593zm-57 -3106c925,0 1430,397 1430,1326l0 2167c-983,152 -2896,465 -2896,-973 0,-1085 1391,-1182 2245,-987 0,-558 -89,-1000 -836,-1000l-944 133 -79 -513 1080 -153z"/>
  <path class="fil1" d="M17084 26260l-1170 0 0 -5198 3548 0 0 990 -2378 0 0 4208zm4320 0l-1117 0 0 -3945 1117 0 0 3945zm105 -5085c0,878 -1335,878 -1335,0 0,-879 1335,-878 1335,0zm570 4170l488 0c575,-699 555,-2161 555,-3030l3075 0 0 3030 667 0 0 2040 -952 0 0 -1125 -2880 0 0 1125 -953 0 0 -2040zm3000 0l0 -2115 -915 0c-39,687 -78,1515 -450,2115l1365 0zm4988 -1028c0,-987 -564,-1257 -1410,-1102l0 2017c338,218 1410,441 1410,-915zm1140 -30c0,1748 -1302,2425 -2550,1875l0 1485 -1118 0 0 -5197c1613,-484 3668,-344 3668,1837zm2370 1193l555 -30 0 -848c-1480,-326 -1586,878 -555,878zm-90 -3270c1157,0 1717,462 1717,1612l0 2325c-4188,918 -3653,-1600 -2887,-2070 463,-284 1335,-339 1815,-202 0,-786 -555,-810 -1335,-694 -185,28 -345,66 -480,116l-143 -900 1313 -187zm3847 3225c1763,253 1482,-599 1212,-731 -265,-130 -860,-94 -1212,-94l0 825zm630 -1575c896,0 855,-773 -82,-773l-548 38 0 735 630 0zm-37 2475l-1710 -180 0 -3780c936,-197 3457,-448 3457,945 0,325 -168,654 -450,795 881,378 1135,2220 -1297,2220zm4545 -3105c-53,1541 -188,2923 -2070,3097l-150 -930c1221,-239 1140,-1279 1140,-2632l0 -450 2962 0 0 3945 -1117 0 0 -3030 -765 0zm4050 3030l-1118 0 0 -3945 1118 0 0 3945zm105 -5085c0,878 -1335,878 -1335,0 0,-879 1335,-878 1335,0zm2062 2516l1313 -1376 1357 0 -1811 1811c614,471 1419,1467 1819,2134l-1273 0 -1405 -1591 0 1591 -1117 0 0 -3945 1117 0 0 1376zm4711 1789l555 -30 0 -848c-1480,-326 -1587,878 -555,878zm-90 -3270c1156,0 1717,462 1717,1612l0 2325c-4188,918 -3654,-1600 -2888,-2070 464,-284 1336,-339 1816,-202 0,-786 -555,-810 -1336,-694 -185,28 -345,66 -480,116l-142 -900 1313 -187z"/>
 </g>
</svg>
