<svg xmlns="http://www.w3.org/2000/svg" xml:space="preserve" width="600" height="500" style="shape-rendering:geometricPrecision;text-rendering:geometricPrecision;
image-rendering:optimizeQuality;fill-rule:evenodd;clip-rule:evenodd" viewBox="0 0 60000 50000">
<path d="M23017 21440s2400-1441 3420-3083c1056-1699 914-3725-1166-4749-364-179-1501-325-1091 1053 737 2475-17 4128-1163 6779zm-10174 2172c-726 3744-1098 7812 2278 10129 2665 1829 7377 1546 7549-1565 108-1955-1795-2881-4221-2231-2899 777-4223-4358-5606-6333zm1671-6548s-5018 330-7238 2886c-2494 2872-2577 6128-276 8420 392 391 2328 1207 2567-1205 489-4922 1345-7106 4947-10101zm6976 36s-788-3494-2797-5010c-2010-1516-3542-1448-4467-1025-925 424-1621 1179-1896 1642-275 462-648 1754 1157 1609 1806-145 2091-210 4001 354 1911 565 4002 2430 4002 2430zm21451 14511c-696-1092-1838-2671-2717-3607v3607h-679v-4620h550l1477 1690 1269 1730v-3420h680v4620h-580zm5049-1733c0 2433-3490 2433-3490 0 0-2434 3490-2434 3490 0zm-694 0c0-1440-1327-1529-1820-930s-418 2203 769 2203c716 0 1051-572 1051-1273zm4434-1734c-347 1210-850 2398-1380 3467h-601c-530-1070-1033-2256-1380-3467h715l980 2740 979-2740h687zm1945 3020 722-46v-1034c-208-96-1573-253-1573 487 0 487 395 593 851 593zm-57-3106c925 0 1430 397 1430 1326v2167c-983 152-2896 465-2896-973 0-1085 1391-1182 2245-987 0-558-89-1000-836-1000l-944 133-79-513 1080-153z"
 style="fill:#ef7f1a"/>
<path d="M17084 26260h-1170v-5198h3548v990h-2378v4208zm4320 0h-1117v-3945h1117v3945zm105-5085c0 878-1335 878-1335 0 0-879 1335-878 1335 0zm570 4170h488c575-699 555-2161
 555-3030h3075v3030h667v2040h-952v-1125h-2880v1125h-953v-2040zm3000 0v-2115h-915c-39 687-78 1515-450 2115h1365zm4988-1028c0-987-564-1257-1410-1102v2017c338 218 1410 441
 1410-915zm1140-30c0 1748-1302 2425-2550 1875v1485h-1118v-5197c1613-484 3668-344 3668 1837zm2370 1193 555-30v-848c-1480-326-1586 878-555 878zm-90-3270c1157 0 1717 462 1717
 1612v2325c-4188 918-3653-1600-2887-2070 463-284 1335-339 1815-202 0-786-555-810-1335-694-185 28-345 66-480 116l-143-900 1313-187zm3847 3225c1763 253
 1482-599 1212-731-265-130-860-94-1212-94v825zm630-1575c896 0 855-773-82-773l-548 38v735h630zm-37 2475-1710-180v-3780c936-197 3457-448 3457 945 0 325-168 654-450 795 881
 378 1135 2220-1297 2220zm4545-3105c-53 1541-188 2923-2070 3097l-150-930c1221-239 1140-1279 1140-2632v-450h2962v3945h-1117v-3030h-765zm4050 3030h-1118v-3945h1118v3945zm105-5085c0 
878-1335 878-1335 0 0-879 1335-878 1335 0zm2062 2516 1313-1376h1357l-1811 1811c614 471 1419 1467 1819 2134h-1273l-1405-1591v1591h-1117v-3945h1117v1376zm4711 1789 555-30v-848c-1480-326-1587
 878-555 878zm-90-3270c1156 0 1717 462 1717 1612v2325c-4188 918-3654-1600-2888-2070 464-284 1336-339 1816-202 0-786-555-810-1336-694-185 28-345 66-480 116l-142-900 1313-187z"
 style="fill:#fff;fill-rule:nonzero"/></svg>