<?xml version="1.0" encoding="UTF-8"?>
<!DOCTYPE svg PUBLIC "-//W3C//DTD SVG 1.1//EN" "http://www.w3.org/Graphics/SVG/1.1/DTD/svg11.dtd">
<svg xmlns="http://www.w3.org/2000/svg" xml:space="preserve" width="80px" height="40px" version="1.1" style="shape-rendering:geometricPrecision; text-rendering:geometricPrecision; image-rendering:optimizeQuality; fill-rule:evenodd; clip-rule:evenodd"
viewBox="0 0 8000 4000"
 xmlns:xlink="http://www.w3.org/1999/xlink"
 xmlns:xodm="http://www.corel.com/coreldraw/odm/2003">
 <defs>
  <style type="text/css">
   <![CDATA[
    .fil0 {fill:#EF7F1A}
    .fil1 {fill:white;fill-rule:nonzero}
   ]]>
  </style>
 </defs>
 <g id="Layer_x0020_1">
  <metadata id="CorelCorpID_0Corel-Layer"/>
  <g id="_2249145511680">
   <path class="fil0" d="M2845 1768c0,0 387,-240 551,-513 170,-282 147,-619 -188,-789 -59,-30 -241,-54 -176,175 119,411 -2,686 -187,1127zm-1637 360c-117,622 -177,1298 367,1683 428,304 1187,257 1214,-260 18,-325 -288,-478 -679,-370 -466,129 -680,-724 -902,-1053zm269 -1088c0,0 -808,55 -1165,480 -401,477 -415,1018 -44,1399 63,65 374,200 413,-200 78,-818 216,-1181 796,-1679zm1123 6c0,0 -127,-580 -451,-832 -323,-252 -570,-241 -718,-170 -149,70 -261,196 -306,272 -44,77 -104,292 187,268 290,-24 336,-35 644,59 307,93 644,403 644,403zm3452 2412c-112,-182 -296,-444 -438,-600l0 600 -109 0 0 -768 89 0 237 281 205 287 0 -568 109 0 0 768 -93 0zm812 -288c0,404 -561,404 -561,0 0,-405 561,-405 561,0zm-111 0c0,-240 -214,-255 -293,-155 -80,100 -68,366 123,366 116,0 170,-95 170,-211zm713 -289c-56,201 -137,399 -222,577l-97 0c-85,-178 -166,-375 -222,-577l115 0 158 456 158 -456 110 0zm313 502l116 -7 0 -172c-33,-16 -253,-42 -253,81 0,80 64,98 137,98zm-9 -516c149,0 230,66 230,220l0 360c-158,26 -466,78 -466,-161 0,-180 224,-197 361,-164 0,-93 -14,-166 -134,-166l-152 22 -13 -85 174 -26z"/>
   <path class="fil1" d="M1891 2568l-189 0 0 -863 571 0 0 164 -382 0 0 699zm695 0l-180 0 0 -655 180 0 0 655zm17 -845c0,146 -215,146 -215,0 0,-146 215,-145 215,0zm91 693l79 0c92,-116 89,-359 89,-503l495 0 0 503 107 0 0 339 -153 0 0 -187 -463 0 0 187 -154 0 0 -339zm483 0l0 -351 -147 0c-6,114 -13,252 -72,351l219 0zm803 -170c0,-165 -91,-209 -227,-184l0 336c54,36 227,73 227,-152zm183 -5c0,290 -209,402 -410,311l0 247 -180 0 0 -864c260,-80 590,-57 590,306zm382 198l89 -5 0 -141c-238,-54 -255,146 -89,146zm-15 -544c186,0 277,77 277,268l0 387c-674,152 -588,-266 -465,-344 75,-47 215,-57 292,-34 0,-130 -89,-135 -215,-115 -30,4 -55,11 -77,19l-23 -149 211 -32zm619 536c284,42 239,-99 195,-121 -42,-22 -138,-16 -195,-16l0 137zm102 -261c144,0 137,-129 -13,-129l-89 6 0 123 102 0zm-6 411l-275 -30 0 -628c150,-33 556,-75 556,157 0,54 -27,109 -72,132 141,63 182,369 -209,369zm731 -516c-8,256 -30,486 -333,515l-24 -155c197,-40 183,-213 183,-437l0 -75 477 0 0 655 -180 0 0 -503 -123 0zm652 503l-180 0 0 -655 180 0 0 655zm17 -845c0,146 -215,146 -215,0 0,-146 215,-145 215,0zm332 418l211 -228 219 0 -292 301c99,78 228,243 293,354l-205 0 -226 -264 0 264 -180 0 0 -655 180 0 0 228zm758 298l89 -5 0 -141c-238,-54 -255,146 -89,146zm-15 -544c187,0 277,77 277,268l0 387c-674,152 -588,-266 -465,-344 75,-47 215,-57 292,-34 0,-130 -89,-135 -215,-115 -29,4 -55,11 -77,19l-23 -149 211 -32z"/>
  </g>
 </g>
</svg>
