<?xml version="1.0" encoding="UTF-8"?>
<!DOCTYPE svg PUBLIC "-//W3C//DTD SVG 1.1//EN" "http://www.w3.org/Graphics/SVG/1.1/DTD/svg11.dtd">
<!-- Creator: CorelDRAW 2021.5 -->
<svg xmlns="http://www.w3.org/2000/svg" xml:space="preserve" width="71.4374mm" height="31.7498mm" version="1.1" style="shape-rendering:geometricPrecision; text-rendering:geometricPrecision; image-rendering:optimizeQuality; fill-rule:evenodd; clip-rule:evenodd"
viewBox="0 0 7143.74 3174.98"
 xmlns:xlink="http://www.w3.org/1999/xlink"
 xmlns:xodm="http://www.corel.com/coreldraw/odm/2003">
 <defs>
  <style type="text/css">
   <![CDATA[
    .fil1 {fill:#17374C;fill-rule:nonzero}
    .fil0 {fill:#A1A4A6;fill-rule:nonzero}
   ]]>
  </style>
 </defs>
 <g id="Layer_x0020_1">
  <metadata id="CorelCorpID_0Corel-Layer"/>
  <path class="fil0" d="M4341.46 1364.58l-119.02 0c-14.09,-54.61 -35.56,-106.1 -63.64,-153.51l84.24 -84.15c38.86,-38.86 38.77,-101.92 0,-140.68l-70.35 -70.35c-38.96,-38.96 -101.82,-38.96 -140.78,0l-84.14 84.14c-47.42,-27.98 -98.91,-49.55 -153.52,-63.54l0 -119.12c0,-54.99 -44.5,-99.49 -99.49,-99.49l-99.49 0c-54.94,0 -99.49,44.5 -99.49,99.49l0 119.12c-54.61,13.99 -106.15,35.57 -153.52,63.55l-84.18 -84.14c-38.87,-38.87 -101.83,-38.96 -140.69,0l-70.35 70.34c-38.86,38.86 -38.86,101.82 0,140.69l84.15 84.14c-27.99,47.41 -49.46,98.91 -63.55,153.51l-119.07 0c-54.94,0 -99.49,44.5 -99.49,99.5l0 99.49c0,54.99 44.55,99.49 99.49,99.49l119.07 0c14.09,54.61 35.56,106.1 63.55,153.51l-84.15 84.15c-38.86,38.86 -38.91,101.82 0,140.78l70.35 70.34c38.86,38.87 101.82,38.87 140.69,0l84.19 -84.23c47.41,28.07 98.91,49.55 153.51,63.64l0 119.01c0,55 44.55,99.5 99.49,99.5l99.49 -0.01c55,0 99.49,-44.5 99.49,-99.49l0 -119.02c54.61,-14.09 106.1,-35.56 153.52,-63.54l84.14 84.14c38.96,38.86 101.92,38.86 140.78,0l70.35 -70.34c38.86,-38.97 38.86,-101.83 0,-140.79l-84.14 -84.14c27.98,-47.42 49.45,-98.91 63.54,-153.51l119.02 0c55,0 99.49,-44.6 99.49,-99.5l0 -99.49c0,-54.99 -44.49,-99.49 -99.49,-99.49zm-696.44 547.21c-219.78,0 -397.97,-178.2 -397.97,-397.97 0,-219.78 178.19,-397.97 397.97,-397.97 219.77,0 397.97,178.19 397.97,397.97 0,219.77 -178.2,397.97 -397.97,397.97zm0 -621.48c123.43,0 223.5,100.07 223.5,223.5 0,123.43 -100.07,223.5 -223.5,223.5 -123.43,0 -223.5,-100.07 -223.5,-223.5 0,-123.43 100.07,-223.5 223.5,-223.5z"/>
  <path class="fil1" d="M4660.37 2423.95c-0.75,66.34 52.43,120.71 118.76,121.46l62.87 0.7 62.88 0.7c66.33,0.75 120.71,-52.43 121.45,-118.77l2.58 -230.52c-46.18,-47.32 -77.21,-144.93 -75.96,-257.37 1.25,-110.95 33.59,-206.73 79.82,-253.72 -9.27,-56.46 -57.95,-99.85 -117.15,-100.51l-62.87 -0.7 -62.87 -0.71c-59.19,-0.66 -108.83,41.63 -119.37,97.87 45.16,48.01 75.36,144.49 74.12,255.44 -1.26,112.44 -34.46,209.33 -81.69,255.61l-2.57 230.52zm40.25 -33.33l286.2 3.2c9.68,0.1 17.43,8.03 17.32,17.71 -0.11,9.67 -8.03,17.43 -17.71,17.32l-286.2 -3.2c-9.67,-0.11 -17.43,-8.04 -17.32,-17.71 0.11,-9.68 8.03,-17.43 17.71,-17.32zm146.04 -848.02l13.14 0.15 103.22 1.15 1.51 -135.12c0,0 -7.36,-13.22 -20.44,-19 -14.99,-2.04 -37.53,-0.42 -37.53,-0.42l5.81 -519.85c0,0 42.67,-123.34 44.94,-158.07 -5.18,-40.45 -41.25,-172.24 -41.25,-172.24 0,0 -16.68,-18.96 -35.44,-19.16 -6.23,-0.07 -10.36,-0.12 -13.14,-0.15 -5.61,-0.06 -5.64,-0.07 -5.64,-0.07 -2.77,-0.03 -6.91,-0.07 -13.14,-0.14 -18.76,-0.21 -35.86,18.37 -35.86,18.37 0,0 -39.01,130.95 -45.09,171.27 1.49,34.78 41.39,159.03 41.39,159.03l-5.81 519.86c0,0 -22.5,-2.12 -37.53,-0.42 -13.2,5.48 -20.86,18.53 -20.86,18.53l-1.51 135.13 103.23 1.15zm-2276.87 353.64l-0.02 -174.09 -0.03 -360.94 -0.02 -174.08c112.05,-63.39 187.68,-183.63 187.67,-321.55 -0.01,-137.92 -75.67,-258.15 -187.73,-321.52l0.03 269.69c0,73.31 -59.42,132.74 -132.73,132.75l-97.47 0.01c-73.31,0.01 -132.74,-59.41 -132.75,-132.72l-0.03 -269.69c-112.04,63.39 -187.68,183.64 -187.66,321.55 0.01,137.93 75.67,258.15 187.73,321.52l0.02 174.08 0.03 360.95 0.02 174.08c-112.05,63.39 -187.68,183.63 -187.67,321.55 0.01,137.92 75.67,258.15 187.73,321.52l-0.03 -269.69c0,-73.31 59.42,-132.74 132.73,-132.75l97.47 -0.01c73.31,0 132.74,59.42 132.75,132.72l0.03 269.69c112.05,-63.39 187.68,-183.63 187.67,-321.55 -0.02,-137.93 -75.68,-258.16 -187.74,-321.52zm-119.26 -130.52c0,34.36 -27.86,62.22 -62.22,62.23 -34.36,0 -62.22,-27.85 -62.22,-62.22l-0.05 -456.27c0,-34.37 27.85,-62.22 62.22,-62.23 34.36,0 62.22,27.85 62.22,62.21l0.05 456.28z"/>
 </g>
</svg>
