<svg xmlns="http://www.w3.org/2000/svg" width="115" height="78" fill="none"><path fill="#A1A4A6" d="M88.087 32.575h-4.499a22.3 22.3 0 0 0-2.405-5.802l3.184-3.18a3.762 3.762 0 0 0 0-5.318l-2.659-2.659a3.757 3.757 0 0 0-5.32 0l-3.18 3.18a22.296 22.296 0 0 0-5.803-2.401v-4.502a3.758 3.758 0 0 0-3.76-3.76h-3.76a3.76 3.76 0 0 0-3.761 3.76v4.502a22.266 22.266 0 0 0-5.802 2.402l-3.182-3.18a3.756 3.756 0 0 0-5.317 0l-2.66 2.658a3.76 3.76 0 0 0 0 5.318l3.181 3.18a22.411 22.411 0 0 0-2.402 5.802h-4.5a3.76 3.76 0 0 0-3.76 3.76v3.76a3.76 3.76 0 0 0 3.76 3.76h4.5a22.404 22.404 0 0 0 2.402 5.803l-3.18 3.18a3.762 3.762 0 0 0 0 5.321l2.659 2.659a3.759 3.759 0 0 0 5.317 0l3.182-3.184a22.314 22.314 0 0 0 5.802 2.405v4.498a3.76 3.76 0 0 0 3.76 3.761h3.76a3.758 3.758 0 0 0 3.76-3.76v-4.499a22.43 22.43 0 0 0 5.803-2.401l3.18 3.18a3.764 3.764 0 0 0 5.321 0l2.659-2.659a3.764 3.764 0 0 0 0-5.321l-3.18-3.18a22.432 22.432 0 0 0 2.401-5.802h4.499a3.76 3.76 0 0 0 3.76-3.76v-3.761a3.758 3.758 0 0 0-3.76-3.76ZM61.764 53.257c-8.306 0-15.04-6.735-15.04-15.042 0-8.306 6.734-15.041 15.04-15.041 8.307 0 15.042 6.735 15.042 15.041 0 8.306-6.735 15.042-15.041 15.042Zm0-23.49a8.448 8.448 0 1 1 0 16.896 8.448 8.448 0 0 1 0-16.895Z"/><path fill="#17374C" d="M100.14 72.614a4.54 4.54 0 0 0 4.489 4.59l2.376.027 2.376.026a4.54 4.54 0 0 0 4.591-4.489l.097-8.712c-1.745-1.789-2.918-5.478-2.871-9.727.047-4.194 1.27-7.814 3.017-9.59a4.54 4.54 0 0 0-4.428-3.799l-2.376-.026-2.376-.027a4.542 4.542 0 0 0-4.512 3.699c1.707 1.815 2.848 5.461 2.802 9.654-.048 4.25-1.303 7.912-3.088 9.661l-.097 8.713Zm1.521-1.26 10.817.121a.662.662 0 1 1-.015 1.324l-10.817-.12a.662.662 0 0 1 .015-1.325Zm5.52-32.051.496.006 3.902.043.057-5.107s-.278-.5-.773-.718c-.566-.077-1.418-.016-1.418-.016l.219-19.648s1.613-4.661 1.699-5.974c-.196-1.529-1.559-6.51-1.559-6.51s-.631-.716-1.34-.724l-.496-.006a18.322 18.322 0 0 1-.213-.002l-.497-.006c-.709-.008-1.355.695-1.355.695s-1.475 4.949-1.705 6.473c.057 1.314 1.565 6.01 1.565 6.01l-.22 19.649s-.85-.08-1.418-.016c-.499.207-.789.7-.789.7l-.057 5.108 3.902.043ZM21.126 52.669v-6.58l-.002-13.642v-6.58c4.234-2.395 7.093-6.94 7.092-12.152 0-5.213-2.86-9.757-7.095-12.152l.001 10.193a5.017 5.017 0 0 1-5.016 5.017h-3.684a5.017 5.017 0 0 1-5.018-5.016V1.564C3.168 3.96.31 8.505.31 13.717c0 5.214 2.86 9.757 7.095 12.152v6.58l.002 13.642v6.58C3.175 55.065.316 59.61.316 64.822c0 5.213 2.86 9.757 7.096 12.152L7.41 66.782a5.017 5.017 0 0 1 5.016-5.017h3.684a5.017 5.017 0 0 1 5.017 5.016l.002 10.193c4.234-2.396 7.093-6.94 7.093-12.153-.001-5.213-2.86-9.757-7.096-12.152Zm-4.508-4.933a2.352 2.352 0 0 1-4.703 0l-.002-17.245a2.352 2.352 0 0 1 4.704 0l.002 17.245Z"/></svg>