<?xml version="1.0" encoding="UTF-8"?>
<!DOCTYPE svg PUBLIC "-//W3C//DTD SVG 1.1//EN" "http://www.w3.org/Graphics/SVG/1.1/DTD/svg11.dtd">
<!-- Creator: CorelDRAW 2021.5 -->
<svg xmlns="http://www.w3.org/2000/svg" xml:space="preserve" width="71.4374mm" height="31.7498mm" version="1.1" style="shape-rendering:geometricPrecision; text-rendering:geometricPrecision; image-rendering:optimizeQuality; fill-rule:evenodd; clip-rule:evenodd"
viewBox="0 0 7143.74 3174.98"
 xmlns:xlink="http://www.w3.org/1999/xlink"
 xmlns:xodm="http://www.corel.com/coreldraw/odm/2003">
 <defs>
  <style type="text/css">
   <![CDATA[
    .fil0 {fill:#17374C}
    .fil1 {fill:#A1A4A6}
   ]]>
  </style>
 </defs>
 <g id="Layer_x0020_1">
  <metadata id="CorelCorpID_0Corel-Layer"/>
  <g id="_1770835376496">
   <path class="fil0" d="M3556.88 632.04c371.64,0 672.91,301.28 672.91,672.92 0,371.63 -301.27,672.91 -672.91,672.91 -371.64,0 -672.92,-301.28 -672.92,-672.91 0,-371.64 301.28,-672.92 672.92,-672.92zm0 -318l180.11 166.52c21.1,19.51 48.08,26.74 76.11,20.39l239.24 -54.15 72.71 234.26c8.52,27.45 28.27,47.2 55.72,55.72l234.27 72.72 -54.16 239.23c-6.34,28.03 0.88,55.01 20.4,76.11l166.52 180.11 -166.52 180.11c-19.52,21.1 -26.74,48.08 -20.4,76.12l54.16 239.23 -234.26 72.71c-27.45,8.52 -47.21,28.28 -55.72,55.73l-72.72 234.26 -239.23 -54.16c-28.03,-6.34 -55.01,0.89 -76.12,20.4l-180.11 166.52 -180.1 -166.52c-21.11,-19.51 -48.09,-26.74 -76.12,-20.4l-239.23 54.16 -72.71 -234.26c-8.52,-27.45 -28.28,-47.2 -55.73,-55.72l-234.26 -72.72 54.15 -239.23c6.35,-28.03 -0.88,-55.01 -20.39,-76.12l-166.52 -180.11 166.52 -180.1c19.51,-21.1 26.74,-48.09 20.39,-76.12l-54.15 -239.23 234.25 -72.71c27.45,-8.52 47.21,-28.28 55.73,-55.73l72.72 -234.26 239.22 54.15c28.04,6.35 55.02,-0.88 76.12,-20.39l180.11 -166.52zm0 488.88c277.27,0 502.03,224.77 502.03,502.03 0,277.27 -224.76,502.04 -502.03,502.04 -277.26,0 -502.03,-224.77 -502.03,-502.04 0,-277.26 224.77,-502.03 502.03,-502.03zm-385.27 544.31l0 -209.82c0,-16.84 4.51,-29.66 13.62,-38.68 9.12,-9.02 20.85,-13.53 35.07,-13.53 14.83,0 26.66,4.41 35.48,13.23 8.81,8.82 13.22,21.84 13.22,39.08l0 209.82c0,27.66 8.62,49.6 25.85,66.03 16.04,15.33 36.68,22.95 61.93,22.95 24.85,0 45.79,-7.92 62.83,-23.75 17.03,-15.93 25.55,-37.57 25.55,-65.23l0 -209.82c0,-16.84 4.51,-29.76 13.52,-38.78 8.92,-9.02 20.75,-13.53 35.17,-13.53 14.83,0 26.66,4.41 35.48,13.23 8.81,8.82 13.22,21.84 13.22,38.98l0 209.82c0,56.21 -17.13,100.8 -51.4,133.87 -34.17,33.07 -78.96,49.6 -134.37,49.6 -55.01,0 -99.2,-16.23 -132.67,-48.7 -34.77,-33.67 -52.3,-78.56 -52.5,-134.77zm391.18 136.98c0,-7.62 0.91,-15.54 2.81,-23.75 1.8,-8.22 5.71,-20.54 11.52,-36.98l93.89 -255.41c11.12,-30.86 20.64,-51.7 28.66,-62.43 13.33,-17.63 30.76,-26.45 52.2,-26.45 17.64,0 32.17,5.21 43.89,15.53 11.63,10.42 24.45,34.87 38.48,73.35l93.59 255.41c6.41,17.14 10.42,29.56 12.02,37.28 1.51,7.61 2.31,15.43 2.31,23.45 0,12.42 -4.21,22.24 -12.63,29.56 -8.32,7.31 -19.64,10.92 -33.87,10.92 -14.83,0 -26.25,-4.41 -34.27,-13.33 -6.41,-6.91 -11.92,-18.64 -16.63,-35.17l-12.02 -38.68 -159.92 0 -12.03 38.68c-5.31,16.23 -10.82,27.76 -16.73,34.57 -8.02,9.32 -19.44,13.93 -34.37,13.93 -14.03,0 -25.35,-3.71 -33.97,-11.13 -8.62,-7.31 -12.93,-17.13 -12.93,-29.35zm138.78 -137.48l102.21 0 -48.4 -158.32 -53.81 158.32z"/>
   <path class="fil1" d="M4177.07 3012.9l-442.47 -777.51 363.74 -32.51c25.38,-2.27 46.34,-14.22 61.2,-34.92l200.04 -278.65 409.68 759.64 -362.24 -67.6c-41.17,-7.69 -81.08,15.23 -95.18,54.68l-134.77 376.87zm-1802.59 -315.44l406.28 -797.03 227.1 285.98c15.85,19.96 37.35,30.89 62.81,31.92l342.74 13.93 -409.36 759.82 -142.65 -339.76c-16.22,-38.63 -57.31,-59.36 -98.01,-49.46l-388.91 94.6z"/>
  </g>
 </g>
</svg>
