<svg xmlns="http://www.w3.org/2000/svg" width="92" height="103" fill="none"><path fill="#17374C" fill-rule="evenodd" d="M45.433 12.888c14.047 0 25.433 11.387 25.433 25.433S59.48 63.754 45.433 63.754C31.387 63.754 20 52.367 20 38.321s11.387-25.433 25.433-25.433Zm0-12.019 6.808 6.294a3.111 3.111 0 0 0 2.876.77l9.042-2.046 2.748 8.854a3.112 3.112 0 0 0 2.106 2.106l8.855 2.748-2.047 9.042c-.24 1.06.033 2.08.77 2.877l6.294 6.807-6.293 6.807a3.112 3.112 0 0 0-.771 2.877l2.047 9.042-8.854 2.748a3.112 3.112 0 0 0-2.106 2.106l-2.749 8.854-9.041-2.047a3.114 3.114 0 0 0-2.877.771l-6.808 6.294-6.807-6.294a3.114 3.114 0 0 0-2.877-.77l-9.041 2.046-2.748-8.854a3.112 3.112 0 0 0-2.107-2.106L13 57.047l2.047-9.042a3.112 3.112 0 0 0-.77-2.877l-6.294-6.807 6.293-6.807a3.112 3.112 0 0 0 .77-2.877L13 19.595l8.854-2.748a3.113 3.113 0 0 0 2.106-2.106l2.749-8.854 9.041 2.047c1.06.24 2.08-.034 2.877-.771L45.433.869Zm0 18.478c10.48 0 18.975 8.495 18.975 18.974 0 10.48-8.495 18.975-18.975 18.975-10.479 0-18.974-8.496-18.974-18.975 0-10.48 8.495-18.974 18.974-18.974ZM30.872 39.919v-7.93c0-.637.17-1.121.515-1.462.344-.341.788-.512 1.325-.512.56 0 1.008.167 1.341.5.333.334.5.826.5 1.477v7.93c0 1.046.326 1.875.977 2.496.606.58 1.386.868 2.34.868.94 0 1.731-.3 2.375-.898.644-.602.966-1.42.966-2.465v-7.93c0-.637.17-1.125.51-1.466.338-.341.785-.512 1.33-.512.56 0 1.008.167 1.341.5.333.334.5.826.5 1.474v7.93c0 2.124-.648 3.81-1.943 5.06-1.291 1.25-2.984 1.874-5.078 1.874-2.08 0-3.75-.613-5.015-1.84-1.314-1.273-1.977-2.97-1.984-5.094Zm14.785 5.177c0-.288.034-.587.106-.897.068-.311.216-.777.435-1.398l3.549-9.654c.42-1.166.78-1.953 1.083-2.36.504-.665 1.163-.999 1.973-.999.667 0 1.216.197 1.659.587.44.394.924 1.318 1.454 2.773l3.537 9.653c.243.648.394 1.117.455 1.409.057.287.087.583.087.886 0 .47-.16.84-.477 1.117-.315.277-.743.413-1.28.413-.56 0-.993-.167-1.296-.504-.242-.26-.45-.704-.628-1.329l-.455-1.462h-6.044l-.454 1.462c-.201.613-.41 1.05-.633 1.307-.303.352-.735.526-1.299.526-.53 0-.958-.14-1.284-.42-.325-.277-.488-.648-.488-1.11Zm5.245-5.196h3.863l-1.83-5.984-2.033 5.984Z" clip-rule="evenodd"/><path fill="#A1A4A6" fill-rule="evenodd" d="M68.874 102.873 52.15 73.487l13.748-1.229a3.098 3.098 0 0 0 2.313-1.32l7.56-10.531 15.484 28.71-13.69-2.554a3.178 3.178 0 0 0-3.598 2.066l-5.093 14.244ZM.744 90.951 16.1 60.827l8.583 10.809a3.097 3.097 0 0 0 2.374 1.206l12.954.527-15.472 28.717-5.392-12.84a3.179 3.179 0 0 0-3.704-1.87L.744 90.95Z" clip-rule="evenodd"/></svg>