<svg xmlns="http://www.w3.org/2000/svg" width="82" height="84" fill="none"><path fill="#A1A4A6" fill-rule="evenodd" d="M64.475 59.8A29.874 29.874 0 0 0 71 41.119c0-16.57-13.431-30-30-30-16.569 0-30 13.43-30 30a29.865 29.865 0 0 0 5.605 17.465c-1.085 7.05-6.057 9.746-6.057 9.746l-2.633-2.632 4-5.132a34.781 34.781 0 0 1-5.237-12.634l-6.453-.8V35.105l6.454-.8a34.783 34.783 0 0 1 5.237-12.633l-4-5.133 8.504-8.505 5.134 4.002a34.788 34.788 0 0 1 12.632-5.237l.8-6.455h12.028l.8 6.455a34.796 34.796 0 0 1 12.632 5.237l5.133-4.002 8.505 8.505-4 5.132a34.791 34.791 0 0 1 5.237 12.634l6.454.8v12.028l-6.455.8a34.792 34.792 0 0 1-5.237 12.632l4.001 5.133-2.325 2.325s-6.198-1.173-7.284-8.223Z" clip-rule="evenodd"/><path fill="#17374C" fill-rule="evenodd" d="M11.88 83.899v-9.305c4.976-2.213 20.216-6.427 20.931-12.518.161-1.375-3.08-6.617-3.825-9.13-1.593-2.535-2.161-6.564-.422-9.243.692-1.066.398-4.949.398-6.413 0-14.585 25.559-14.59 25.559 0 0 1.844-.427 5.233.578 6.684 1.678 2.426.81 6.726-.602 8.973-.905 2.64-4.352 7.636-4.057 9.129 1.095 5.565 15.23 9.304 19.68 11.281v10.537l-58.24.005Z" clip-rule="evenodd"/></svg>