<?xml version="1.0" encoding="UTF-8"?>
<!DOCTYPE svg PUBLIC "-//W3C//DTD SVG 1.1//EN" "http://www.w3.org/Graphics/SVG/1.1/DTD/svg11.dtd">
<!-- Creator: CorelDRAW 2021.5 -->
<svg xmlns="http://www.w3.org/2000/svg" xml:space="preserve" width="71.4374mm" height="31.7498mm" version="1.1" style="shape-rendering:geometricPrecision; text-rendering:geometricPrecision; image-rendering:optimizeQuality; fill-rule:evenodd; clip-rule:evenodd"
viewBox="0 0 7143.74 3174.98"
 xmlns:xlink="http://www.w3.org/1999/xlink"
 xmlns:xodm="http://www.corel.com/coreldraw/odm/2003">
 <defs>
  <style type="text/css">
   <![CDATA[
    .fil1 {fill:#17374C}
    .fil0 {fill:#A1A4A6}
   ]]>
  </style>
 </defs>
 <g id="Layer_x0020_1">
  <metadata id="CorelCorpID_0Corel-Layer"/>
  <path class="fil0" d="M4192.99 2031.99c108.05,-135.6 172.63,-307.4 172.63,-494.27 0,-438.38 -355.37,-793.75 -793.75,-793.75 -438.38,0 -793.75,355.37 -793.75,793.75 0,172.39 54.96,331.96 148.31,462.11 -28.72,186.53 -160.27,257.87 -160.27,257.87l-69.65 -69.65 105.84 -135.79c-66.66,-99.46 -114.54,-212.58 -138.57,-334.26l-170.74 -21.16 0 -318.24 170.77 -21.16c24.02,-121.67 71.91,-234.77 138.56,-334.24l-105.86 -135.81 225.03 -225.03 135.82 105.87c99.46,-66.64 212.55,-114.52 334.22,-138.55l21.17 -170.79 318.24 0 21.17 170.79c121.67,24.03 234.74,71.92 334.21,138.55l135.83 -105.87 225.03 225.03 -105.84 135.79c66.66,99.47 114.53,212.58 138.57,334.26l170.74 21.16 0 318.24 -170.77 21.16c-24.03,121.68 -71.92,234.77 -138.56,334.24l105.86 135.81 -61.52 61.52c0,0 -164,-31.05 -192.72,-217.58z"/>
  <path class="fil1" d="M2801.39 2669.62l0 -246.19c131.68,-58.57 534.89,-170.06 553.83,-331.22 4.26,-36.37 -81.52,-175.07 -101.21,-241.54 -42.14,-67.1 -57.19,-173.7 -11.17,-244.56 18.32,-28.22 10.54,-130.94 10.54,-169.69 0,-385.89 676.23,-386.02 676.23,0 0,48.79 -11.29,138.46 15.3,176.84 44.4,64.21 21.45,177.96 -15.93,237.41 -23.95,69.85 -115.13,202.04 -107.35,241.54 28.97,147.24 402.96,246.19 520.72,298.49l0 278.79 -1540.96 0.13 0 0z"/>
 </g>
</svg>
