<?xml version="1.0" encoding="UTF-8"?>
<!DOCTYPE svg PUBLIC "-//W3C//DTD SVG 1.1//EN" "http://www.w3.org/Graphics/SVG/1.1/DTD/svg11.dtd">
<!-- Creator: CorelDRAW 2021.5 -->
<svg xmlns="http://www.w3.org/2000/svg" xml:space="preserve" width="71.4374mm" height="31.7498mm" version="1.1" style="shape-rendering:geometricPrecision; text-rendering:geometricPrecision; image-rendering:optimizeQuality; fill-rule:evenodd; clip-rule:evenodd"
viewBox="0 0 7143.74 3174.98"
 xmlns:xlink="http://www.w3.org/1999/xlink"
 xmlns:xodm="http://www.corel.com/coreldraw/odm/2003">
 <defs>
  <style type="text/css">
   <![CDATA[
    .fil1 {fill:#17374C}
    .fil0 {fill:#A1A4A6}
   ]]>
  </style>
 </defs>
 <g id="Layer_x0020_1">
  <metadata id="CorelCorpID_0Corel-Layer"/>
  <path class="fil0" d="M5398.41 1702.49l-1661.25 797.79c-61.86,29.7 -118.91,72.41 -193.05,72.41 -148.25,0 -268.43,-120.17 -268.43,-268.42 0,-148.25 125.18,-230.21 268.43,-268.43l1795 -478.89c26.76,-9.5 36.93,-12.98 59.3,-15.66 44.2,-5.29 80.59,36.07 80.59,80.59 0,44.54 -38.48,59.22 -80.59,80.61z"/>
  <path class="fil1" d="M2356.12 1909.86c-121.96,319.57 -148.23,590.78 -148.23,590.78l-188.14 -11.97c3.74,-256.07 22.37,-461.55 75.12,-659.84l261.25 81.03zm430.17 -652.12c-176.35,136.87 -297.04,344.01 -384.21,538.63l-271.83 -86.24c95.71,-314.85 247.67,-529.21 443.95,-706.08l212.09 253.69zm746.28 -241.15c-186.54,10.97 -483.2,74.11 -645.9,172.25l-198.72 -278.75c230.54,-171.16 541.85,-272.7 839.46,-308.08l5.16 414.58zm697.59 267.47l372.78 -438.74c-231.11,-152.2 -596.15,-254.02 -933.26,-252.19l-0.03 423.93c167.73,34.76 367,120.43 560.51,267zm123.89 90.4c85.83,69.52 178.34,150.13 280.27,242.59l605.83 -133.28c-123.2,-196.48 -321.2,-398.07 -507.95,-539.79l-378.15 430.48z"/>
 </g>
</svg>
