<svg width="132" height="76" viewBox="0 0 132 76" fill="none" xmlns="http://www.w3.org/2000/svg">
<path fill-rule="evenodd" clip-rule="evenodd" d="M128.034 42.3461L65.2471 72.4988C62.909 73.6213 60.7528 75.2355 57.9507 75.2355C52.3475 75.2355 47.8053 70.6937 47.8053 65.0905C47.8053 59.4874 52.5365 56.3896 57.9507 54.9451L125.793 36.8453C126.805 36.4863 127.189 36.3548 128.034 36.2535C129.705 36.0535 131.08 37.6167 131.08 39.2994C131.08 40.9828 129.626 41.5376 128.034 42.3461Z" fill="#A1A4A6"/>
<path fill-rule="evenodd" clip-rule="evenodd" d="M13.0502 50.1837C8.44073 62.2619 7.44784 72.5123 7.44784 72.5123L0.337036 72.0599C0.47839 62.3817 1.18252 54.6155 3.17622 47.1211L13.0502 50.1837ZM29.3086 25.5366C22.6434 30.7096 18.0819 38.5386 14.7873 45.8943L4.51341 42.6348C8.1308 30.735 13.8742 22.6332 21.2926 15.9483L29.3086 25.5366ZM57.5145 16.4223C50.4642 16.8369 39.2518 19.2233 33.1025 22.9325L25.5918 12.3971C34.3052 5.92803 46.0712 2.0903 57.3195 0.753104L57.5145 16.4223ZM83.8801 26.5314L97.9694 9.94907C89.2345 4.19663 75.4378 0.348317 62.6966 0.417482L62.6955 16.44C69.0349 17.7538 76.5663 20.9917 83.8801 26.5314ZM88.5625 29.9481C91.8065 32.5756 95.303 35.6223 99.1554 39.1168L122.053 34.0795C117.397 26.6535 109.913 19.0343 102.855 13.678L88.5625 29.9481Z" fill="#17374C"/>
</svg>
