<svg xmlns="http://www.w3.org/2000/svg" width="20" height="15" fill="none"><path fill="#EF8215" d="M18.126.319H1.874c-1.036 0-1.875.768-1.875 1.716V12.33c0 .948.84 1.716 1.875 1.716h16.252c1.036 0 1.875-.768 1.875-1.716V2.035c0-.948-.84-1.716-1.875-1.716Zm1.25 11.757-5.912-5.41 5.912-3.448v8.858ZM1.874.89h16.252c.69 0 1.25.513 1.25 1.144v.505l-8.605 5.018a1.484 1.484 0 0 1-1.515-.02L.624 2.168v-.133c0-.631.56-1.144 1.25-1.144ZM.624 2.86l5.995 3.729-5.995 5.487V2.86Zm17.502 10.614H1.874c-.515 0-.958-.286-1.149-.694L7.138 6.91l1.767 1.1c.34.21.732.316 1.125.316.373 0 .747-.095 1.077-.287l1.825-1.065 6.343 5.805c-.191.408-.634.694-1.149.694Z"/></svg>