<svg xmlns="http://www.w3.org/2000/svg" width="12" height="19" fill="none"><g fill="#EF8215" clip-path="url(#a)"><path d="M.938 18.419h10c.516 0 .937-.385.937-.858V.974c0-.473-.42-.858-.938-.858h-10C.421.116 0 .5 0 .974V17.56c0 .473.42.858.938.858ZM.625.974c0-.158.14-.286.313-.286h10c.172 0 .312.128.312.286V17.56c0 .158-.14.286-.313.286h-10c-.172 0-.312-.128-.312-.286V.974Z"/><path d="M1.563 15.559h8.75c.172 0 .312-.128.312-.286V3.261c0-.157-.14-.286-.313-.286h-8.75c-.172 0-.312.129-.312.286v12.012c0 .158.14.286.313.286Zm.312-12.012H10v11.44H1.875V3.547ZM6.25 17.275c.345 0 .625-.256.625-.572 0-.316-.28-.572-.625-.572s-.625.256-.625.572c0 .316.28.572.625.572ZM4.688 2.404h2.5c.172 0 .312-.129.312-.286 0-.158-.14-.286-.313-.286h-2.5c-.172 0-.312.128-.312.286 0 .157.14.286.313.286Z"/></g><defs><clipPath id="a"><path fill="#fff" d="M0 .116h11.875v18.303H0z"/></clipPath></defs></svg>