<svg aria-hidden="true" style="position: absolute; width: 0; height: 0; overflow: hidden;" version="1.1" xmlns="http://www.w3.org/2000/svg" xmlns:xlink="http://www.w3.org/1999/xlink">
<defs>
<symbol id="plus-button" viewBox="0 0 32 32">
<path d="M12.968 25.984h6.064v-6.952h6.952v-6.064h-6.952v-6.952h-6.064v6.952h-6.952v6.064h6.952z"></path>
</symbol>
<symbol id="approach-icon" viewBox="0 0 47 32">
<path fill="#a1a4a6" style="fill: var(--color1, #a1a4a6)" d="M36.138 13.364h-1.846c-0.236-0.903-0.574-1.695-1.010-2.422l0.023 0.041 1.306-1.305c0.279-0.279 0.452-0.665 0.452-1.091s-0.173-0.812-0.452-1.091l-1.091-1.091c-0.279-0.28-0.665-0.453-1.091-0.453s-0.812 0.173-1.091 0.453l-1.305 1.305c-0.685-0.412-1.477-0.75-2.317-0.971l-0.064-0.014v-1.847c0-0 0-0.001 0-0.001 0-0.851-0.69-1.542-1.542-1.542-0 0-0.001 0-0.001 0h-1.543c-0 0-0 0-0 0-0.852 0-1.543 0.691-1.543 1.543v1.847c-0.903 0.235-1.695 0.573-2.422 1.008l0.041-0.023-1.305-1.305c-0.279-0.279-0.665-0.452-1.091-0.452s-0.812 0.173-1.091 0.452l-1.091 1.091c-0.279 0.279-0.452 0.665-0.452 1.091s0.173 0.812 0.452 1.091l1.305 1.305c-0.412 0.685-0.749 1.477-0.971 2.316l-0.014 0.064h-1.846c-0.852 0-1.543 0.691-1.543 1.543v0 1.543c0 0.852 0.691 1.543 1.543 1.543h1.846c0.236 0.903 0.574 1.696 1.009 2.423l-0.023-0.042-1.305 1.305c-0.279 0.279-0.452 0.665-0.452 1.091s0.173 0.812 0.452 1.091l1.091 1.091c0.279 0.279 0.665 0.452 1.091 0.452s0.812-0.173 1.091-0.452l1.305-1.306c0.685 0.413 1.477 0.751 2.316 0.972l0.064 0.014v1.845c0 0 0 0 0 0 0 0.852 0.691 1.543 1.543 1.543h1.543c0 0 0.001 0 0.001 0 0.851 0 1.542-0.69 1.542-1.542 0-0 0-0.001 0-0.001v0-1.846c0.903-0.236 1.695-0.573 2.423-1.008l-0.042 0.023 1.305 1.305c0.279 0.279 0.665 0.452 1.092 0.452s0.812-0.173 1.091-0.452l1.091-1.091c0.279-0.279 0.452-0.665 0.452-1.091s-0.173-0.812-0.452-1.091l-1.305-1.305c0.412-0.685 0.749-1.477 0.971-2.316l0.014-0.064h1.846c0.852 0 1.543-0.691 1.543-1.543v0-1.543c0-0 0-0.001 0-0.001 0-0.851-0.69-1.542-1.542-1.542-0 0-0.001 0-0.001 0h0zM25.339 21.849c-3.408 0-6.17-2.763-6.17-6.171s2.763-6.171 6.17-6.171c3.408 0 6.171 2.763 6.171 6.171s-2.763 6.171-6.171 6.171zM25.339 12.212c1.914 0 3.466 1.552 3.466 3.466s-1.552 3.466-3.466 3.466v0c-1.898-0.021-3.428-1.565-3.428-3.466s1.53-3.444 3.426-3.466l0.002-0z"></path>
<path fill="#17374c" style="fill: var(--color2, #17374c)" d="M41.083 29.79c-0 0.006-0 0.013-0 0.021 0 1.021 0.822 1.851 1.841 1.862h0.001l1.95 0.022c0.006 0 0.014 0 0.021 0 1.021 0 1.851-0.822 1.862-1.841v-0.001l0.040-3.574c-0.716-0.734-1.197-2.247-1.178-3.991 0.019-1.721 0.521-3.206 1.238-3.934-0.15-0.883-0.904-1.548-1.816-1.559h-0.001l-1.95-0.022c-0.006-0-0.013-0-0.020-0-0.907 0-1.662 0.648-1.829 1.506l-0.002 0.012c0.7 0.745 1.168 2.24 1.15 3.961-0.020 1.744-0.535 3.246-1.267 3.963l-0.040 3.575zM41.707 29.273l4.438 0.050c0.149 0.002 0.269 0.123 0.269 0.272 0 0.15-0.122 0.272-0.272 0.272-0.001 0-0.002 0-0.003-0h0l-4.438-0.049c-0.149-0.002-0.269-0.123-0.269-0.272 0-0.15 0.122-0.272 0.272-0.272 0.001 0 0.002 0 0.003 0h-0zM43.972 16.124l1.804 0.020 0.023-2.095s-0.114-0.205-0.317-0.295c-0.232-0.032-0.582-0.007-0.582-0.007l0.090-8.061s0.662-1.912 0.697-2.451c-0.080-0.627-0.64-2.671-0.64-2.671s-0.259-0.294-0.55-0.297l-0.203-0.002c-0.032-0-0.063-0-0.093-0.001l-0.198-0.002c-0.291-0.003-0.556 0.285-0.556 0.285s-0.605 2.030-0.7 2.656c0.023 0.539 0.642 2.466 0.642 2.466l-0.090 8.061s-0.349-0.033-0.582-0.007c-0.205 0.085-0.324 0.287-0.324 0.287l-0.023 2.096 1.601 0.018zM8.667 21.608v-2.7l-0.001-5.597v-2.7c1.737-0.983 2.91-2.847 2.91-4.985s-1.173-4.003-2.911-4.985l0 4.182c0 1.137-0.921 2.058-2.058 2.058h-1.511c-0 0-0 0-0 0-1.137 0-2.058-0.921-2.058-2.058v-4.182c-1.738 0.983-2.91 2.848-2.91 4.986s1.173 4.003 2.911 4.985v2.7l0.001 5.597v2.7c-1.736 0.982-2.909 2.847-2.909 4.985s1.173 4.003 2.911 4.985l-0.001-4.181c0-1.137 0.921-2.058 2.058-2.058h1.511c1.137 0 2.058 0.921 2.058 2.058v0l0.001 4.182c1.737-0.983 2.91-2.847 2.91-4.986s-1.173-4.003-2.911-4.985zM6.818 19.584c-0.011 0.524-0.439 0.945-0.965 0.945s-0.954-0.421-0.965-0.944l-0-0.001-0.001-7.075c0-0.533 0.432-0.965 0.965-0.965s0.965 0.432 0.965 0.965v0l0.001 7.075z"></path>
</symbol>
<symbol id="madeinUA-icon" viewBox="0 0 29 32">
<path fill="#17374c" style="fill: var(--color2, #17374c)" d="M14.115 4.004c-4.364 0-7.902 3.538-7.902 7.901s3.538 7.902 7.902 7.902c4.364 0 7.901-3.538 7.901-7.902s-3.537-7.902-7.902-7.902zM14.115 0.27l2.115 1.955c0.173 0.165 0.408 0.266 0.666 0.266 0.081 0 0.159-0.010 0.234-0.029l-0.007 0.001 2.809-0.636 0.854 2.751c0.095 0.316 0.339 0.559 0.647 0.652l0.007 0.002 2.751 0.854-0.636 2.809c-0.075 0.329 0.010 0.646 0.239 0.894l1.955 2.115-1.955 2.115c-0.165 0.173-0.267 0.408-0.267 0.667 0 0.081 0.010 0.159 0.028 0.234l-0.001-0.007 0.636 2.809-2.751 0.854c-0.316 0.095-0.559 0.339-0.652 0.647l-0.002 0.007-0.854 2.751-2.809-0.636c-0.068-0.017-0.146-0.027-0.227-0.027-0.259 0-0.494 0.102-0.667 0.267l0-0-2.115 1.955-2.115-1.955c-0.173-0.165-0.408-0.266-0.667-0.266-0.081 0-0.159 0.010-0.234 0.028l0.007-0.001-2.809 0.636-0.854-2.751c-0.095-0.316-0.339-0.559-0.648-0.653l-0.007-0.002-2.75-0.854 0.636-2.809c0.017-0.068 0.027-0.147 0.027-0.227 0-0.258-0.101-0.493-0.267-0.667l0 0-1.955-2.115 1.955-2.115c0.165-0.173 0.266-0.408 0.266-0.666 0-0.081-0.010-0.159-0.029-0.234l0.001 0.007-0.636-2.809 2.751-0.854c0.316-0.095 0.559-0.339 0.652-0.647l0.002-0.007 0.854-2.751 2.809 0.636c0.329 0.075 0.646-0.011 0.894-0.24l2.114-1.955zM14.115 6.011c-3.256 0-5.895 2.639-5.895 5.895s2.639 5.895 5.895 5.895c3.256 0 5.895-2.639 5.895-5.895s-2.639-5.895-5.895-5.895zM9.591 12.402v-2.464c0-0.198 0.053-0.348 0.16-0.454s0.245-0.159 0.412-0.159c0.174 0 0.313 0.052 0.417 0.155s0.155 0.257 0.155 0.459v2.464c0 0.325 0.101 0.583 0.304 0.775 0.188 0.18 0.431 0.27 0.727 0.27 0.292 0 0.538-0.093 0.738-0.279 0.2-0.187 0.3-0.441 0.3-0.766v-2.464c0-0.198 0.053-0.35 0.158-0.455s0.244-0.159 0.413-0.159c0.174 0 0.313 0.052 0.417 0.155s0.155 0.257 0.155 0.458v2.464c0 0.66-0.201 1.184-0.604 1.572-0.401 0.388-0.927 0.582-1.578 0.582-0.646 0-1.165-0.19-1.558-0.572-0.408-0.396-0.614-0.923-0.616-1.583zM14.185 14.010c0-0.089 0.011-0.182 0.033-0.279 0.021-0.097 0.067-0.241 0.135-0.434l1.103-2.999c0.13-0.362 0.242-0.607 0.336-0.733 0.157-0.207 0.361-0.31 0.613-0.31 0.207 0 0.378 0.061 0.515 0.182 0.137 0.122 0.287 0.409 0.452 0.861l1.099 2.999c0.076 0.201 0.122 0.347 0.141 0.438 0.018 0.089 0.027 0.181 0.027 0.275 0 0.146-0.050 0.261-0.148 0.347s-0.231 0.128-0.398 0.128c-0.174 0-0.308-0.052-0.403-0.157-0.075-0.081-0.14-0.219-0.195-0.413l-0.141-0.454h-1.878l-0.141 0.454c-0.062 0.19-0.127 0.326-0.197 0.406-0.094 0.109-0.228 0.163-0.404 0.163-0.165 0-0.298-0.043-0.399-0.13s-0.152-0.201-0.152-0.345zM15.814 12.396h1.2l-0.569-1.859-0.632 1.859z"></path>
<path fill="#a1a4a6" style="fill: var(--color1, #a1a4a6)" d="M21.398 31.961l-5.196-9.13 4.271-0.382c0.298-0.023 0.556-0.178 0.717-0.407l0.002-0.003 2.349-3.272 4.811 8.92-4.253-0.793c-0.056-0.011-0.12-0.018-0.186-0.018-0.428 0-0.792 0.272-0.929 0.653l-0.002 0.007-1.582 4.425zM0.231 28.257l4.771-9.359 2.667 3.358c0.173 0.223 0.438 0.367 0.736 0.375l0.001 0 4.025 0.164-4.807 8.922-1.675-3.989c-0.152-0.361-0.503-0.61-0.913-0.61-0.085 0-0.167 0.011-0.245 0.031l0.007-0.001-4.567 1.11z"></path>
</symbol>
<symbol id="professional-icon" viewBox="0 0 31 32">
<path fill="#a1a4a6" style="fill: var(--color1, #a1a4a6)" d="M24.562 22.781c1.549-1.927 2.486-4.404 2.486-7.099 0-0.006 0-0.012 0-0.018v0.001c0-6.312-5.117-11.429-11.429-11.429s-11.429 5.116-11.429 11.429c0 0.005 0 0.012 0 0.018 0 2.491 0.8 4.795 2.158 6.668l-0.023-0.033c-0.413 2.686-2.307 3.713-2.307 3.713l-1.003-1.003 1.524-1.955c-0.933-1.373-1.627-2.988-1.981-4.728l-0.014-0.085-2.458-0.305v-4.582l2.459-0.305c0.368-1.824 1.062-3.44 2.025-4.859l-0.030 0.046-1.524-1.955 3.24-3.24 1.956 1.525c1.372-0.933 2.988-1.627 4.727-1.981l0.085-0.014 0.305-2.459h4.582l0.305 2.459c1.824 0.368 3.44 1.063 4.859 2.025l-0.047-0.030 1.955-1.525 3.24 3.24-1.524 1.955c0.933 1.373 1.627 2.988 1.981 4.728l0.014 0.085 2.459 0.305v4.582l-2.459 0.305c-0.368 1.824-1.063 3.44-2.025 4.859l0.030-0.046 1.524 1.955-0.886 0.886s-2.361-0.447-2.775-3.133z"></path>
<path fill="#17374c" style="fill: var(--color2, #17374c)" d="M4.526 31.962v-3.545c1.896-0.843 7.701-2.448 7.974-4.769 0.061-0.524-1.173-2.521-1.457-3.478-0.607-0.966-0.823-2.501-0.161-3.521 0.264-0.406 0.152-1.885 0.152-2.443 0-5.556 9.737-5.558 9.737 0 0 0.702-0.163 1.994 0.22 2.546 0.639 0.924 0.309 2.562-0.229 3.418-0.345 1.006-1.658 2.909-1.546 3.478 0.417 2.12 5.802 3.544 7.497 4.298v4.014l-22.187 0.002z"></path>
</symbol>
<symbol id="punnctual-icon" viewBox="0 0 56 32">
<path fill="#a1a4a6" style="fill: var(--color1, #a1a4a6)" d="M53.909 17.83l-26.437 12.696c-0.984 0.472-1.892 1.152-3.072 1.152-2.36 0-4.272-1.912-4.272-4.272s1.992-3.664 4.272-4.272l28.565-7.621c0.426-0.151 0.588-0.206 0.944-0.249 0.704-0.084 1.283 0.574 1.283 1.282s-0.612 0.943-1.283 1.283z"></path>
<path fill="#17374c" style="fill: var(--color2, #17374c)" d="M5.495 21.13c-1.941 5.085-2.359 9.401-2.359 9.401l-2.994-0.19c0.059-4.075 0.356-7.345 1.196-10.501l4.157 1.29zM12.341 10.752c-2.807 2.178-4.727 5.475-6.115 8.571l-4.326-1.373c1.523-5.010 3.941-8.421 7.065-11.236l3.375 4.037zM24.217 6.915c-2.968 0.175-7.689 1.179-10.279 2.741l-3.162-4.436c3.668-2.724 8.623-4.34 13.358-4.903l0.082 6.598zM35.318 11.171l5.932-6.983c-3.679-2.421-9.488-4.041-14.852-4.013l-0.001 6.747c2.669 0.553 5.84 1.917 8.92 4.249zM37.29 12.61c1.365 1.107 2.838 2.389 4.46 3.861l9.641-2.121c-1.96-3.127-5.112-6.335-8.083-8.59l-6.018 6.851z"></path>
</symbol>
<symbol id="motor" viewBox="0 0 32 32">
<path fill="#17374c" style="fill: var(--color2, #17374c)" d="M25.692 16.015c0-0.003 0-0.008 0-0.012 0-2.7-1.098-5.145-2.872-6.91l-0-0c-1.771-1.771-4.218-2.867-6.921-2.867-0.005 0-0.010 0-0.015 0h0.001c-2.709 0-5.161 1.096-6.935 2.866-1.774 1.766-2.872 4.21-2.872 6.91 0 0.004 0 0.008 0 0.013v-0.001c0 0.003 0 0.007 0 0.011 0 2.7 1.098 5.145 2.872 6.91l0 0c1.771 1.771 4.218 2.867 6.92 2.867 0.005 0 0.010 0 0.015 0h-0.001c2.709 0 5.161-1.095 6.935-2.866 1.778-1.774 2.878-4.223 2.878-6.922h2.695c-0 3.452-1.399 6.574-3.66 8.831-2.259 2.26-5.381 3.658-8.83 3.658-0.006 0-0.012 0-0.019 0h0.001c-0.006 0-0.012 0-0.019 0-3.448 0-6.57-1.398-8.83-3.658l-0-0c-2.264-2.26-3.665-5.383-3.665-8.831s1.401-6.571 3.665-8.831c2.259-2.26 5.381-3.658 8.83-3.658 0.006 0 0.013 0 0.019 0h-0.001c0.005 0 0.011 0 0.018 0 3.449 0 6.571 1.398 8.83 3.658l0 0c2.265 2.26 3.665 5.382 3.665 8.831h-2.706zM9.295 20.507c0-0.208 0.021-0.461 0.063-0.754 0-0.021 0.117-0.712 0.357-2.075l1.001-5.758c0.104-0.616 0.331-1.050 0.68-1.311 0.261-0.197 0.599-0.296 1.011-0.296 0.602 0 1.050 0.203 1.349 0.608 0.222 0.302 0.508 1.019 0.863 2.156l1.251 3.857 1.279-3.857c0.294-0.902 0.511-1.493 0.649-1.766 0.338-0.666 0.862-0.998 1.565-0.998 0.401 0 0.735 0.099 0.996 0.293 0.36 0.265 0.591 0.697 0.695 1.293l0.977 5.76c0.164 0.957 0.279 1.631 0.344 2.021s0.099 0.66 0.099 0.809c0 0.315-0.115 0.599-0.342 0.85s-0.526 0.38-0.896 0.38c-0.529 0-0.912-0.171-1.149-0.512-0.153-0.229-0.279-0.619-0.372-1.175l-0.755-4.973-1.743 5.508c-0.128 0.419-0.294 0.713-0.5 0.89-0.206 0.174-0.503 0.262-0.888 0.262-0.378 0-0.672-0.088-0.881-0.262-0.208-0.177-0.378-0.471-0.511-0.89l-1.704-5.51-0.787 4.975c-0.101 0.697-0.268 1.155-0.505 1.368s-0.555 0.32-0.956 0.32c-0.355 0-0.641-0.125-0.86-0.375-0.219-0.247-0.329-0.528-0.329-0.837z"></path>
<path fill="#a1a4a6" style="fill: var(--color1, #a1a4a6)" d="M6.912 0.656c6.198-0.538 11.813-0.526 18.013 0.041 3.404 0.311 6.039 2.939 6.339 6.324 0.55 6.219 0.538 11.834-0.041 18.056-0.315 3.383-2.961 6.001-6.367 6.297-6.198 0.539-11.813 0.526-18.013-0.040-3.404-0.311-6.039-2.94-6.339-6.325-0.55-6.22-0.538-11.834 0.041-18.056 0.314-3.383 2.961-6.001 6.366-6.297zM15.918 1.607c-2.877-0.006-5.793 0.125-8.89 0.394-1.38 0.12-2.603 0.706-3.507 1.601-0.907 0.899-1.507 2.106-1.631 3.451l-0.002 0.022c-0.286 3.074-0.432 5.994-0.439 8.908-0.006 2.882 0.128 5.804 0.403 8.911 0.121 1.368 0.71 2.579 1.609 3.476 0.906 0.905 2.127 1.499 3.503 1.624 3.063 0.279 5.977 0.423 8.886 0.429 2.877 0.006 5.793-0.125 8.89-0.394 1.381-0.119 2.603-0.705 3.507-1.6 0.907-0.899 1.508-2.106 1.632-3.452l0.002-0.022c0.286-3.074 0.432-5.994 0.438-8.908 0.006-2.882-0.128-5.803-0.403-8.911-0.121-1.368-0.71-2.579-1.609-3.476-0.907-0.905-2.127-1.499-3.504-1.624-3.063-0.279-5.977-0.423-8.886-0.429z"></path>
</symbol>
<symbol id="pump" viewBox="0 0 32 32">
<path fill="#17374c" style="fill: var(--color2, #17374c)" d="M14.802 24.16c0.001-0.622 0.505-1.125 1.127-1.125 0 0 0 0 0 0h-0c0 0 0 0 0 0 0.622 0 1.126 0.504 1.127 1.125v4.243c-0.001 0.622-0.505 1.125-1.127 1.125-0 0-0 0-0 0h0c-0 0-0.001 0-0.001 0-0.622 0-1.126-0.504-1.127-1.125v-4.243zM14.828 3.451c0.001-0.622 0.505-1.125 1.127-1.125 0 0 0 0 0 0h-0c0 0 0 0 0 0 0.622 0 1.126 0.504 1.127 1.125v4.243c-0.001 0.622-0.505 1.125-1.127 1.125-0 0-0 0-0 0h0c-0 0-0 0-0 0-0.622 0-1.126-0.504-1.127-1.125v-4.243zM20.741 17.714l-4.721-8.162-4.722 8.162c1.378-0.69 3.003-1.094 4.721-1.094s3.343 0.404 4.784 1.122l-0.062-0.028zM22.572 16.179c0-1.831-0.744-3.489-1.945-4.689-1.2-1.2-2.857-1.942-4.687-1.942-0.004 0-0.007 0-0.011 0h0.001c-1.834 0-3.496 0.742-4.698 1.942-1.202 1.196-1.945 2.852-1.945 4.681 0 0.003 0 0.006 0 0.009v-0c0 1.831 0.744 3.488 1.945 4.688 1.2 1.2 2.857 1.942 4.688 1.942 0.003 0 0.007 0 0.010 0h-0.001c1.834 0 3.496-0.742 4.697-1.942 1.202-1.196 1.946-2.851 1.946-4.681 0-0.003 0-0.005 0-0.008v0zM22.539 9.581c1.692 1.683 2.738 4.013 2.738 6.588 0 0.004 0 0.007 0 0.011v-0.001c0 0.003 0 0.007 0 0.010 0 2.574-1.047 4.904-2.738 6.587l-0 0c-1.688 1.688-4.020 2.733-6.596 2.733-0.005 0-0.009 0-0.014 0h0.001c-0.004 0-0.009 0-0.014 0-2.576 0-4.909-1.044-6.597-2.733l-0-0c-1.692-1.683-2.739-4.013-2.739-6.588 0-0.004 0-0.007 0-0.011v0.001c0-0.003 0-0.006 0-0.010 0-2.575 1.047-4.905 2.738-6.588l0-0c1.688-1.689 4.021-2.733 6.597-2.733 0.005 0 0.009 0 0.014 0h-0.001c0.004 0 0.009 0 0.014 0 2.576 0 4.909 1.044 6.597 2.733l0 0z"></path>
<path fill="#a1a4a6" style="fill: var(--color1, #a1a4a6)" d="M7.035 0.658c6.199-0.539 11.814-0.526 18.014 0.040 3.404 0.311 6.039 2.939 6.339 6.324 0.551 6.22 0.538 11.835-0.041 18.057-0.314 3.383-2.961 6.001-6.366 6.296-6.198 0.539-11.813 0.526-18.014-0.040-3.404-0.311-6.039-2.94-6.338-6.324-0.551-6.22-0.538-11.835 0.041-18.056 0.313-3.383 2.96-6.001 6.365-6.297zM16.042 1.609c-2.877-0.007-5.793 0.125-8.89 0.394-1.381 0.12-2.603 0.706-3.507 1.6-0.907 0.899-1.508 2.106-1.632 3.451l-0.002 0.022c-0.285 3.073-0.432 5.994-0.438 8.908-0.006 2.882 0.128 5.803 0.403 8.911 0.121 1.368 0.71 2.579 1.609 3.476 0.907 0.905 2.127 1.499 3.504 1.625 3.063 0.279 5.977 0.422 8.886 0.429 2.877 0.006 5.793-0.125 8.89-0.394 1.381-0.12 2.603-0.706 3.507-1.6 0.907-0.899 1.508-2.106 1.632-3.451l0.002-0.022c0.285-3.074 0.432-5.993 0.438-8.908 0.006-2.882-0.128-5.804-0.403-8.911-0.121-1.368-0.71-2.579-1.609-3.476-0.907-0.905-2.127-1.499-3.504-1.625-3.063-0.279-5.977-0.422-8.886-0.429z"></path>
</symbol>
<symbol id="tank" viewBox="0 0 32 32">
<path fill="#17374c" style="fill: var(--color2, #17374c)" d="M10.943 6.828c0.231 0.184 0.426 0.412 0.621 0.638 0.293 0.341 0.586 0.683 0.88 0.683 0.146 0 0.334-0.263 0.521-0.525 0.32-0.448 0.639-0.895 1.237-0.895 0.608 0 0.914 0.457 1.218 0.912 0.17 0.254 0.339 0.508 0.466 0.508 0.13 0 0.31-0.258 0.489-0.516 0.316-0.452 0.63-0.904 1.232-0.904s0.91 0.452 1.218 0.905c0.175 0.257 0.35 0.515 0.487 0.515 0.293 0 0.591-0.343 0.89-0.685 0.194-0.224 0.388-0.447 0.627-0.636l0.557 0.703c-0.159 0.126-0.332 0.325-0.504 0.522-0.435 0.498-0.87 0.996-1.57 0.996-0.61 0-0.921-0.457-1.23-0.912-0.173-0.254-0.345-0.508-0.475-0.508-0.134 0-0.313 0.258-0.493 0.516-0.314 0.453-0.627 0.904-1.229 0.904-0.605 0-0.909-0.454-1.212-0.909-0.17-0.255-0.342-0.511-0.471-0.511-0.136 0-0.32 0.257-0.504 0.516-0.322 0.451-0.646 0.904-1.253 0.904-0.706 0-1.135-0.5-1.564-1-0.166-0.193-0.333-0.388-0.497-0.518l0.56-0.703zM24.691 5.065v18.024c0 1.354-0.556 2.587-1.453 3.484l-0.005 0.005c-0.899 0.895-2.135 1.45-3.491 1.45h-7.715c-1.357 0-2.592-0.555-3.491-1.45l-0.005-0.005c-0.897-0.897-1.453-2.13-1.453-3.484v-18.025h2.706v18.025c0 0.001 0 0.002 0 0.003 0 0.616 0.25 1.174 0.654 1.577l0 0 0.005 0.005c0.404 0.404 0.963 0.654 1.579 0.654 0.001 0 0.003 0 0.004 0h7.715c0.001 0 0.002 0 0.004 0 0.617 0 1.175-0.25 1.579-0.654l-0 0 0.005-0.005c0.405-0.403 0.655-0.961 0.655-1.577 0-0.001 0-0.002 0-0.003v0-18.025h2.706zM10.753 16.738c0-0.952 0.268-1.715 0.804-2.29s1.252-0.861 2.145-0.861c0.887 0 1.598 0.286 2.136 0.857 0.538 0.572 0.807 1.336 0.807 2.294s-0.268 1.724-0.805 2.298c-0.536 0.574-1.248 0.861-2.138 0.861-0.894 0-1.609-0.287-2.145-0.861s-0.804-1.34-0.804-2.298zM12.218 16.738c0 0.534 0.115 0.969 0.345 1.308 0.264 0.385 0.643 0.58 1.139 0.583 0.493 0 0.87-0.195 1.134-0.583 0.23-0.342 0.345-0.777 0.345-1.308 0-0.527-0.115-0.962-0.345-1.303-0.264-0.385-0.641-0.578-1.134-0.578-0.494 0-0.874 0.193-1.139 0.578-0.23 0.336-0.345 0.77-0.345 1.303zM16.964 14.013c0-0.218 0.077-0.404 0.23-0.557s0.337-0.23 0.552-0.23c0.219 0 0.404 0.076 0.555 0.225 0.153 0.151 0.229 0.338 0.229 0.562 0 0.225-0.076 0.413-0.229 0.564-0.137 0.141-0.328 0.229-0.54 0.229-0.005 0-0.011-0-0.016-0h0.001c-0.22 0-0.404-0.076-0.556-0.229-0.15-0.151-0.226-0.338-0.226-0.564zM17.274 19.62c-0.122-0.128-0.184-0.294-0.184-0.496v-3.243c0-0.19 0.060-0.353 0.181-0.483 0.121-0.132 0.279-0.197 0.475-0.197 0.191 0 0.349 0.064 0.472 0.193s0.186 0.291 0.186 0.487v3.243c0 0.197-0.060 0.361-0.181 0.492-0.121 0.132-0.28 0.197-0.477 0.197-0.192 0-0.349-0.064-0.471-0.193zM18.964 19.124v-5.209c0-0.196 0.060-0.361 0.181-0.491 0.121-0.132 0.279-0.198 0.474-0.198 0.191 0 0.349 0.068 0.473 0.202 0.123 0.133 0.185 0.297 0.185 0.487v5.209c0 0.197-0.060 0.361-0.181 0.492-0.121 0.132-0.281 0.197-0.477 0.197-0.192 0-0.349-0.064-0.471-0.193s-0.183-0.294-0.183-0.496z"></path>
<path fill="#a1a4a6" style="fill: var(--color1, #a1a4a6)" d="M6.912 0.512c6.198-0.538 11.813-0.526 18.013 0.041 3.404 0.311 6.039 2.939 6.339 6.324 0.55 6.219 0.538 11.834-0.041 18.056-0.315 3.383-2.961 6.001-6.367 6.297-6.198 0.539-11.813 0.526-18.013-0.040-3.404-0.311-6.039-2.94-6.339-6.325-0.55-6.22-0.538-11.834 0.041-18.056 0.314-3.383 2.961-6.001 6.366-6.297zM15.918 1.463c-2.877-0.006-5.793 0.125-8.89 0.394-1.38 0.12-2.603 0.706-3.507 1.601-0.907 0.899-1.507 2.106-1.631 3.451l-0.002 0.022c-0.286 3.074-0.432 5.994-0.439 8.908-0.006 2.882 0.128 5.804 0.403 8.911 0.121 1.368 0.71 2.579 1.609 3.476 0.906 0.905 2.127 1.499 3.503 1.624 3.063 0.279 5.977 0.423 8.886 0.429 2.877 0.006 5.793-0.125 8.89-0.394 1.381-0.119 2.603-0.705 3.507-1.6 0.907-0.899 1.508-2.106 1.632-3.451l0.002-0.022c0.286-3.074 0.432-5.994 0.438-8.908 0.006-2.882-0.128-5.804-0.403-8.911-0.121-1.368-0.71-2.579-1.609-3.476-0.907-0.905-2.127-1.499-3.504-1.624-3.063-0.279-5.977-0.423-8.886-0.429z"></path>
</symbol>
<symbol id="valve" viewBox="0 0 32 32">
<path fill="#17374c" style="fill: var(--color2, #17374c)" d="M5.567 5.080c-0.003-0-0.007-0-0.011-0-0.125 0-0.237 0.052-0.317 0.135l-0.002 0.002-0.013 0.014v0.001c-0.049 0.057-0.085 0.126-0.104 0.202l-0.001 0.003c-0.007 0.030-0.011 0.064-0.011 0.1v4.566c0 0.528 0.768 0.64 0.904 0.101 0.006-0.035 0.011-0.064 0.011-0.101v-4.109h3.504c0.53 0 0.641-0.768 0.101-0.902-0.030-0.007-0.065-0.011-0.1-0.011h-3.962zM18.788 23.817c-0.058 0.21-0.216 0.39-0.438 0.466l-1.678 0.576 1.573 0.276c0.324 0.058 0.567 0.338 0.567 0.674 0 0.317-0.216 0.584-0.508 0.661l-0.005 0.001-4.143 1.389c-0.065 0.022-0.139 0.035-0.217 0.035-0.377 0-0.683-0.306-0.683-0.683 0-0.299 0.193-0.554 0.461-0.646l0.005-0.001 1.637-0.549-1.527-0.268c-0.329-0.054-0.577-0.336-0.577-0.676 0-0.298 0.191-0.552 0.457-0.646l0.005-0.001 1.775-0.609h-4.281c-0 0-0.001 0-0.001 0-0.697 0-1.327-0.282-1.783-0.739l-0-0c-0.457-0.455-0.741-1.085-0.741-1.781 0-0 0-0 0-0v0-4.222h-1.24c-0.386 0.606-1.055 1.003-1.816 1.003-0.001 0-0.001 0-0.002 0h0c-0.001 0-0.001 0-0.002 0-1.183 0-2.143-0.959-2.144-2.142v-0c0.001-1 0.686-1.84 1.614-2.076l0.015-0.003v-1.014c0-0.037 0.005-0.066 0.011-0.101 0.135-0.539 0.904-0.428 0.904 0.101v0.988c0.6 0.116 1.102 0.468 1.413 0.954l0.005 0.009h1.241v-4.085c0-0.694 0.284-1.325 0.741-1.781 0.456-0.457 1.087-0.74 1.784-0.74 0 0 0.001 0 0.001 0h5.177v-2.193h-4.113c-0.037 0-0.066-0.005-0.101-0.011-0.54-0.135-0.43-0.902 0.101-0.902h4.574c0.038 0 0.066 0.005 0.101 0.011 0.261 0.065 0.369 0.277 0.353 0.48v2.615h3.634c0.695 0 1.327 0.283 1.784 0.74s0.741 1.087 0.741 1.781v4.088h1.822c0.386-0.605 1.054-1.001 1.815-1.001 0.001 0 0.001 0 0.002 0h-0c0.001 0 0.001 0 0.002 0 1.184 0 2.143 0.959 2.144 2.143v0c-0.001 1.183-0.961 2.142-2.144 2.142-0.001 0-0.002 0-0.002 0h0c-0 0-0.001 0-0.001 0-0.761 0-1.429-0.396-1.81-0.992l-0.005-0.009h-1.823v4.221c0 0.694-0.283 1.325-0.741 1.781s-1.087 0.739-1.783 0.739c-0 0-0.001 0-0.001 0h-2.148zM11.44 13.904h4.789v0.884l4.788-1.768-4.788-1.768v0.884h-4.789v1.768zM20.935 10.469h-9.726c-0.065 0-0.125 0.027-0.167 0.070l-0 0c-0.043 0.043-0.070 0.101-0.071 0.167v10.591c0 0.064 0.027 0.123 0.071 0.167s0.102 0.070 0.167 0.070h9.726c0.064 0 0.123-0.027 0.167-0.070s0.070-0.102 0.070-0.167v-10.591c0-0.064-0.027-0.123-0.070-0.167s-0.102-0.070-0.167-0.070h-0z"></path>
<path fill="#a1a4a6" style="fill: var(--color1, #a1a4a6)" d="M6.971 0.423c6.287-0.546 11.982-0.533 18.271 0.041 3.452 0.315 6.126 2.982 6.429 6.414 0.558 6.309 0.545 12.004-0.041 18.314-0.319 3.432-3.003 6.087-6.457 6.387-6.287 0.546-11.982 0.533-18.271-0.040-3.452-0.315-6.125-2.982-6.429-6.415-0.558-6.309-0.545-12.003 0.041-18.314 0.319-3.432 3.003-6.087 6.457-6.387zM16.106 1.387c-2.918-0.006-5.875 0.127-9.017 0.4-1.4 0.122-2.64 0.716-3.558 1.624-0.92 0.912-1.529 2.136-1.655 3.5l-0.002 0.022c-0.29 3.118-0.438 6.080-0.444 9.035-0.006 2.923 0.13 5.887 0.409 9.039 0.123 1.387 0.72 2.616 1.632 3.526 0.919 0.918 2.158 1.52 3.554 1.648 3.106 0.283 6.062 0.429 9.013 0.435 2.918 0.006 5.876-0.127 9.017-0.4 1.4-0.121 2.64-0.715 3.558-1.623 0.92-0.912 1.529-2.136 1.655-3.5l0.002-0.022c0.29-3.118 0.438-6.080 0.445-9.035 0.006-2.923-0.13-5.886-0.409-9.038-0.122-1.387-0.72-2.616-1.632-3.526-0.919-0.917-2.158-1.52-3.554-1.648-3.106-0.283-6.063-0.429-9.013-0.435z"></path>
</symbol>
<symbol id="arrow" viewBox="0 0 32 32">
<path fill="#ef8215" style="fill: var(--color3, #ef8215)" opacity="0.61" d="M24 16l-8 16h-8l8-16-8-16h8l8 16z"></path>
</symbol>
<symbol id="characteristics" viewBox="0 0 32 32">
<path fill="#17374c" style="fill: var(--color2, #17374c)" d="M15.869 22.691c-0.002 0-0.005 0-0.008 0-1.833 0-3.492-0.744-4.691-1.947l-0-0c-1.203-1.2-1.947-2.859-1.947-4.691 0-0.003 0-0.005 0-0.008v0c0-1.835 0.744-3.497 1.947-4.699 1.2-1.203 2.858-1.947 4.691-1.947 0.003 0 0.006 0 0.008 0h-0c1.834 0 3.495 0.744 4.698 1.946 1.204 1.199 1.949 2.858 1.949 4.691 0 0.003 0 0.006 0 0.009v-0c0 1.835-0.744 3.497-1.947 4.699-1.201 1.203-2.86 1.947-4.694 1.947-0.002 0-0.004 0-0.006 0h0zM11.849 20.065c1.026 1.029 2.445 1.665 4.013 1.665 0.002 0 0.005 0 0.007 0h-0c1.571 0 2.993-0.637 4.021-1.664s1.665-2.447 1.665-4.015c0-0.002 0-0.004 0-0.006v0c0-1.57-0.637-2.992-1.665-4.020-1.026-1.029-2.445-1.665-4.012-1.665-0.003 0-0.006 0-0.009 0h0.001c-0.002 0-0.005 0-0.007 0-1.568 0-2.987 0.636-4.013 1.665l-0 0c-1.029 1.026-1.665 2.446-1.665 4.013 0 0.002 0 0.005 0 0.007v-0c0 1.57 0.637 2.992 1.665 4.020zM18.911 18.019l-0.010-0.096c-0.023-0.224-0.204-0.493-0.402-0.597l-0.733-0.389c-0.198-0.104-0.518-0.096-0.707 0.024l-0.346 0.219c-0.943-0.505-1.585-1.464-1.634-2.577l-0-0.007 0.347-0.219c0.189-0.12 0.334-0.404 0.325-0.629l-0.037-0.829c-0.011-0.224-0.176-0.503-0.368-0.619l-0.083-0.050c-0.192-0.116-0.505-0.113-0.695 0.007l-0.517 0.327c-0.093 0.059-0.189 0.263-0.189 0.263-0.088 0.354-0.138 0.761-0.138 1.179 0 2.442 1.712 4.484 4.001 4.992l0.034 0.006c0.007 0 0.239 0.003 0.331-0.055l0.518-0.328c0.189-0.12 0.326-0.401 0.304-0.625zM25.751 14.51h-1.962c-0.315-1.222-0.594-1.891-1.236-2.977l1.388-1.388v-1.523l-0.648-0.648h-1.524l-1.386 1.385c-1.090-0.643-1.752-0.916-2.978-1.229v-1.968l-1.074-1.074h-0.92l-1.074 1.074v1.965c-1.222 0.313-1.891 0.591-2.977 1.234l-1.389-1.387h-1.523l-0.648 0.648v1.523l1.386 1.388c-0.642 1.087-0.917 1.755-1.234 2.977h-1.962l-1.074 1.074v0.92l1.074 1.074h1.962c0.317 1.222 0.592 1.89 1.234 2.977l-1.386 1.387v1.524l0.648 0.648h1.523l1.389-1.388c1.087 0.644 1.753 0.92 2.977 1.235v1.963l1.074 1.074h0.92l1.074-1.074v-1.963c1.22-0.315 1.893-0.592 2.978-1.232l1.387 1.385h1.524l0.648-0.649v-1.524l-1.385-1.386c0.64-1.085 0.918-1.758 1.232-2.979h1.963l1.074-1.074v-0.92l-1.074-1.074zM24.761 13.23h1.519l1.825 1.825v1.979l-1.825 1.825h-1.519c-0.184 0.576-0.392 1.067-0.639 1.534l0.024-0.050 1.075 1.076v2.577l-1.4 1.4h-2.578l-1.076-1.075c-0.417 0.223-0.908 0.431-1.418 0.596l-0.066 0.018v1.519l-1.825 1.825h-1.979l-1.825-1.825v-1.518c-0.576-0.184-1.067-0.392-1.535-0.639l0.050 0.024-1.076 1.075h-2.577l-1.4-1.4v-2.577l1.074-1.075c-0.221-0.416-0.429-0.908-0.595-1.418l-0.019-0.067h-1.519l-1.825-1.825v-1.979l1.825-1.825h1.519c0.184-0.577 0.392-1.068 0.639-1.536l-0.025 0.051-1.074-1.075v-2.576l1.4-1.4h2.576l1.076 1.075c0.417-0.223 0.909-0.431 1.419-0.596l0.065-0.018v-1.52l1.825-1.825h1.979l1.825 1.825v1.518c0.512 0.161 1.008 0.369 1.484 0.617l1.075-1.075h2.578l1.4 1.4v2.577l-1.075 1.074c0.223 0.417 0.431 0.909 0.596 1.42l0.018 0.065z"></path>
<path fill="#a1a4a6" style="fill: var(--color1, #a1a4a6)" d="M7.47 1.579c5.802-0.507 11.059-0.496 16.863 0.038 3.186 0.293 5.653 2.768 5.933 5.956 0.516 5.858 0.504 11.145-0.038 17.005-0.294 3.187-2.771 5.652-5.959 5.931-5.802 0.507-11.059 0.495-16.863-0.038-3.187-0.293-5.653-2.769-5.933-5.957-0.515-5.858-0.503-11.145 0.038-17.005 0.295-3.187 2.772-5.652 5.96-5.931zM15.901 2.802c-2.674-0.006-5.395 0.118-8.293 0.371-1.211 0.105-2.284 0.623-3.078 1.412-0.796 0.793-1.32 1.862-1.432 3.068-0.267 2.887-0.404 5.628-0.41 8.36-0.006 2.695 0.12 5.438 0.378 8.364 0.106 1.211 0.624 2.283 1.415 3.077 0.793 0.796 1.862 1.32 3.069 1.43 2.859 0.262 5.579 0.397 8.289 0.403 2.674 0.005 5.395-0.118 8.293-0.371 1.212-0.106 2.284-0.623 3.078-1.413 0.797-0.793 1.321-1.863 1.432-3.068 0.267-2.888 0.404-5.628 0.41-8.36 0.005-2.695-0.12-5.438-0.378-8.364-0.106-1.211-0.624-2.283-1.415-3.077-0.793-0.796-1.863-1.319-3.069-1.43-2.859-0.263-5.578-0.397-8.288-0.403z"></path>
</symbol>
<symbol id="orderconfirm" viewBox="0 0 32 32">
<path fill="#a1a4a6" style="fill: var(--color1, #a1a4a6)" d="M7.373 2.042c5.802-0.509 11.056-0.496 16.861 0.035 3.187 0.295 5.654 2.771 5.936 5.959 0.515 5.856 0.502 11.145-0.038 17.005-0.295 3.187-2.771 5.651-5.962 5.93-5.801 0.509-11.056 0.496-16.861-0.035-3.187-0.294-5.654-2.771-5.936-5.958-0.515-5.856-0.502-11.145 0.039-17.005 0.294-3.187 2.771-5.651 5.961-5.93zM15.802 3.264c-2.672-0.006-5.395 0.118-8.291 0.371-1.213 0.105-2.285 0.621-3.078 1.411-0.797 0.794-1.322 1.862-1.434 3.069-0.265 2.886-0.403 5.629-0.41 8.358-0.003 2.695 0.122 5.44 0.378 8.365 0.109 1.213 0.627 2.285 1.415 3.078 0.793 0.794 1.865 1.319 3.072 1.431 2.858 0.259 5.578 0.397 8.288 0.4 2.672 0.006 5.395-0.115 8.291-0.371 1.213-0.105 2.285-0.621 3.078-1.411 0.797-0.793 1.322-1.862 1.434-3.069 0.265-2.886 0.403-5.629 0.41-8.358 0.003-2.698-0.122-5.44-0.378-8.365-0.109-1.213-0.627-2.285-1.418-3.078s-1.862-1.319-3.069-1.427c-2.858-0.266-5.578-0.4-8.288-0.403z"></path>
<path fill="#17374c" style="fill: var(--color2, #17374c)" d="M8.905 19.139c0.97 0 1.767 0.797 1.767 1.763-0.002 0.975-0.792 1.765-1.766 1.767h-0c-0.966 0-1.763-0.797-1.763-1.767 0-0.966 0.797-1.763 1.763-1.763zM8.905 20.099c-0.443 0-0.802 0.36-0.803 0.803v0c0 0.445 0.362 0.807 0.803 0.807 0.001 0 0.002 0 0.003 0 0.443 0 0.803-0.36 0.803-0.803 0-0.001 0-0.003 0-0.004v0c-0.002-0.444-0.362-0.803-0.806-0.803 0 0 0 0 0 0v0zM17.472 23.965c-2.749-0.176-4.381-0.304-4.336-3.053 0.035-2.118 0.118-4.17-0.112-6.278 1.702-0.563 2.205-2.339 2.189-4.013-0.025-1.274-0.067-3.504 2.285-3.539 1.072-0.006 1.61 1.053 1.875 1.942 0.256 0.855 0.346 1.834 0.352 2.269 0.074 0.381-0.157 1.859-0.224 2.317l4.976 0.042c1.856-0.010 2.573 2.173 1.187 3.366 0.406 0.733 0.282 1.632-0.375 2.179 0.455 0.711 0.365 1.632-0.256 2.218 0.154 0.253 0.243 0.55 0.243 0.864-0.003 0.921-0.749 1.668-1.67 1.671l-6.135 0.016zM17.552 22.688l6.055-0.019c0 0 0.001 0 0.002 0 0.213 0 0.385-0.172 0.385-0.385 0-0.002 0-0.004-0-0.006v0c0-0 0-0 0-0.001 0-0.199-0.146-0.364-0.337-0.392l-0.002-0 0.138-1.271c0.295 0.003 0.49-0.16 0.509-0.458-0.003-0.205-0.214-0.512-0.422-0.518l0.176-1.264c0.733-0.013 0.691-0.877 0.186-0.963l0.192-1.264c0.406 0.016 0.665-0.256 0.682-0.656 0-0.359-0.304-0.563-0.637-0.563l-4.777-0.019c-0.759-0.009-1.498-0.393-1.485-1.238 0.448-1.594 0.717-5.347-0.707-5.312-0.829 0.019-1.033 1.437-1.021 2.243 0.016 1.625-0.605 3.952-2.086 4.861 0.17 1.664 0.042 3.767 0.013 5.469-0.025 1.641 1.597 1.657 3.139 1.757zM7.43 13.655h3.046c1.085 0 1.975 0.89 1.975 1.975v6.301c0 1.085-0.89 1.975-1.975 1.975h-3.046c-1.085 0-1.974-0.89-1.974-1.975v-6.301c0-1.085 0.89-1.974 1.975-1.974zM10.477 14.935h-3.046c-0.384 0-0.694 0.31-0.694 0.695v6.301c0 0.384 0.31 0.695 0.695 0.695h3.046c0.384 0 0.695-0.311 0.695-0.695v-6.301c0-0.384-0.311-0.694-0.695-0.694z"></path>
</symbol>
<symbol id="orderdelivery" viewBox="0 0 32 32">
<path fill="#a1a4a6" style="fill: var(--color1, #a1a4a6)" d="M7.372 2.040c5.802-0.507 11.059-0.495 16.863 0.038 3.187 0.293 5.653 2.768 5.933 5.956 0.516 5.858 0.504 11.145-0.038 17.005-0.294 3.187-2.771 5.652-5.96 5.931-5.802 0.507-11.059 0.495-16.863-0.038-3.187-0.293-5.653-2.769-5.933-5.957-0.515-5.858-0.504-11.145 0.038-17.005 0.294-3.187 2.772-5.652 5.96-5.931zM15.802 3.263c-2.674-0.006-5.395 0.118-8.293 0.371-1.211 0.105-2.284 0.623-3.078 1.412-0.796 0.793-1.32 1.862-1.432 3.069-0.267 2.887-0.403 5.628-0.409 8.36-0.006 2.695 0.12 5.438 0.377 8.364 0.107 1.211 0.624 2.283 1.415 3.077 0.793 0.796 1.863 1.32 3.069 1.43 2.859 0.262 5.578 0.397 8.288 0.403 2.674 0.005 5.395-0.118 8.293-0.371 1.211-0.106 2.284-0.623 3.078-1.413 0.796-0.793 1.32-1.863 1.432-3.068 0.267-2.887 0.404-5.628 0.409-8.36 0.006-2.695-0.12-5.438-0.377-8.364-0.106-1.211-0.624-2.283-1.415-3.077-0.793-0.796-1.863-1.319-3.069-1.43-2.859-0.263-5.578-0.397-8.288-0.403z"></path>
<path fill="#17374c" style="fill: var(--color2, #17374c)" d="M9.628 11.752c-0.442 0-0.8-0.358-0.8-0.8s0.358-0.8 0.8-0.8v0h9.684c0.425 0.001 0.81 0.174 1.088 0.453l0 0c0.282 0.278 0.457 0.664 0.457 1.091v0 0.748h1.748c0.524 0 1.015 0.147 1.431 0.415 0.424 0.278 0.757 0.664 0.965 1.119l0.007 0.017 0.632 1.391c0.042 0.094 0.093 0.175 0.152 0.246 0.058 0.068 0.131 0.132 0.22 0.192l0.221 0.149c0.362 0.244 0.654 0.565 0.858 0.94l0.007 0.014 0.003 0.003c0.193 0.358 0.306 0.783 0.306 1.235 0 0.005 0 0.010-0 0.015v-0.001 1.467c0 0.425-0.174 0.813-0.454 1.092s-0.665 0.453-1.091 0.453h-0.773c-0.343 0.978-1.259 1.667-2.335 1.667h-0c-0.68-0-1.296-0.276-1.741-0.723l-0-0-0.003-0.003c-0.258-0.258-0.459-0.573-0.584-0.924l-0.005-0.017h-5.13c-0.343 0.978-1.258 1.667-2.335 1.667h-0c-0.68-0-1.296-0.276-1.741-0.723l-0.003-0.003c-0.258-0.258-0.46-0.573-0.584-0.924l-0.005-0.017h-0.994c-0.427-0-0.813-0.173-1.092-0.453l-0-0c-0.28-0.279-0.453-0.665-0.453-1.092v-1.774c0-0.070 0.009-0.139 0.026-0.204h-1.909c-0.442 0-0.8-0.358-0.8-0.8s0.358-0.8 0.8-0.8h13.058v-4.317h-9.629zM20.857 14.045c0 1.548 0.070 3.245-0.004 4.777l0.16-0.175c0.446-0.447 1.062-0.723 1.743-0.723s1.297 0.276 1.743 0.723l0 0c0.257 0.259 0.459 0.575 0.584 0.927l0.005 0.018h0.719v-0.612h-0.263c-0 0-0 0-0.001 0-0.442 0-0.8-0.358-0.8-0.8 0-0.41 0.309-0.748 0.706-0.795l0.004-0-0.114-0.086-0.221-0.149c-0.208-0.14-0.387-0.301-0.542-0.482l-0.003-0.004c-0.15-0.178-0.279-0.382-0.379-0.602l-0.007-0.017-0.636-1.394c-0.083-0.186-0.213-0.338-0.374-0.445l-0.004-0.002c-0.157-0.1-0.349-0.159-0.555-0.159-0.005 0-0.010 0-0.015 0h-1.747zM19.257 18.744v-1.075h-9.6c0.017 0.065 0.026 0.133 0.026 0.204v1.719h0.939c0.13-0.369 0.331-0.683 0.589-0.941l0.003-0.003c0.445-0.447 1.061-0.723 1.742-0.723s1.296 0.276 1.742 0.723l0.003 0.003c0.258 0.258 0.46 0.573 0.584 0.924l0.005 0.017h5.13l0.067-0.174c-0.122 0.079-0.271 0.126-0.431 0.126-0.442 0-0.8-0.358-0.8-0.8 0-0 0-0 0-0v0zM11.213 14.087c0.442 0 0.8 0.358 0.8 0.8s-0.358 0.8-0.8 0.8h-2.744c-0.442 0-0.8-0.358-0.8-0.8s0.358-0.8 0.8-0.8h2.744zM6.801 12.077c0.442 0 0.8 0.358 0.8 0.8s-0.358 0.8-0.8 0.8h-1.093c-0.442 0-0.8-0.358-0.8-0.8s0.358-0.8 0.8-0.8v0h1.093zM7.411 10.151c0.442 0 0.8 0.358 0.8 0.8s-0.358 0.8-0.8 0.8v0h-1.093c-0.442 0-0.8-0.358-0.8-0.8s0.358-0.8 0.8-0.8v0h1.093zM6.028 14.087c0.442 0 0.8 0.358 0.8 0.8s-0.358 0.8-0.8 0.8h-1.093c-0.442 0-0.8-0.358-0.8-0.8s0.358-0.8 0.8-0.8h1.093zM13.394 12.077c0.442 0 0.8 0.358 0.8 0.8s-0.358 0.8-0.8 0.8h-4.312c-0.442 0-0.8-0.358-0.8-0.8s0.358-0.8 0.8-0.8v0h4.312zM12.956 21.259c0.241 0 0.459-0.097 0.615-0.252 0.156-0.158 0.252-0.376 0.252-0.615s-0.096-0.457-0.252-0.615l0 0c-0.157-0.156-0.373-0.252-0.612-0.252-0.001 0-0.002 0-0.003 0h0c-0.241 0-0.459 0.096-0.616 0.252s-0.252 0.374-0.252 0.616c0 0.241 0.097 0.459 0.252 0.615 0.157 0.156 0.374 0.252 0.615 0.252zM22.754 21.259c0 0 0.001 0 0.002 0 0.478 0 0.866-0.388 0.866-0.866 0-0.001 0-0.001 0-0.002v0c0-0.241-0.096-0.459-0.252-0.616-0.158-0.156-0.375-0.252-0.615-0.252s-0.457 0.096-0.615 0.252l0-0c-0.156 0.157-0.253 0.374-0.253 0.616s0.097 0.459 0.253 0.615c0.156 0.156 0.374 0.252 0.615 0.252z"></path>
</symbol>
<symbol id="orderpay" viewBox="0 0 32 32">
<path fill="#a1a4a6" style="fill: var(--color1, #a1a4a6)" d="M7.372 2.040c5.802-0.507 11.059-0.495 16.863 0.038 3.187 0.293 5.653 2.768 5.933 5.956 0.516 5.858 0.504 11.145-0.038 17.005-0.294 3.187-2.771 5.652-5.96 5.931-5.802 0.507-11.059 0.495-16.863-0.038-3.187-0.293-5.653-2.769-5.933-5.957-0.515-5.858-0.504-11.145 0.038-17.005 0.294-3.187 2.772-5.652 5.96-5.931zM15.802 3.263c-2.674-0.006-5.395 0.118-8.293 0.371-1.211 0.105-2.284 0.623-3.078 1.412-0.796 0.793-1.32 1.862-1.432 3.069-0.267 2.887-0.403 5.628-0.409 8.36-0.006 2.695 0.12 5.438 0.377 8.364 0.107 1.211 0.624 2.283 1.415 3.077 0.793 0.796 1.863 1.32 3.069 1.43 2.859 0.262 5.578 0.397 8.288 0.403 2.674 0.005 5.395-0.118 8.293-0.371 1.211-0.106 2.284-0.623 3.078-1.413 0.796-0.793 1.32-1.863 1.432-3.068 0.267-2.887 0.404-5.628 0.409-8.36 0.006-2.695-0.12-5.438-0.377-8.364-0.106-1.211-0.624-2.283-1.415-3.077-0.793-0.796-1.863-1.319-3.069-1.43-2.859-0.263-5.578-0.397-8.288-0.403z"></path>
<path fill="#17374c" style="fill: var(--color2, #17374c)" d="M24.475 10.853l-16.488-0.001c-0 0-0 0-0 0-0.65 0-1.177 0.527-1.177 1.177 0 0 0 0 0 0v-0l-0.001 9.421c0 0 0 0 0 0 0 0.65 0.527 1.178 1.178 1.178l16.488 0.001c0 0 0 0 0 0 0.65 0 1.177-0.527 1.177-1.177 0-0 0-0 0-0v0l0.001-9.422c0-0 0-0 0-0 0-0.65-0.527-1.178-1.178-1.178v0zM24.473 21.453l-16.488-0.002 0.001-5.888 16.488 0.001-0.001 5.889zM24.474 13.208l-16.488-0.001 0-1.178 16.488 0.001v1.178zM9.163 20.274h2.356v-1.178l-2.355-0v1.178zM12.696 20.274h2.355v-1.177l-2.355-0v1.178zM19.174 20.275c0.454 0 0.865-0.177 1.178-0.459 0.31 0.283 0.723 0.457 1.177 0.459h0c0.011 0 0.025 0 0.039 0 0.976 0 1.767-0.791 1.767-1.767s-0.791-1.767-1.767-1.767c-0.014 0-0.027 0-0.041 0l0.002-0c-0.454 0.001-0.868 0.175-1.179 0.459l0.001-0.001c-0.309-0.283-0.723-0.457-1.177-0.459h-0c-0.976 0-1.767 0.791-1.767 1.767s0.791 1.767 1.767 1.767v0z"></path>
</symbol>
<symbol id="mail" viewBox="0 0 43 32">
<path d="M38.669 0.681h-34.671c-2.21 0-4 1.638-4 3.661v21.963c0 2.022 1.792 3.661 4 3.661h34.671c2.21 0 4-1.638 4-3.661v-21.963c0-2.022-1.792-3.661-4-3.661zM41.335 25.762l-12.612-11.541 12.612-7.356v18.897zM3.998 1.899h34.671c1.472 0 2.667 1.094 2.667 2.441v1.077l-18.357 10.705c-0.453 0.266-0.998 0.422-1.58 0.422-0.611 0-1.182-0.173-1.665-0.473l0.014 0.008-18.415-11.454v-0.284c0-1.346 1.195-2.441 2.667-2.441zM1.331 6.101l12.789 7.955-12.789 11.706v-19.661zM38.669 28.745h-34.671c-1.099 0-2.044-0.61-2.451-1.481l13.681-12.523 3.77 2.347c0.725 0.448 1.562 0.674 2.4 0.674 0.796 0 1.594-0.203 2.298-0.612l3.893-2.272 13.532 12.384c-0.407 0.87-1.353 1.481-2.451 1.481z"></path>
</symbol>
<symbol id="phone-icon" viewBox="0 0 20 32">
<path d="M1.58 31.021h16.842c0.869 0 1.578-0.648 1.578-1.445v-27.936c0-0.797-0.707-1.445-1.58-1.445h-16.842c-0.869 0-1.578 0.647-1.578 1.445v27.934c0 0.797 0.707 1.445 1.58 1.445zM1.053 1.64c0-0.266 0.236-0.482 0.527-0.482h16.842c0.29 0 0.525 0.216 0.525 0.482v27.934c0 0.266-0.236 0.482-0.527 0.482h-16.842c-0.29 0-0.525-0.216-0.525-0.482v-27.934z"></path>
<path d="M2.632 26.205h14.737c0.29 0 0.525-0.216 0.525-0.482v-20.231c0-0.264-0.236-0.482-0.527-0.482h-14.737c-0.29 0-0.525 0.217-0.525 0.482v20.231c0 0.266 0.236 0.482 0.527 0.482zM3.158 5.974h13.684v19.267h-13.684v-19.267zM10.526 29.095c0.581 0 1.053-0.431 1.053-0.963s-0.472-0.963-1.053-0.963-1.053 0.431-1.053 0.963c0 0.532 0.472 0.963 1.053 0.963zM7.896 4.049h4.211c0.29 0 0.525-0.217 0.525-0.482 0-0.266-0.236-0.482-0.527-0.482h-4.211c-0.29 0-0.525 0.216-0.525 0.482 0 0.264 0.236 0.482 0.527 0.482z"></path>
</symbol>
<symbol id="burger-close" viewBox="0 0 32 32">
<path d="M23.734 10.304l-1.504-1.504-5.963 5.962-5.962-5.962-1.504 1.504 5.962 5.962-5.962 5.963 1.504 1.504 5.962-5.963 5.963 5.963 1.504-1.504-5.963-5.963 5.963-5.962z"></path>
</symbol>
<symbol id="logo-main" viewBox="0 0 64 32">
<path fill="#ef7f1a" style="fill: var(--color1, #ef7f1a)" d="M22.76 14.144c0 0 3.096-1.92 4.408-4.104 1.36-2.256 1.176-4.952-1.504-6.312-0.472-0.24-1.928-0.432-1.408 1.4 0.952 3.288-0.016 5.488-1.496 9.016zM9.664 17.024c-0.936 4.976-1.416 10.384 2.936 13.464 3.424 2.432 9.496 2.056 9.712-2.080 0.144-2.6-2.304-3.824-5.432-2.96-3.728 1.032-5.44-5.792-7.216-8.424zM11.816 8.32c0 0-6.464 0.44-9.32 3.84-3.208 3.816-3.32 8.144-0.352 11.192 0.504 0.52 2.992 1.6 3.304-1.6 0.624-6.544 1.728-9.448 6.368-13.432zM20.8 8.368c0 0-1.016-4.64-3.608-6.656-2.584-2.016-4.56-1.928-5.744-1.36-1.192 0.56-2.088 1.568-2.448 2.176-0.352 0.616-0.832 2.336 1.496 2.144 2.32-0.192 2.688-0.28 5.152 0.472 2.456 0.744 5.152 3.224 5.152 3.224zM48.416 27.664c-0.896-1.456-2.368-3.552-3.504-4.8v4.8h-0.872v-6.144h0.712l1.896 2.248 1.64 2.296v-4.544h0.872v6.144h-0.744zM54.912 25.36c0 3.232-4.488 3.232-4.488 0 0-3.24 4.488-3.24 4.488 0zM54.024 25.36c0-1.92-1.712-2.040-2.344-1.24-0.64 0.8-0.544 2.928 0.984 2.928 0.928 0 1.36-0.76 1.36-1.688zM59.728 23.048c-0.448 1.608-1.096 3.192-1.776 4.616h-0.776c-0.68-1.424-1.328-3-1.776-4.616h0.92l1.264 3.648 1.264-3.648h0.88zM62.232 27.064l0.928-0.056v-1.376c-0.264-0.128-2.024-0.336-2.024 0.648 0 0.64 0.512 0.784 1.096 0.784zM62.16 22.936c1.192 0 1.84 0.528 1.84 1.76v2.88c-1.264 0.208-3.728 0.624-3.728-1.288 0-1.44 1.792-1.576 2.888-1.312 0-0.744-0.112-1.328-1.072-1.328l-1.216 0.176-0.104-0.68 1.392-0.208z"></path>
<path fill="#fff" style="fill: var(--color2, #fff)" d="M15.128 20.544h-1.512v-6.904h4.568v1.312h-3.056v5.592zM20.688 20.544h-1.44v-5.24h1.44v5.24zM20.824 13.784c0 1.168-1.72 1.168-1.72 0s1.72-1.16 1.72 0zM21.552 19.328h0.632c0.736-0.928 0.712-2.872 0.712-4.024h3.96v4.024h0.856v2.712h-1.224v-1.496h-3.704v1.496h-1.232v-2.712zM25.416 19.328v-2.808h-1.176c-0.048 0.912-0.104 2.016-0.576 2.808h1.752zM31.84 17.968c0-1.32-0.728-1.672-1.816-1.472v2.688c0.432 0.288 1.816 0.584 1.816-1.216zM33.304 17.928c0 2.32-1.672 3.216-3.28 2.488v1.976h-1.44v-6.912c2.080-0.64 4.72-0.456 4.72 2.448zM36.36 19.512l0.712-0.040v-1.128c-1.904-0.432-2.040 1.168-0.712 1.168zM36.24 15.16c1.488 0 2.216 0.616 2.216 2.144v3.096c-5.392 1.216-4.704-2.128-3.72-2.752 0.6-0.376 1.72-0.456 2.336-0.272 0-1.040-0.712-1.080-1.72-0.92-0.24 0.032-0.44 0.088-0.616 0.152l-0.184-1.192 1.688-0.256zM41.192 19.448c2.272 0.336 1.912-0.792 1.56-0.968-0.336-0.176-1.104-0.128-1.56-0.128v1.096zM42.008 17.36c1.152 0 1.096-1.032-0.104-1.032l-0.712 0.048v0.984h0.816zM41.96 20.648l-2.2-0.24v-5.024c1.2-0.264 4.448-0.6 4.448 1.256 0 0.432-0.216 0.872-0.576 1.056 1.128 0.504 1.456 2.952-1.672 2.952zM47.808 16.52c-0.064 2.048-0.24 3.888-2.664 4.12l-0.192-1.24c1.576-0.32 1.464-1.704 1.464-3.496v-0.6h3.816v5.24h-1.44v-4.024h-0.984zM53.024 20.544h-1.44v-5.24h1.44v5.24zM53.16 13.784c0 1.168-1.72 1.168-1.72 0s1.72-1.16 1.72 0zM55.816 17.128l1.688-1.824h1.752l-2.336 2.408c0.792 0.624 1.824 1.944 2.344 2.832h-1.64l-1.808-2.112v2.112h-1.44v-5.24h1.44v1.824zM61.88 19.512l0.712-0.040v-1.128c-1.904-0.432-2.040 1.168-0.712 1.168zM61.76 15.16c1.496 0 2.216 0.616 2.216 2.144v3.096c-5.392 1.216-4.704-2.128-3.72-2.752 0.6-0.376 1.72-0.456 2.336-0.272 0-1.040-0.712-1.080-1.72-0.92-0.232 0.032-0.44 0.088-0.616 0.152l-0.184-1.192 1.688-0.256z"></path>
</symbol>
<symbol id="logo-footer" viewBox="0 0 64 32">
<path fill="#6a8292" style="fill: var(--color1, #6a8292)" d="M22.76 14.144c0 0 3.096-1.92 4.408-4.104 1.36-2.256 1.176-4.952-1.504-6.312-0.472-0.24-1.928-0.432-1.408 1.4 0.952 3.288-0.016 5.488-1.496 9.016zM9.664 17.024c-0.936 4.976-1.416 10.384 2.936 13.464 3.424 2.432 9.496 2.056 9.712-2.080 0.144-2.6-2.304-3.824-5.432-2.96-3.728 1.032-5.44-5.792-7.216-8.424zM11.816 8.32c0 0-6.464 0.44-9.32 3.84-3.208 3.816-3.32 8.144-0.352 11.192 0.504 0.52 2.992 1.6 3.304-1.6 0.624-6.544 1.728-9.448 6.368-13.432zM20.8 8.368c0 0-1.016-4.64-3.608-6.656-2.584-2.016-4.56-1.928-5.744-1.36-1.192 0.56-2.088 1.568-2.448 2.176-0.352 0.616-0.832 2.336 1.496 2.144 2.32-0.192 2.688-0.28 5.152 0.472 2.456 0.744 5.152 3.224 5.152 3.224zM48.416 27.664c-0.896-1.456-2.368-3.552-3.504-4.8v4.8h-0.872v-6.144h0.712l1.896 2.248 1.64 2.296v-4.544h0.872v6.144h-0.744zM54.912 25.36c0 3.232-4.488 3.232-4.488 0 0-3.24 4.488-3.24 4.488 0zM54.024 25.36c0-1.92-1.712-2.040-2.344-1.24-0.64 0.8-0.544 2.928 0.984 2.928 0.928 0 1.36-0.76 1.36-1.688zM59.728 23.048c-0.448 1.608-1.096 3.192-1.776 4.616h-0.776c-0.68-1.424-1.328-3-1.776-4.616h0.92l1.264 3.648 1.264-3.648h0.88zM62.232 27.064l0.928-0.056v-1.376c-0.264-0.128-2.024-0.336-2.024 0.648 0 0.64 0.512 0.784 1.096 0.784zM62.16 22.936c1.192 0 1.84 0.528 1.84 1.76v2.88c-1.264 0.208-3.728 0.624-3.728-1.288 0-1.44 1.792-1.576 2.888-1.312 0-0.744-0.112-1.328-1.072-1.328l-1.216 0.176-0.104-0.68 1.392-0.208z"></path>
<path fill="#fff" style="fill: var(--color2, #fff)" d="M15.128 20.544h-1.512v-6.904h4.568v1.312h-3.056v5.592zM20.688 20.544h-1.44v-5.24h1.44v5.24zM20.824 13.784c0 1.168-1.72 1.168-1.72 0s1.72-1.16 1.72 0zM21.552 19.328h0.632c0.736-0.928 0.712-2.872 0.712-4.024h3.96v4.024h0.856v2.712h-1.224v-1.496h-3.704v1.496h-1.232v-2.712zM25.416 19.328v-2.808h-1.176c-0.048 0.912-0.104 2.016-0.576 2.808h1.752zM31.84 17.968c0-1.32-0.728-1.672-1.816-1.472v2.688c0.432 0.288 1.816 0.584 1.816-1.216zM33.304 17.928c0 2.32-1.672 3.216-3.28 2.488v1.976h-1.44v-6.912c2.080-0.64 4.72-0.456 4.72 2.448zM36.36 19.512l0.712-0.040v-1.128c-1.904-0.432-2.040 1.168-0.712 1.168zM36.24 15.16c1.488 0 2.216 0.616 2.216 2.144v3.096c-5.392 1.216-4.704-2.128-3.72-2.752 0.6-0.376 1.72-0.456 2.336-0.272 0-1.040-0.712-1.080-1.72-0.92-0.24 0.032-0.44 0.088-0.616 0.152l-0.184-1.192 1.688-0.256zM41.192 19.448c2.272 0.336 1.912-0.792 1.56-0.968-0.336-0.176-1.104-0.128-1.56-0.128v1.096zM42.008 17.36c1.152 0 1.096-1.032-0.104-1.032l-0.712 0.048v0.984h0.816zM41.96 20.648l-2.2-0.24v-5.024c1.2-0.264 4.448-0.6 4.448 1.256 0 0.432-0.216 0.872-0.576 1.056 1.128 0.504 1.456 2.952-1.672 2.952zM47.808 16.52c-0.064 2.048-0.24 3.888-2.664 4.12l-0.192-1.24c1.576-0.32 1.464-1.704 1.464-3.496v-0.6h3.816v5.24h-1.44v-4.024h-0.984zM53.024 20.544h-1.44v-5.24h1.44v5.24zM53.16 13.784c0 1.168-1.72 1.168-1.72 0s1.72-1.16 1.72 0zM55.816 17.128l1.688-1.824h1.752l-2.336 2.408c0.792 0.624 1.824 1.944 2.344 2.832h-1.64l-1.808-2.112v2.112h-1.44v-5.24h1.44v1.824zM61.88 19.512l0.712-0.040v-1.128c-1.904-0.432-2.040 1.168-0.712 1.168zM61.76 15.16c1.496 0 2.216 0.616 2.216 2.144v3.096c-5.392 1.216-4.704-2.128-3.72-2.752 0.6-0.376 1.72-0.456 2.336-0.272 0-1.040-0.712-1.080-1.72-0.92-0.232 0.032-0.44 0.088-0.616 0.152l-0.184-1.192 1.688-0.256z"></path>
</symbol>
</defs>
</svg>
