<?xml version="1.0" encoding="UTF-8"?>
<!DOCTYPE svg PUBLIC "-//W3C//DTD SVG 1.1//EN" "http://www.w3.org/Graphics/SVG/1.1/DTD/svg11.dtd">
<!-- Creator: CorelDRAW 2021.5 -->
<svg xmlns="http://www.w3.org/2000/svg" xml:space="preserve" width="8.4666mm" height="8.4666mm" version="1.1" style="shape-rendering:geometricPrecision; text-rendering:geometricPrecision; image-rendering:optimizeQuality; fill-rule:evenodd; clip-rule:evenodd"
viewBox="0 0 846.66 846.66"
 xmlns:xlink="http://www.w3.org/1999/xlink"
 xmlns:xodm="http://www.corel.com/coreldraw/odm/2003">
 <defs>
  <style type="text/css">
   <![CDATA[
    .fil1 {fill:#A1A4A6}
    .fil0 {fill:#FEFEFE;fill-rule:nonzero}
   ]]>
  </style>
 </defs>
 <g id="Layer_x0020_1">
  <metadata id="CorelCorpID_0Corel-Layer"/>
  <path class="fil0" d="M419.87 600.34c-48.55,0 -92.52,-19.69 -124.33,-51.5 -31.81,-31.81 -51.5,-75.78 -51.5,-124.33 0,-48.55 19.69,-92.52 51.5,-124.33 31.81,-31.81 75.78,-51.5 124.33,-51.5 48.52,0 92.47,19.69 124.29,51.5 31.86,31.81 51.55,75.78 51.55,124.33 0,48.55 -19.69,92.52 -51.5,124.33 -31.87,31.81 -75.82,51.5 -124.34,51.5zm-106.37 -69.46c27.21,27.21 64.83,44.06 106.37,44.06 41.56,0 79.19,-16.84 106.4,-44.04 27.19,-27.23 44.04,-64.85 44.04,-106.39 0,-41.54 -16.85,-79.16 -44.06,-106.37 -27.19,-27.22 -64.82,-44.06 -106.38,-44.06 -41.54,0 -79.16,16.85 -106.37,44.06 -27.21,27.21 -44.06,64.83 -44.06,106.37 0,41.54 16.85,79.16 44.06,106.37zm186.85 -54.13l-0.25 -2.54c-0.62,-5.93 -5.39,-13.04 -10.64,-15.8l-19.38 -10.3c-5.25,-2.77 -13.71,-2.53 -18.72,0.64l-9.16 5.81c-25.52,-13.45 -42.02,-39.55 -43.24,-68.36l9.17 -5.79c5.01,-3.18 8.85,-10.69 8.6,-16.64l-0.99 -21.92c-0.28,-5.93 -4.65,-13.3 -9.73,-16.37l-2.19 -1.32c-5.09,-3.08 -13.37,-2.99 -18.39,0.19l-13.69 8.66c-2.45,1.55 -5,6.95 -5.01,6.96 -8.38,35.41 -2.16,72.73 17.31,103.49 19.41,30.69 50.34,52.25 85.8,59.93 0.19,0.02 6.32,0.08 8.76,-1.45l13.71 -8.66c5.01,-3.18 8.62,-10.62 8.04,-16.53zm180.97 -92.83l-51.92 0c-8.32,-32.34 -15.7,-50.04 -32.7,-78.76l36.73 -36.72 0 -40.29 -17.16 -17.16 -40.32 0 -36.68 36.65c-28.84,-17 -46.36,-24.23 -78.8,-32.51l0 -52.06 -28.41 -28.41 -24.35 0 -28.41 28.41 0 51.98c-32.34,8.28 -50.03,15.64 -78.75,32.64l-36.75 -36.7 -40.3 0 -17.16 17.16 0 40.29 36.67 36.71c-16.97,28.77 -24.25,46.44 -32.65,78.77l-51.91 0 -28.41 28.41 0 24.35 28.41 28.41 51.91 0c8.4,32.33 15.68,50 32.65,78.77l-36.67 36.71 0 40.32 17.16 17.16 40.29 0 36.75 -36.73c28.76,17.04 46.39,24.34 78.76,32.69l0 51.93 28.41 28.41 24.35 0 28.41 -28.41 0 -51.93c32.28,-8.33 50.08,-15.66 78.8,-32.6l36.68 36.64 40.32 0 17.16 -17.16 0 -40.32 -36.64 -36.68c16.94,-28.71 24.27,-46.52 32.6,-78.8l51.93 0 28.41 -28.41 0 -24.35 -28.41 -28.41zm-26.18 -33.88l40.18 0 48.29 48.29 0 52.35 -48.29 48.29 -40.18 0c-4.3,13.55 -9.7,26.65 -16.27,39.26l28.44 28.46 0 68.2 -37.04 37.04 -68.2 0 -28.46 -28.44c-12.61,6.57 -25.71,11.97 -39.26,16.27l0 40.18 -48.29 48.29 -52.35 0 -48.29 -48.29 0 -40.17c-13.54,-4.27 -26.69,-9.73 -39.29,-16.28l-28.46 28.44 -68.17 0 -37.04 -37.04 0 -68.2 28.42 -28.44c-6.52,-12.6 -11.96,-25.75 -16.24,-39.28l-40.19 0 -48.29 -48.29 0 -52.35 48.29 -48.29 40.19 0c4.28,-13.53 9.72,-26.68 16.24,-39.28l-28.42 -28.44 0 -68.17 37.04 -37.04 68.17 0 28.46 28.43c12.59,-6.55 25.76,-12.01 39.29,-16.27l0 -40.2 48.29 -48.29 52.35 0 48.29 48.29 0 40.16c13.55,4.27 26.67,9.77 39.27,16.32l28.45 -28.44 68.2 0 37.04 37.04 0 68.18 -28.44 28.42c6.53,12.58 12.02,25.76 16.27,39.29z"/>
  <g>
   <path class="fil1" d="M197.64 41.79c153.51,-13.42 292.59,-13.11 446.16,1 84.31,7.74 149.57,73.25 156.99,157.59 13.64,154.98 13.33,294.89 -1,449.93 -7.78,84.31 -73.33,149.54 -157.68,156.92 -153.51,13.41 -292.59,13.1 -446.16,-1 -84.31,-7.75 -149.57,-73.26 -156.99,-157.6 -13.64,-154.98 -13.32,-294.89 1,-449.93 7.79,-84.31 73.34,-149.54 157.68,-156.91zm223.06 32.34c-70.74,-0.16 -142.74,3.12 -219.42,9.82 -32.05,2.79 -60.43,16.48 -81.43,37.37 -21.07,20.98 -34.94,49.27 -37.89,81.18 -7.05,76.39 -10.67,148.91 -10.83,221.19 -0.15,71.3 3.18,143.87 9.99,221.3 2.81,32.04 16.52,60.4 37.43,81.4 20.98,21.06 49.28,34.91 81.2,37.84 75.65,6.94 147.59,10.5 219.3,10.66 70.74,0.15 142.74,-3.12 219.42,-9.82 32.06,-2.8 60.44,-16.49 81.43,-37.38 21.08,-20.98 34.95,-49.28 37.89,-81.18 7.06,-76.39 10.68,-148.91 10.83,-221.19 0.15,-71.3 -3.18,-143.87 -9.99,-221.3 -2.81,-32.04 -16.52,-60.4 -37.43,-81.4 -20.98,-21.06 -49.29,-34.9 -81.2,-37.83 -75.65,-6.95 -147.59,-10.51 -219.3,-10.66z"/>
  </g>
 </g>
</svg>
