<svg xmlns="http://www.w3.org/2000/svg" width="76" height="76" fill="none"><path fill="#17374C" d="M37.69 53.89a15.736 15.736 0 0 1-11.161-4.624 15.737 15.737 0 0 1-4.623-11.16c0-4.358 1.768-8.305 4.623-11.16a15.736 15.736 0 0 1 11.16-4.623c4.356 0 8.3 1.767 11.157 4.622a15.722 15.722 0 0 1 4.628 11.16c0 4.359-1.768 8.306-4.623 11.161a15.753 15.753 0 0 1-11.162 4.623Zm-9.549-6.236a13.463 13.463 0 0 0 9.548 3.955c3.731 0 7.109-1.512 9.551-3.953a13.477 13.477 0 0 0 3.954-9.55c0-3.729-1.513-7.106-3.955-9.548a13.456 13.456 0 0 0-9.55-3.955 13.463 13.463 0 0 0-9.548 3.955 13.464 13.464 0 0 0-3.955 9.548c0 3.729 1.513 7.106 3.955 9.548Zm16.773-4.859-.023-.228c-.055-.532-.484-1.17-.955-1.418l-1.74-.925c-.47-.248-1.23-.227-1.68.058l-.822.521a7.294 7.294 0 0 1-3.882-6.136l.824-.52c.45-.285.794-.96.771-1.493l-.088-1.968c-.026-.532-.418-1.194-.874-1.47l-.196-.118c-.457-.276-1.2-.268-1.651.017l-1.229.777c-.22.14-.449.624-.45.625a12.143 12.143 0 0 0 9.256 14.67c.017.001.567.007.786-.13l1.23-.778c.45-.286.775-.953.723-1.484Zm16.244-8.333h-4.66c-.747-2.903-1.41-4.492-2.935-7.07l3.296-3.296V20.48l-1.54-1.54H51.7l-3.292 3.29c-2.588-1.527-4.161-2.176-7.073-2.919v-4.673l-2.55-2.55h-2.186l-2.55 2.55v4.666c-2.903.743-4.491 1.404-7.07 2.93l-3.298-3.295h-3.618l-1.54 1.54v3.617l3.292 3.296c-1.524 2.582-2.177 4.168-2.931 7.07h-4.66l-2.55 2.55v2.186l2.55 2.55h4.66c.754 2.903 1.407 4.489 2.93 7.071l-3.291 3.295v3.62l1.54 1.54h3.617l3.299-3.297c2.581 1.53 4.164 2.185 7.07 2.934v4.662l2.55 2.55h2.186l2.55-2.55v-4.662c2.897-.747 4.495-1.405 7.073-2.926l3.293 3.29h3.62l1.54-1.541v-3.62l-3.29-3.292c1.521-2.577 2.18-4.176 2.927-7.074h4.661l2.55-2.55v-2.185l-2.55-2.55Zm-2.35-3.04h3.607l4.335 4.334v4.699l-4.335 4.335h-3.607a22.037 22.037 0 0 1-1.46 3.524l2.553 2.555v6.121l-3.325 3.325h-6.122l-2.555-2.552a22.04 22.04 0 0 1-3.524 1.46v3.607l-4.335 4.334h-4.699l-4.335-4.334v-3.606a21.99 21.99 0 0 1-3.526-1.461l-2.555 2.552h-6.12l-3.324-3.325V50.87l2.55-2.553a22.33 22.33 0 0 1-1.457-3.526h-3.608l-4.334-4.335v-4.7l4.335-4.334h3.607a22.33 22.33 0 0 1 1.458-3.526l-2.551-2.553v-6.119l3.325-3.325h6.119l2.555 2.552a21.905 21.905 0 0 1 3.526-1.46V13.38l4.335-4.335h4.7l4.334 4.335v3.605c1.216.383 2.394.877 3.525 1.465l2.554-2.553h6.122l3.325 3.325v6.12l-2.553 2.551a21.949 21.949 0 0 1 1.46 3.527Z"/><path fill="#A1A4A6" fill-rule="evenodd" d="M17.741 3.751c13.78-1.204 26.264-1.177 40.05.09 7.567.695 13.425 6.575 14.091 14.146 1.225 13.912 1.197 26.47-.09 40.388-.698 7.568-6.582 13.423-14.153 14.086-13.78 1.203-26.265 1.175-40.05-.09-7.568-.696-13.426-6.576-14.092-14.147-1.224-13.912-1.195-26.47.09-40.388.7-7.568 6.583-13.423 14.154-14.085Zm20.023 2.903c-6.35-.014-12.813.28-19.696.882-2.877.25-5.425 1.479-7.31 3.354-1.891 1.883-3.136 4.423-3.4 7.287-.634 6.857-.959 13.367-.973 19.855-.014 6.4.285 12.915.897 19.865.252 2.876 1.483 5.422 3.36 7.307 1.883 1.89 4.423 3.134 7.288 3.397 6.791.623 13.249.942 19.686.957 6.35.013 12.813-.28 19.696-.882 2.878-.251 5.425-1.48 7.31-3.355 1.892-1.884 3.137-4.424 3.4-7.287.634-6.858.96-13.367.973-19.855.013-6.4-.286-12.915-.897-19.865-.252-2.876-1.483-5.422-3.36-7.307-1.883-1.89-4.424-3.133-7.289-3.396-6.79-.624-13.248-.943-19.685-.957Z" clip-rule="evenodd"/></svg>