<?xml version="1.0" encoding="UTF-8"?>
<!DOCTYPE svg PUBLIC "-//W3C//DTD SVG 1.1//EN" "http://www.w3.org/Graphics/SVG/1.1/DTD/svg11.dtd">
<!-- Creator: CorelDRAW 2021.5 -->
<svg xmlns="http://www.w3.org/2000/svg" xml:space="preserve" width="8.4666mm" height="8.4666mm" version="1.1" style="shape-rendering:geometricPrecision; text-rendering:geometricPrecision; image-rendering:optimizeQuality; fill-rule:evenodd; clip-rule:evenodd"
viewBox="0 0 846.66 846.66"
 xmlns:xlink="http://www.w3.org/1999/xlink"
 xmlns:xodm="http://www.corel.com/coreldraw/odm/2003">
 <defs>
  <style type="text/css">
   <![CDATA[
    .str0 {stroke:#FEFEFE;stroke-width:67.73;stroke-linecap:round;stroke-miterlimit:22.9256}
    .fil1 {fill:none}
    .fil0 {fill:#A1A4A6}
   ]]>
  </style>
 </defs>
 <g id="Layer_x0020_1">
  <metadata id="CorelCorpID_0Corel-Layer"/>
  <g>
   <path class="fil0" d="M195.04 53.99c153.51,-13.42 292.59,-13.11 446.16,1 84.31,7.74 149.57,73.25 156.99,157.59 13.64,154.98 13.33,294.89 -1,449.93 -7.78,84.31 -73.33,149.54 -157.68,156.92 -153.51,13.41 -292.59,13.1 -446.16,-1 -84.31,-7.75 -149.57,-73.26 -156.99,-157.6 -13.64,-154.98 -13.32,-294.89 1,-449.93 7.79,-84.31 73.34,-149.54 157.68,-156.91zm223.06 32.34c-70.74,-0.16 -142.74,3.12 -219.42,9.82 -32.05,2.79 -60.43,16.48 -81.43,37.37 -21.07,20.98 -34.94,49.27 -37.89,81.18 -7.05,76.39 -10.67,148.91 -10.83,221.19 -0.15,71.3 3.18,143.87 9.99,221.3 2.81,32.04 16.52,60.4 37.43,81.4 20.98,21.06 49.28,34.91 81.2,37.84 75.65,6.94 147.59,10.5 219.3,10.66 70.74,0.15 142.74,-3.12 219.42,-9.82 32.06,-2.8 60.44,-16.49 81.43,-37.38 21.08,-20.98 34.95,-49.28 37.89,-81.18 7.06,-76.39 10.68,-148.91 10.83,-221.19 0.15,-71.3 -3.18,-143.87 -9.99,-221.3 -2.81,-32.04 -16.52,-60.4 -37.43,-81.4 -20.98,-21.06 -49.29,-34.9 -81.2,-37.83 -75.65,-6.95 -147.59,-10.51 -219.3,-10.66z"/>
  </g>
  <path class="fil1 str0" d="M261.61 291.88l256.22 0c10.85,0 19.72,8.87 19.72,19.71l0 186.44"/>
  <path class="fil1 str0" d="M537.55 352.55l67.43 0c19.52,0 36.23,10.75 44.31,28.53l16.73 36.8c3.94,8.65 9.4,15.12 17.28,20.44l5.86 3.96c13.99,9.45 21.7,23.96 21.7,40.84l0 38.82c0,10.84 -8.87,19.71 -19.71,19.71l-38.12 0m-88.24 0l-171 0m-88.24 0l-43.94 0c-10.84,0 -19.71,-8.87 -19.71,-19.71l0 -46.94m468.96 8.12l-28.12 0"/>
  <line class="fil1 str0" x1="537.55" y1="448.44" x2="356.48" y2= "448.44" />
  <line class="fil1 str0" x1="303.56" y1="396.01" x2="230.96" y2= "396.01" />
  <line class="fil1 str0" x1="186.82" y1="342.85" x2="157.91" y2= "342.85" />
  <line class="fil1 str0" x1="202.97" y1="291.88" x2="174.06" y2= "291.88" />
  <line class="fil1 str0" x1="166.38" y1="396.01" x2="137.47" y2= "396.01" />
  <line class="fil1 str0" x1="364.63" y1="448.44" x2="170.9" y2= "448.44" />
  <line class="fil1 str0" x1="361.26" y1="342.85" x2="247.19" y2= "342.85" />
  <circle class="fil1 str0" cx="349.67" cy="541.65" r="44.12"/>
  <circle class="fil1 str0" cx="608.91" cy="541.65" r="44.12"/>
 </g>
</svg>
