<svg xmlns="http://www.w3.org/2000/svg" width="76" height="76" fill="none"><path fill="#A1A4A6" fill-rule="evenodd" d="M17.508 4.846c13.78-1.204 26.264-1.176 40.049.09 7.568.695 13.426 6.575 14.092 14.146 1.225 13.912 1.197 26.47-.09 40.388-.698 7.568-6.582 13.423-14.154 14.086-13.78 1.204-26.264 1.176-40.049-.09C9.788 72.77 3.93 66.89 3.264 59.319c-1.224-13.912-1.196-26.47.09-40.388.699-7.568 6.583-13.423 14.154-14.085ZM37.53 7.75c-6.35-.014-12.813.28-19.697.882-2.877.25-5.424 1.48-7.31 3.354-1.89 1.884-3.135 4.423-3.4 7.288-.633 6.857-.958 13.366-.972 19.854-.014 6.4.285 12.915.896 19.865.253 2.877 1.483 5.422 3.36 7.307 1.883 1.89 4.424 3.134 7.29 3.397 6.79.623 13.247.942 19.684.957 6.35.013 12.814-.28 19.697-.882 2.877-.251 5.425-1.48 7.31-3.355 1.891-1.883 3.136-4.424 3.4-7.287.634-6.857.959-13.367.972-19.855.014-6.4-.285-12.915-.896-19.865-.252-2.876-1.483-5.422-3.36-7.307-1.883-1.89-4.425-3.133-7.29-3.396-6.79-.624-13.247-.943-19.684-.957Z" clip-rule="evenodd"/><path fill="#17374C" d="M22.866 27.91a1.9 1.9 0 0 1 0-3.8h23a3.66 3.66 0 0 1 2.585 1.077 3.64 3.64 0 0 1 1.085 2.592v1.777h4.152c1.244 0 2.41.35 3.399.986a6.263 6.263 0 0 1 2.307 2.696l1.502 3.303c.099.223.22.416.361.585.137.161.31.313.523.456l.526.355a6.295 6.295 0 0 1 2.053 2.266l.008.007a6.29 6.29 0 0 1 .726 2.967v3.484c0 1.01-.414 1.93-1.078 2.593a3.662 3.662 0 0 1-2.592 1.077h-1.837a5.867 5.867 0 0 1-5.545 3.96 5.841 5.841 0 0 1-4.136-1.717l-.008-.007a5.88 5.88 0 0 1-1.399-2.236H36.315a5.866 5.866 0 0 1-5.545 3.96 5.842 5.842 0 0 1-4.136-1.717l-.007-.007a5.881 5.881 0 0 1-1.4-2.236h-2.361a3.662 3.662 0 0 1-2.593-1.077 3.662 3.662 0 0 1-1.077-2.593v-4.213c0-.167.022-.33.062-.484h-4.535a1.9 1.9 0 0 1 0-3.8h31.012V27.91h-22.87Zm26.67 5.446c0 3.677.166 7.707-.01 11.346l.379-.415a5.848 5.848 0 0 1 8.28 0 5.964 5.964 0 0 1 1.399 2.243h1.708v-1.453h-.624a1.9 1.9 0 0 1-.215-3.788l-.27-.205-.526-.355a6.282 6.282 0 0 1-1.294-1.154 6.305 6.305 0 0 1-.917-1.468l-1.51-3.31a2.457 2.457 0 0 0-.898-1.063 2.482 2.482 0 0 0-1.35-.378h-4.152Zm-3.801 11.16v-2.552h-22.8c.04.154.062.317.062.484v4.082h2.23a5.881 5.881 0 0 1 1.4-2.236l.007-.007a5.842 5.842 0 0 1 8.273 0l.007.007a5.88 5.88 0 0 1 1.4 2.236h12.184l.16-.413a1.9 1.9 0 0 1-2.924-1.601ZM26.631 33.456a1.9 1.9 0 0 1 0 3.8h-6.517a1.9 1.9 0 0 1 0-3.8h6.517Zm-10.479-4.772a1.9 1.9 0 0 1 0 3.8h-2.595a1.9 1.9 0 0 1 0-3.8h2.595Zm1.45-4.575a1.9 1.9 0 0 1 0 3.8h-2.595a1.9 1.9 0 0 1 0-3.8h2.595Zm-3.285 9.347a1.9 1.9 0 0 1 0 3.8h-2.595a1.9 1.9 0 0 1 0-3.8h2.595Zm17.494-4.772a1.9 1.9 0 0 1 0 3.8H21.57a1.9 1.9 0 0 1 0-3.8h10.24Zm-1.04 21.806c.572 0 1.09-.23 1.46-.599a2.083 2.083 0 0 0 0-2.923 2.064 2.064 0 0 0-1.46-.598c-.573 0-1.09.228-1.462.598-.37.372-.599.889-.599 1.462 0 .572.23 1.09.599 1.461.372.37.889.599 1.461.599Zm23.27 0a2.056 2.056 0 0 0 2.06-2.06c0-.573-.229-1.09-.599-1.462a2.083 2.083 0 0 0-2.922 0c-.37.372-.6.889-.6 1.462 0 .572.23 1.09.6 1.461.371.37.888.599 1.46.599Z"/></svg>