<?xml version="1.0" encoding="UTF-8"?>
<!DOCTYPE svg PUBLIC "-//W3C//DTD SVG 1.1//EN" "http://www.w3.org/Graphics/SVG/1.1/DTD/svg11.dtd">
<!-- Creator: CorelDRAW 2021.5 -->
<svg xmlns="http://www.w3.org/2000/svg" xml:space="preserve" width="100px" height="100px" version="1.1" style="shape-rendering:geometricPrecision; text-rendering:geometricPrecision; image-rendering:optimizeQuality; fill-rule:evenodd; clip-rule:evenodd"
viewBox="0 0 10000 10000"
 xmlns:xlink="http://www.w3.org/1999/xlink"
 xmlns:xodm="http://www.corel.com/coreldraw/odm/2003">
 <defs>
  <style type="text/css">
   <![CDATA[
    .fil0 {fill:#A1A4A6}
    .fil1 {fill:#17374C;fill-rule:nonzero}
   ]]>
  </style>
 </defs>
 <g id="Layer_x0020_1">
  <metadata id="CorelCorpID_0Corel-Layer"/>
  <path class="fil0" d="M2304 638c1813,-159 3455,-155 5269,11 996,92 1767,866 1855,1862 161,1830 157,3483 -12,5314 -92,996 -866,1766 -1863,1853 -1813,159 -3455,155 -5269,-11 -996,-92 -1767,-866 -1855,-1862 -161,-1830 -157,-3483 12,-5314 92,-996 866,-1766 1863,-1853zm2634 382c-835,-2 -1686,37 -2591,116 -379,33 -714,194 -962,441 -249,248 -413,582 -448,959 -83,902 -126,1759 -128,2612 -1,842 38,1700 118,2614 34,379 196,714 442,962 248,248 583,412 960,447 893,81 1743,124 2590,125 835,2 1686,-36 2591,-116 379,-33 714,-194 962,-441 249,-248 413,-582 448,-959 83,-902 126,-1759 128,-2612 1,-843 -38,-1700 -118,-2614 -34,-379 -196,-714 -443,-962 -247,-248 -582,-412 -959,-446 -893,-83 -1743,-125 -2590,-126z"/>
  <path class="fil1" d="M2783 5981c303,0 552,249 552,551 0,304 -248,552 -552,552 -302,0 -551,-249 -551,-552 0,-302 249,-551 551,-551zm0 300c-138,0 -251,112 -251,251 0,139 113,252 251,252 140,0 252,-112 252,-252 0,-138 -113,-251 -252,-251zm2677 1208c-859,-55 -1369,-95 -1355,-954 11,-662 37,-1303 -35,-1962 532,-176 689,-731 684,-1254 -8,-398 -21,-1095 714,-1106 335,-2 503,329 586,607 80,267 108,573 110,709 23,119 -49,581 -70,724l1555 13c580,-3 804,679 371,1052 127,229 88,510 -117,681 142,222 114,510 -80,693 48,79 76,172 76,270 0,287 -235,522 -522,522l-1917 5zm25 -399l1892 -6c68,-1 121,-53 121,-122 0,-61 -45,-115 -106,-123l43 -397c92,1 153,-50 159,-143 -1,-64 -67,-160 -132,-162l55 -395c229,-4 216,-274 58,-301l60 -395c127,5 208,-80 213,-205 0,-112 -95,-176 -199,-176l-1493 -6c-237,-3 -468,-123 -464,-387 140,-498 224,-1671 -221,-1660 -259,6 -323,449 -319,701 5,508 -189,1235 -652,1519 53,520 13,1177 4,1709 -8,513 499,518 981,549zm-3163 -2823l952 0c339,0 617,278 617,617l0 1969c0,339 -278,617 -617,617l-952 0c-339,0 -617,-278 -617,-617l0 -1969c0,-339 278,-617 617,-617zm952 400l-952 0c-120,0 -217,97 -217,217l0 1969c0,120 97,217 217,217l952 0c120,0 217,-97 217,-217l0 -1969c0,-120 -97,-217 -217,-217z"/>
 </g>
</svg>
