<svg xmlns="http://www.w3.org/2000/svg" width="76" height="76" fill="none"><path fill="#A1A4A6" fill-rule="evenodd" d="M17.508 4.846c13.78-1.204 26.264-1.176 40.049.09 7.568.695 13.426 6.575 14.092 14.146 1.225 13.912 1.197 26.47-.09 40.388-.698 7.568-6.582 13.423-14.154 14.086-13.78 1.204-26.264 1.176-40.049-.09C9.788 72.77 3.93 66.89 3.264 59.319c-1.224-13.912-1.196-26.47.09-40.388.699-7.568 6.583-13.423 14.154-14.085ZM37.53 7.75c-6.35-.014-12.813.28-19.697.882-2.877.25-5.424 1.48-7.31 3.354-1.89 1.884-3.135 4.423-3.4 7.288-.633 6.857-.958 13.366-.972 19.854-.014 6.4.285 12.915.896 19.865.253 2.877 1.483 5.422 3.36 7.307 1.883 1.89 4.424 3.134 7.29 3.397 6.79.623 13.247.942 19.684.957 6.35.013 12.814-.28 19.697-.882 2.877-.251 5.425-1.48 7.31-3.355 1.891-1.883 3.136-4.424 3.4-7.287.634-6.857.959-13.367.972-19.855.014-6.4-.285-12.915-.896-19.865-.252-2.876-1.483-5.422-3.36-7.307-1.883-1.89-4.425-3.133-7.29-3.396-6.79-.624-13.247-.943-19.684-.957Z" clip-rule="evenodd"/><path fill="#17374C" d="m58.127 25.775-39.16-.002a2.796 2.796 0 0 0-2.797 2.797l-.003 22.376a2.797 2.797 0 0 0 2.797 2.798l39.16.003a2.796 2.796 0 0 0 2.797-2.797l.003-22.377a2.797 2.797 0 0 0-2.797-2.798Zm-.003 25.175-39.16-.004.002-13.985 39.16.003-.002 13.986Zm.002-19.58-39.159-.003.001-2.797 39.159.003v2.797ZM21.762 48.15h5.595v-2.797l-5.594-.001v2.798Zm8.392 0h5.594v-2.796l-5.594-.001v2.797Zm15.384.002c1.079 0 2.054-.42 2.797-1.09a4.172 4.172 0 0 0 2.797 1.09 4.196 4.196 0 1 0 0-8.39 4.16 4.16 0 0 0-2.797 1.088 4.167 4.167 0 0 0-2.797-1.09 4.196 4.196 0 0 0 0 8.392Z"/></svg>