<?xml version="1.0" encoding="UTF-8"?>
<!DOCTYPE svg PUBLIC "-//W3C//DTD SVG 1.1//EN" "http://www.w3.org/Graphics/SVG/1.1/DTD/svg11.dtd">
<!-- Creator: CorelDRAW 2021.5 -->
<svg xmlns="http://www.w3.org/2000/svg" xml:space="preserve" width="8.4666mm" height="8.4666mm" version="1.1" style="shape-rendering:geometricPrecision; text-rendering:geometricPrecision; image-rendering:optimizeQuality; fill-rule:evenodd; clip-rule:evenodd"
viewBox="0 0 846.66 846.66"
 xmlns:xlink="http://www.w3.org/1999/xlink"
 xmlns:xodm="http://www.corel.com/coreldraw/odm/2003">
 <defs>
  <style type="text/css">
   <![CDATA[
    .fil0 {fill:#A1A4A6}
    .fil1 {fill:#FEFEFE;fill-rule:nonzero}
   ]]>
  </style>
 </defs>
 <g id="Layer_x0020_1">
  <metadata id="CorelCorpID_0Corel-Layer"/>
  <path class="fil0" d="M195.04 53.99c153.51,-13.42 292.59,-13.11 446.16,1 84.31,7.74 149.57,73.25 156.99,157.59 13.64,154.98 13.33,294.89 -1,449.93 -7.78,84.31 -73.33,149.54 -157.68,156.92 -153.51,13.41 -292.59,13.1 -446.16,-1 -84.31,-7.75 -149.57,-73.26 -156.99,-157.6 -13.64,-154.98 -13.32,-294.89 1,-449.93 7.79,-84.31 73.34,-149.54 157.68,-156.91zm223.06 32.34c-70.74,-0.16 -142.74,3.12 -219.42,9.82 -32.05,2.79 -60.43,16.48 -81.43,37.37 -21.07,20.98 -34.94,49.27 -37.89,81.18 -7.05,76.39 -10.67,148.91 -10.83,221.19 -0.15,71.3 3.18,143.87 9.99,221.3 2.81,32.04 16.52,60.4 37.43,81.4 20.98,21.06 49.28,34.91 81.2,37.84 75.65,6.94 147.59,10.5 219.3,10.66 70.74,0.15 142.74,-3.12 219.42,-9.82 32.06,-2.8 60.44,-16.49 81.43,-37.38 21.08,-20.98 34.95,-49.28 37.89,-81.18 7.06,-76.39 10.68,-148.91 10.83,-221.19 0.15,-71.3 -3.18,-143.87 -9.99,-221.3 -2.81,-32.04 -16.52,-60.4 -37.43,-81.4 -20.98,-21.06 -49.29,-34.9 -81.2,-37.83 -75.65,-6.95 -147.59,-10.51 -219.3,-10.66z"/>
  <path class="fil1" d="M254.73 310.93c-11.69,0 -21.17,-9.48 -21.17,-21.17 0,-11.69 9.48,-21.17 21.17,-21.17l256.22 0c11.19,0 21.4,4.61 28.81,12 7.47,7.39 12.08,17.63 12.08,28.88l0 19.79 46.26 0c13.86,0 26.84,3.9 37.86,10.99 11,7.09 19.94,17.33 25.71,30.03l16.73 36.8c1.1,2.48 2.44,4.63 4.02,6.51 1.53,1.8 3.46,3.49 5.82,5.08l5.86 3.96c9.84,6.65 17.56,15.24 22.88,25.24l0.08 0.08c5.3,10 8.09,21.19 8.09,33.05l0 38.82c0,11.25 -4.61,21.49 -12,28.88 -7.39,7.39 -17.63,12 -28.88,12l-20.47 0c-3.26,9.51 -8.66,18.04 -15.61,24.99 -11.8,11.8 -28.15,19.13 -46.16,19.13 -17.95,0 -34.25,-7.32 -46.08,-19.13l-0.08 -0.08c-6.94,-6.95 -12.33,-15.45 -15.59,-24.91l-135.72 0c-3.26,9.51 -8.66,18.04 -15.61,24.99 -11.91,11.81 -28.21,19.13 -46.16,19.13 -17.95,0 -34.25,-7.32 -46.08,-19.13l-0.08 -0.08c-6.94,-6.95 -12.33,-15.45 -15.59,-24.91l-26.31 0c-11.25,0 -21.49,-4.61 -28.88,-12 -7.39,-7.39 -12,-17.63 -12,-28.88l0 -46.94c0,-1.86 0.24,-3.67 0.69,-5.39l-50.52 0c-11.69,0 -21.17,-9.48 -21.17,-21.17 0,-11.69 9.48,-21.17 21.17,-21.17l345.48 0 0 -114.22 -254.77 0zm297.11 60.67c0,40.96 1.85,85.85 -0.1,126.39l4.21 -4.62c11.83,-11.81 28.13,-19.13 46.08,-19.13 18.01,0 34.36,7.33 46.16,19.13 6.94,7.03 12.33,15.53 15.59,24.99l19.03 0 0 -16.19 -6.95 0c-11.69,0 -21.17,-9.48 -21.17,-21.17 0,-10.88 8.21,-19.84 18.77,-21.03l-3 -2.28 -5.86 -3.96c-5.5,-3.71 -10.26,-7.95 -14.42,-12.86 -4.06,-4.81 -7.43,-10.23 -10.22,-16.35l-16.81 -36.88c-2.3,-5.07 -5.79,-9.11 -10.01,-11.83 -4.22,-2.71 -9.38,-4.21 -15.04,-4.21l-46.26 0zm-42.34 124.31l0 -28.42 -254 0c0.45,1.72 0.69,3.53 0.69,5.39l0 45.48 24.85 0c3.26,-9.46 8.65,-17.96 15.59,-24.91l0.08 -0.08c11.83,-11.81 28.13,-19.13 46.08,-19.13 17.95,0 34.25,7.32 46.08,19.13l0.08 0.08c6.94,6.95 12.33,15.45 15.59,24.91l135.74 0 1.79 -4.61c-3.29,2.11 -7.2,3.33 -11.4,3.33 -11.69,0 -21.17,-9.48 -21.17,-21.17zm-212.82 -123.19c11.69,0 21.17,9.48 21.17,21.17 0,11.69 -9.48,21.17 -21.17,21.17l-72.6 0c-11.69,0 -21.17,-9.48 -21.17,-21.17 0,-11.69 9.48,-21.17 21.17,-21.17l72.6 0zm-116.74 -53.16c11.69,0 21.17,9.48 21.17,21.17 0,11.69 -9.48,21.17 -21.17,21.17l-28.91 0c-11.69,0 -21.17,-9.48 -21.17,-21.17 0,-11.69 9.48,-21.17 21.17,-21.17l28.91 0zm16.15 -50.97c11.69,0 21.17,9.48 21.17,21.17 0,11.69 -9.48,21.17 -21.17,21.17l-28.91 0c-11.69,0 -21.17,-9.48 -21.17,-21.17 0,-11.69 9.48,-21.17 21.17,-21.17l28.91 0zm-36.59 104.13c11.69,0 21.17,9.48 21.17,21.17 0,11.69 -9.48,21.17 -21.17,21.17l-28.91 0c-11.69,0 -21.17,-9.48 -21.17,-21.17 0,-11.69 9.48,-21.17 21.17,-21.17l28.91 0zm194.88 -53.16c11.69,0 21.17,9.48 21.17,21.17 0,11.69 -9.48,21.17 -21.17,21.17l-114.07 0c-11.69,0 -21.17,-9.48 -21.17,-21.17 0,-11.69 9.48,-21.17 21.17,-21.17l114.07 0zm-11.59 242.92c6.38,0 12.14,-2.55 16.28,-6.67 4.1,-4.18 6.67,-9.93 6.67,-16.28 0,-6.38 -2.55,-12.14 -6.67,-16.28 -4.14,-4.12 -9.9,-6.67 -16.28,-6.67 -6.38,0 -12.14,2.55 -16.28,6.67 -4.12,4.14 -6.67,9.9 -6.67,16.28 0,6.38 2.55,12.14 6.67,16.28 4.14,4.12 9.9,6.67 16.28,6.67zm259.24 0c6.35,0 12.1,-2.57 16.24,-6.71 4.14,-4.14 6.71,-9.89 6.71,-16.24 0,-6.38 -2.55,-12.14 -6.67,-16.28 -4.18,-4.1 -9.93,-6.67 -16.28,-6.67 -6.38,0 -12.14,2.55 -16.28,6.67 -4.12,4.14 -6.67,9.9 -6.67,16.28 0,6.38 2.55,12.14 6.67,16.28 4.14,4.12 9.9,6.67 16.28,6.67z"/>
 </g>
</svg>
