<svg xmlns="http://www.w3.org/2000/svg" width="76" height="76" fill="none"><path fill="#A1A4A6" fill-rule="evenodd" d="M17.51 4.849c13.78-1.209 26.258-1.178 40.045.083 7.57.7 13.429 6.582 14.098 14.152 1.223 13.908 1.193 26.47-.091 40.386-.7 7.57-6.582 13.422-14.16 14.083-13.778 1.208-26.257 1.178-40.044-.084C9.788 72.77 3.93 66.888 3.26 59.318c-1.223-13.908-1.193-26.47.092-40.386C4.05 11.362 9.933 5.51 17.51 4.849ZM37.53 7.752c-6.346-.015-12.814.281-19.692.882-2.88.25-5.426 1.474-7.311 3.351-1.892 1.885-3.139 4.423-3.405 7.289-.63 6.855-.957 13.368-.973 19.85-.007 6.4.29 12.92.897 19.867.259 2.88 1.49 5.427 3.36 7.311 1.884 1.885 4.43 3.132 7.295 3.398 6.787.615 13.247.942 19.684.95 6.346.015 12.814-.274 19.692-.882 2.88-.25 5.426-1.474 7.311-3.352 1.893-1.884 3.139-4.423 3.405-7.288.63-6.855.958-13.368.973-19.851.007-6.407-.289-12.92-.897-19.867-.258-2.88-1.49-5.426-3.367-7.31-1.877-1.886-4.423-3.132-7.288-3.39-6.787-.631-13.247-.95-19.684-.958Z" clip-rule="evenodd"/><path fill="#17374C" d="M21.15 45.456c2.304 0 4.196 1.892 4.196 4.187a4.204 4.204 0 0 1-4.195 4.196c-2.295 0-4.188-1.893-4.188-4.196 0-2.295 1.893-4.187 4.188-4.187Zm0 2.28a1.909 1.909 0 0 0-1.907 1.907c0 1.057.859 1.916 1.908 1.916a1.907 1.907 0 0 0 1.915-1.916 1.915 1.915 0 0 0-1.915-1.907Zm20.346 9.18c-6.528-.417-10.404-.721-10.298-7.25.084-5.031.281-9.903-.266-14.911 4.043-1.338 5.236-5.556 5.198-9.53-.06-3.025-.16-8.323 5.427-8.406 2.546-.015 3.823 2.5 4.453 4.613.608 2.03.821 4.355.836 5.389.175.904-.372 4.415-.532 5.502l11.818.099c4.408-.023 6.11 5.16 2.82 7.995.965 1.74.669 3.876-.89 5.175 1.08 1.688.867 3.877-.607 5.267.365.6.577 1.307.577 2.052a3.98 3.98 0 0 1-3.967 3.968l-14.569.038Zm.19-3.032 14.38-.045a.915.915 0 0 0 .919-.928.942.942 0 0 0-.806-.934l.327-3.018c.7.008 1.163-.38 1.208-1.087-.007-.486-.509-1.215-1.003-1.23l.418-3.003c1.74-.03 1.642-2.082.441-2.287l.456-3.002c.965.038 1.58-.608 1.619-1.558 0-.852-.722-1.338-1.513-1.338l-11.346-.046c-1.802-.022-3.557-.934-3.527-2.94 1.064-3.786 1.703-12.7-1.68-12.617-1.968.046-2.454 3.413-2.424 5.328.038 3.86-1.436 9.386-4.955 11.544.403 3.952.099 8.946.03 12.989-.06 3.898 3.793 3.936 7.456 4.172ZM17.647 32.43h7.235c2.577 0 4.69 2.113 4.69 4.69v14.964c0 2.576-2.113 4.69-4.69 4.69h-7.235c-2.576 0-4.689-2.114-4.689-4.69V37.118c0-2.576 2.113-4.689 4.69-4.689Zm7.235 3.04h-7.235c-.912 0-1.649.737-1.649 1.65v14.964c0 .912.737 1.65 1.65 1.65h7.234c.912 0 1.65-.738 1.65-1.65V37.118c0-.912-.738-1.649-1.65-1.649Z"/></svg>