<?xml version="1.0" encoding="UTF-8"?>
<!DOCTYPE svg PUBLIC "-//W3C//DTD SVG 1.1//EN" "http://www.w3.org/Graphics/SVG/1.1/DTD/svg11.dtd">
<!-- Creator: CorelDRAW 2021.5 -->
<svg xmlns="http://www.w3.org/2000/svg" xml:space="preserve" width="8.4666mm" height="8.4666mm" version="1.1" style="shape-rendering:geometricPrecision; text-rendering:geometricPrecision; image-rendering:optimizeQuality; fill-rule:evenodd; clip-rule:evenodd"
viewBox="0 0 846.66 846.66"
 xmlns:xlink="http://www.w3.org/1999/xlink"
 xmlns:xodm="http://www.corel.com/coreldraw/odm/2003">
 <defs>
  <style type="text/css">
   <![CDATA[
    .fil0 {fill:#A1A4A6}
    .fil1 {fill:#FEFEFE;fill-rule:nonzero}
   ]]>
  </style>
 </defs>
 <g id="Layer_x0020_1">
  <metadata id="CorelCorpID_0Corel-Layer"/>
  <path class="fil0" d="M195.04 53.99c153.51,-13.42 292.59,-13.11 446.16,1 84.31,7.74 149.57,73.25 156.99,157.59 13.64,154.98 13.33,294.89 -1,449.93 -7.78,84.31 -73.33,149.54 -157.68,156.92 -153.51,13.41 -292.59,13.1 -446.16,-1 -84.31,-7.75 -149.57,-73.26 -156.99,-157.6 -13.64,-154.98 -13.32,-294.89 1,-449.93 7.79,-84.31 73.34,-149.54 157.68,-156.91zm223.06 32.34c-70.74,-0.16 -142.74,3.12 -219.42,9.82 -32.05,2.79 -60.43,16.48 -81.43,37.37 -21.07,20.98 -34.94,49.27 -37.89,81.18 -7.05,76.39 -10.67,148.91 -10.83,221.19 -0.15,71.3 3.18,143.87 9.99,221.3 2.81,32.04 16.52,60.4 37.43,81.4 20.98,21.06 49.28,34.91 81.2,37.84 75.65,6.94 147.59,10.5 219.3,10.66 70.74,0.15 142.74,-3.12 219.42,-9.82 32.06,-2.8 60.44,-16.49 81.43,-37.38 21.08,-20.98 34.95,-49.28 37.89,-81.18 7.06,-76.39 10.68,-148.91 10.83,-221.19 0.15,-71.3 -3.18,-143.87 -9.99,-221.3 -2.81,-32.04 -16.52,-60.4 -37.43,-81.4 -20.98,-21.06 -49.29,-34.9 -81.2,-37.83 -75.65,-6.95 -147.59,-10.51 -219.3,-10.66z"/>
  <path class="fil1" d="M647.55 287.14l-436.25 -0.03c-17.22,0 -31.16,13.94 -31.16,31.16l-0.03 249.28c0,17.22 13.94,31.16 31.16,31.17l436.25 0.03c17.22,0 31.16,-13.94 31.16,-31.16l0.03 -249.28c0,-17.22 -13.94,-31.16 -31.16,-31.17zm-0.03 280.46l-436.25 -0.05 0.02 -155.8 436.25 0.04 -0.02 155.81zm0.02 -218.13l-436.24 -0.04 0.01 -31.16 436.24 0.04 -0.01 31.16zm-405.1 186.93l62.32 0 0 -31.16 -62.31 -0.01 -0.01 31.17zm93.48 0l62.32 0.01 0.01 -31.16 -62.33 -0.01 0 31.16zm171.39 0.02c12.01,0 22.88,-4.68 31.15,-12.14 8.28,7.45 19.15,12.14 31.16,12.14 25.81,0 46.75,-20.93 46.75,-46.73 0,-25.8 -20.93,-46.75 -46.74,-46.74 -12.02,-0.01 -22.88,4.67 -31.16,12.13 -8.27,-7.45 -19.13,-12.14 -31.16,-12.14 -25.8,-0.01 -46.74,20.93 -46.74,46.73 -0.01,25.81 20.92,46.75 46.74,46.75z"/>
 </g>
</svg>
