<!-- Generated by IcoMoon.io -->
<svg version="1.1" xmlns="http://www.w3.org/2000/svg" width="47" height="32" viewBox="0 0 47 32">
<title>approach-icon</title>
<path fill="#a1a4a6" d="M36.138 13.364h-1.846c-0.236-0.903-0.574-1.695-1.010-2.422l0.023 0.041 1.306-1.305c0.279-0.279 0.452-0.665 0.452-1.091s-0.173-0.812-0.452-1.091l-1.091-1.091c-0.279-0.28-0.665-0.453-1.091-0.453s-0.812 0.173-1.091 0.453l-1.305 1.305c-0.685-0.412-1.477-0.75-2.317-0.971l-0.064-0.014v-1.847c0-0 0-0.001 0-0.001 0-0.851-0.69-1.542-1.542-1.542-0 0-0.001 0-0.001 0h-1.543c-0 0-0 0-0 0-0.852 0-1.543 0.691-1.543 1.543v1.847c-0.903 0.235-1.695 0.573-2.422 1.008l0.041-0.023-1.305-1.305c-0.279-0.279-0.665-0.452-1.091-0.452s-0.812 0.173-1.091 0.452l-1.091 1.091c-0.279 0.279-0.452 0.665-0.452 1.091s0.173 0.812 0.452 1.091l1.305 1.305c-0.412 0.685-0.749 1.477-0.971 2.316l-0.014 0.064h-1.846c-0.852 0-1.543 0.691-1.543 1.543v0 1.543c0 0.852 0.691 1.543 1.543 1.543h1.846c0.236 0.903 0.574 1.696 1.009 2.423l-0.023-0.042-1.305 1.305c-0.279 0.279-0.452 0.665-0.452 1.091s0.173 0.812 0.452 1.091l1.091 1.091c0.279 0.279 0.665 0.452 1.091 0.452s0.812-0.173 1.091-0.452l1.305-1.306c0.685 0.413 1.477 0.751 2.316 0.972l0.064 0.014v1.845c0 0 0 0 0 0 0 0.852 0.691 1.543 1.543 1.543h1.543c0 0 0.001 0 0.001 0 0.851 0 1.542-0.69 1.542-1.542 0-0 0-0.001 0-0.001v0-1.846c0.903-0.236 1.695-0.573 2.423-1.008l-0.042 0.023 1.305 1.305c0.279 0.279 0.665 0.452 1.092 0.452s0.812-0.173 1.091-0.452l1.091-1.091c0.279-0.279 0.452-0.665 0.452-1.091s-0.173-0.812-0.452-1.091l-1.305-1.305c0.412-0.685 0.749-1.477 0.971-2.316l0.014-0.064h1.846c0.852 0 1.543-0.691 1.543-1.543v0-1.543c0-0 0-0.001 0-0.001 0-0.851-0.69-1.542-1.542-1.542-0 0-0.001 0-0.001 0h0zM25.339 21.849c-3.408 0-6.17-2.763-6.17-6.171s2.763-6.171 6.17-6.171c3.408 0 6.171 2.763 6.171 6.171s-2.763 6.171-6.171 6.171zM25.339 12.212c1.914 0 3.466 1.552 3.466 3.466s-1.552 3.466-3.466 3.466v0c-1.898-0.021-3.428-1.565-3.428-3.466s1.53-3.444 3.426-3.466l0.002-0z"></path>
<path fill="#17374c" d="M41.083 29.79c-0 0.006-0 0.013-0 0.021 0 1.021 0.822 1.851 1.841 1.862h0.001l1.95 0.022c0.006 0 0.014 0 0.021 0 1.021 0 1.851-0.822 1.862-1.841v-0.001l0.040-3.574c-0.716-0.734-1.197-2.247-1.178-3.991 0.019-1.721 0.521-3.206 1.238-3.934-0.15-0.883-0.904-1.548-1.816-1.559h-0.001l-1.95-0.022c-0.006-0-0.013-0-0.020-0-0.907 0-1.662 0.648-1.829 1.506l-0.002 0.012c0.7 0.745 1.168 2.24 1.15 3.961-0.020 1.744-0.535 3.246-1.267 3.963l-0.040 3.575zM41.707 29.273l4.438 0.050c0.149 0.002 0.269 0.123 0.269 0.272 0 0.15-0.122 0.272-0.272 0.272-0.001 0-0.002 0-0.003-0h0l-4.438-0.049c-0.149-0.002-0.269-0.123-0.269-0.272 0-0.15 0.122-0.272 0.272-0.272 0.001 0 0.002 0 0.003 0h-0zM43.972 16.124l1.804 0.020 0.023-2.095s-0.114-0.205-0.317-0.295c-0.232-0.032-0.582-0.007-0.582-0.007l0.090-8.061s0.662-1.912 0.697-2.451c-0.080-0.627-0.64-2.671-0.64-2.671s-0.259-0.294-0.55-0.297l-0.203-0.002c-0.032-0-0.063-0-0.093-0.001l-0.198-0.002c-0.291-0.003-0.556 0.285-0.556 0.285s-0.605 2.030-0.7 2.656c0.023 0.539 0.642 2.466 0.642 2.466l-0.090 8.061s-0.349-0.033-0.582-0.007c-0.205 0.085-0.324 0.287-0.324 0.287l-0.023 2.096 1.601 0.018zM8.667 21.608v-2.7l-0.001-5.597v-2.7c1.737-0.983 2.91-2.847 2.91-4.985s-1.173-4.003-2.911-4.985l0 4.182c0 1.137-0.921 2.058-2.058 2.058h-1.511c-0 0-0 0-0 0-1.137 0-2.058-0.921-2.058-2.058v-4.182c-1.738 0.983-2.91 2.848-2.91 4.986s1.173 4.003 2.911 4.985v2.7l0.001 5.597v2.7c-1.736 0.982-2.909 2.847-2.909 4.985s1.173 4.003 2.911 4.985l-0.001-4.181c0-1.137 0.921-2.058 2.058-2.058h1.511c1.137 0 2.058 0.921 2.058 2.058v0l0.001 4.182c1.737-0.983 2.91-2.847 2.91-4.986s-1.173-4.003-2.911-4.985zM6.818 19.584c-0.011 0.524-0.439 0.945-0.965 0.945s-0.954-0.421-0.965-0.944l-0-0.001-0.001-7.075c0-0.533 0.432-0.965 0.965-0.965s0.965 0.432 0.965 0.965v0l0.001 7.075z"></path>
</svg>
