<!-- Generated by IcoMoon.io -->
<svg version="1.1" xmlns="http://www.w3.org/2000/svg" width="32" height="32" viewBox="0 0 32 32">
<title>characteristics</title>
<path fill="#17374c" d="M15.869 22.691c-0.002 0-0.005 0-0.008 0-1.833 0-3.492-0.744-4.691-1.947l-0-0c-1.203-1.2-1.947-2.859-1.947-4.691 0-0.003 0-0.005 0-0.008v0c0-1.835 0.744-3.497 1.947-4.699 1.2-1.203 2.858-1.947 4.691-1.947 0.003 0 0.006 0 0.008 0h-0c1.834 0 3.495 0.744 4.698 1.946 1.204 1.199 1.949 2.858 1.949 4.691 0 0.003 0 0.006 0 0.009v-0c0 1.835-0.744 3.497-1.947 4.699-1.201 1.203-2.86 1.947-4.694 1.947-0.002 0-0.004 0-0.006 0h0zM11.849 20.065c1.026 1.029 2.445 1.665 4.013 1.665 0.002 0 0.005 0 0.007 0h-0c1.571 0 2.993-0.637 4.021-1.664s1.665-2.447 1.665-4.015c0-0.002 0-0.004 0-0.006v0c0-1.57-0.637-2.992-1.665-4.020-1.026-1.029-2.445-1.665-4.012-1.665-0.003 0-0.006 0-0.009 0h0.001c-0.002 0-0.005 0-0.007 0-1.568 0-2.987 0.636-4.013 1.665l-0 0c-1.029 1.026-1.665 2.446-1.665 4.013 0 0.002 0 0.005 0 0.007v-0c0 1.57 0.637 2.992 1.665 4.020zM18.911 18.019l-0.010-0.096c-0.023-0.224-0.204-0.493-0.402-0.597l-0.733-0.389c-0.198-0.104-0.518-0.096-0.707 0.024l-0.346 0.219c-0.943-0.505-1.585-1.464-1.634-2.577l-0-0.007 0.347-0.219c0.189-0.12 0.334-0.404 0.325-0.629l-0.037-0.829c-0.011-0.224-0.176-0.503-0.368-0.619l-0.083-0.050c-0.192-0.116-0.505-0.113-0.695 0.007l-0.517 0.327c-0.093 0.059-0.189 0.263-0.189 0.263-0.088 0.354-0.138 0.761-0.138 1.179 0 2.442 1.712 4.484 4.001 4.992l0.034 0.006c0.007 0 0.239 0.003 0.331-0.055l0.518-0.328c0.189-0.12 0.326-0.401 0.304-0.625zM25.751 14.51h-1.962c-0.315-1.222-0.594-1.891-1.236-2.977l1.388-1.388v-1.523l-0.648-0.648h-1.524l-1.386 1.385c-1.090-0.643-1.752-0.916-2.978-1.229v-1.968l-1.074-1.074h-0.92l-1.074 1.074v1.965c-1.222 0.313-1.891 0.591-2.977 1.234l-1.389-1.387h-1.523l-0.648 0.648v1.523l1.386 1.388c-0.642 1.087-0.917 1.755-1.234 2.977h-1.962l-1.074 1.074v0.92l1.074 1.074h1.962c0.317 1.222 0.592 1.89 1.234 2.977l-1.386 1.387v1.524l0.648 0.648h1.523l1.389-1.388c1.087 0.644 1.753 0.92 2.977 1.235v1.963l1.074 1.074h0.92l1.074-1.074v-1.963c1.22-0.315 1.893-0.592 2.978-1.232l1.387 1.385h1.524l0.648-0.649v-1.524l-1.385-1.386c0.64-1.085 0.918-1.758 1.232-2.979h1.963l1.074-1.074v-0.92l-1.074-1.074zM24.761 13.23h1.519l1.825 1.825v1.979l-1.825 1.825h-1.519c-0.184 0.576-0.392 1.067-0.639 1.534l0.024-0.050 1.075 1.076v2.577l-1.4 1.4h-2.578l-1.076-1.075c-0.417 0.223-0.908 0.431-1.418 0.596l-0.066 0.018v1.519l-1.825 1.825h-1.979l-1.825-1.825v-1.518c-0.576-0.184-1.067-0.392-1.535-0.639l0.050 0.024-1.076 1.075h-2.577l-1.4-1.4v-2.577l1.074-1.075c-0.221-0.416-0.429-0.908-0.595-1.418l-0.019-0.067h-1.519l-1.825-1.825v-1.979l1.825-1.825h1.519c0.184-0.577 0.392-1.068 0.639-1.536l-0.025 0.051-1.074-1.075v-2.576l1.4-1.4h2.576l1.076 1.075c0.417-0.223 0.909-0.431 1.419-0.596l0.065-0.018v-1.52l1.825-1.825h1.979l1.825 1.825v1.518c0.512 0.161 1.008 0.369 1.484 0.617l1.075-1.075h2.578l1.4 1.4v2.577l-1.075 1.074c0.223 0.417 0.431 0.909 0.596 1.42l0.018 0.065z"></path>
<path fill="#a1a4a6" d="M7.47 1.579c5.802-0.507 11.059-0.496 16.863 0.038 3.186 0.293 5.653 2.768 5.933 5.956 0.516 5.858 0.504 11.145-0.038 17.005-0.294 3.187-2.771 5.652-5.959 5.931-5.802 0.507-11.059 0.495-16.863-0.038-3.187-0.293-5.653-2.769-5.933-5.957-0.515-5.858-0.503-11.145 0.038-17.005 0.295-3.187 2.772-5.652 5.96-5.931zM15.901 2.802c-2.674-0.006-5.395 0.118-8.293 0.371-1.211 0.105-2.284 0.623-3.078 1.412-0.796 0.793-1.32 1.862-1.432 3.068-0.267 2.887-0.404 5.628-0.41 8.36-0.006 2.695 0.12 5.438 0.378 8.364 0.106 1.211 0.624 2.283 1.415 3.077 0.793 0.796 1.862 1.32 3.069 1.43 2.859 0.262 5.579 0.397 8.289 0.403 2.674 0.005 5.395-0.118 8.293-0.371 1.212-0.106 2.284-0.623 3.078-1.413 0.797-0.793 1.321-1.863 1.432-3.068 0.267-2.888 0.404-5.628 0.41-8.36 0.005-2.695-0.12-5.438-0.378-8.364-0.106-1.211-0.624-2.283-1.415-3.077-0.793-0.796-1.863-1.319-3.069-1.43-2.859-0.263-5.578-0.397-8.288-0.403z"></path>
</svg>
