<!-- Generated by IcoMoon.io -->
<svg version="1.1" xmlns="http://www.w3.org/2000/svg" width="29" height="32" viewBox="0 0 29 32">
<title>madeinUA-icon</title>
<path fill="#17374c" d="M14.115 4.004c-4.364 0-7.902 3.538-7.902 7.901s3.538 7.902 7.902 7.902c4.364 0 7.901-3.538 7.901-7.902s-3.537-7.902-7.902-7.902zM14.115 0.27l2.115 1.955c0.173 0.165 0.408 0.266 0.666 0.266 0.081 0 0.159-0.010 0.234-0.029l-0.007 0.001 2.809-0.636 0.854 2.751c0.095 0.316 0.339 0.559 0.647 0.652l0.007 0.002 2.751 0.854-0.636 2.809c-0.075 0.329 0.010 0.646 0.239 0.894l1.955 2.115-1.955 2.115c-0.165 0.173-0.267 0.408-0.267 0.667 0 0.081 0.010 0.159 0.028 0.234l-0.001-0.007 0.636 2.809-2.751 0.854c-0.316 0.095-0.559 0.339-0.652 0.647l-0.002 0.007-0.854 2.751-2.809-0.636c-0.068-0.017-0.146-0.027-0.227-0.027-0.259 0-0.494 0.102-0.667 0.267l0-0-2.115 1.955-2.115-1.955c-0.173-0.165-0.408-0.266-0.667-0.266-0.081 0-0.159 0.010-0.234 0.028l0.007-0.001-2.809 0.636-0.854-2.751c-0.095-0.316-0.339-0.559-0.648-0.653l-0.007-0.002-2.75-0.854 0.636-2.809c0.017-0.068 0.027-0.147 0.027-0.227 0-0.258-0.101-0.493-0.267-0.667l0 0-1.955-2.115 1.955-2.115c0.165-0.173 0.266-0.408 0.266-0.666 0-0.081-0.010-0.159-0.029-0.234l0.001 0.007-0.636-2.809 2.751-0.854c0.316-0.095 0.559-0.339 0.652-0.647l0.002-0.007 0.854-2.751 2.809 0.636c0.329 0.075 0.646-0.011 0.894-0.24l2.114-1.955zM14.115 6.011c-3.256 0-5.895 2.639-5.895 5.895s2.639 5.895 5.895 5.895c3.256 0 5.895-2.639 5.895-5.895s-2.639-5.895-5.895-5.895zM9.591 12.402v-2.464c0-0.198 0.053-0.348 0.16-0.454s0.245-0.159 0.412-0.159c0.174 0 0.313 0.052 0.417 0.155s0.155 0.257 0.155 0.459v2.464c0 0.325 0.101 0.583 0.304 0.775 0.188 0.18 0.431 0.27 0.727 0.27 0.292 0 0.538-0.093 0.738-0.279 0.2-0.187 0.3-0.441 0.3-0.766v-2.464c0-0.198 0.053-0.35 0.158-0.455s0.244-0.159 0.413-0.159c0.174 0 0.313 0.052 0.417 0.155s0.155 0.257 0.155 0.458v2.464c0 0.66-0.201 1.184-0.604 1.572-0.401 0.388-0.927 0.582-1.578 0.582-0.646 0-1.165-0.19-1.558-0.572-0.408-0.396-0.614-0.923-0.616-1.583zM14.185 14.010c0-0.089 0.011-0.182 0.033-0.279 0.021-0.097 0.067-0.241 0.135-0.434l1.103-2.999c0.13-0.362 0.242-0.607 0.336-0.733 0.157-0.207 0.361-0.31 0.613-0.31 0.207 0 0.378 0.061 0.515 0.182 0.137 0.122 0.287 0.409 0.452 0.861l1.099 2.999c0.076 0.201 0.122 0.347 0.141 0.438 0.018 0.089 0.027 0.181 0.027 0.275 0 0.146-0.050 0.261-0.148 0.347s-0.231 0.128-0.398 0.128c-0.174 0-0.308-0.052-0.403-0.157-0.075-0.081-0.14-0.219-0.195-0.413l-0.141-0.454h-1.878l-0.141 0.454c-0.062 0.19-0.127 0.326-0.197 0.406-0.094 0.109-0.228 0.163-0.404 0.163-0.165 0-0.298-0.043-0.399-0.13s-0.152-0.201-0.152-0.345zM15.814 12.396h1.2l-0.569-1.859-0.632 1.859z"></path>
<path fill="#a1a4a6" d="M21.398 31.961l-5.196-9.13 4.271-0.382c0.298-0.023 0.556-0.178 0.717-0.407l0.002-0.003 2.349-3.272 4.811 8.92-4.253-0.793c-0.056-0.011-0.12-0.018-0.186-0.018-0.428 0-0.792 0.272-0.929 0.653l-0.002 0.007-1.582 4.425zM0.231 28.257l4.771-9.359 2.667 3.358c0.173 0.223 0.438 0.367 0.736 0.375l0.001 0 4.025 0.164-4.807 8.922-1.675-3.989c-0.152-0.361-0.503-0.61-0.913-0.61-0.085 0-0.167 0.011-0.245 0.031l0.007-0.001-4.567 1.11z"></path>
</svg>
