<!-- Generated by IcoMoon.io -->
<svg version="1.1" xmlns="http://www.w3.org/2000/svg" width="43" height="32" viewBox="0 0 43 32">
<title>mail</title>
<path d="M38.669 0.681h-34.671c-2.21 0-4 1.638-4 3.661v21.963c0 2.022 1.792 3.661 4 3.661h34.671c2.21 0 4-1.638 4-3.661v-21.963c0-2.022-1.792-3.661-4-3.661zM41.335 25.762l-12.612-11.541 12.612-7.356v18.897zM3.998 1.899h34.671c1.472 0 2.667 1.094 2.667 2.441v1.077l-18.357 10.705c-0.453 0.266-0.998 0.422-1.58 0.422-0.611 0-1.182-0.173-1.665-0.473l0.014 0.008-18.415-11.454v-0.284c0-1.346 1.195-2.441 2.667-2.441zM1.331 6.101l12.789 7.955-12.789 11.706v-19.661zM38.669 28.745h-34.671c-1.099 0-2.044-0.61-2.451-1.481l13.681-12.523 3.77 2.347c0.725 0.448 1.562 0.674 2.4 0.674 0.796 0 1.594-0.203 2.298-0.612l3.893-2.272 13.532 12.384c-0.407 0.87-1.353 1.481-2.451 1.481z"></path>
</svg>
