<!-- Generated by IcoMoon.io -->
<svg version="1.1" xmlns="http://www.w3.org/2000/svg" width="32" height="32" viewBox="0 0 32 32">
<title>motor</title>
<path fill="#17374c" d="M25.692 16.015c0-0.003 0-0.008 0-0.012 0-2.7-1.098-5.145-2.872-6.91l-0-0c-1.771-1.771-4.218-2.867-6.921-2.867-0.005 0-0.010 0-0.015 0h0.001c-2.709 0-5.161 1.096-6.935 2.866-1.774 1.766-2.872 4.21-2.872 6.91 0 0.004 0 0.008 0 0.013v-0.001c0 0.003 0 0.007 0 0.011 0 2.7 1.098 5.145 2.872 6.91l0 0c1.771 1.771 4.218 2.867 6.92 2.867 0.005 0 0.010 0 0.015 0h-0.001c2.709 0 5.161-1.095 6.935-2.866 1.778-1.774 2.878-4.223 2.878-6.922h2.695c-0 3.452-1.399 6.574-3.66 8.831-2.259 2.26-5.381 3.658-8.83 3.658-0.006 0-0.012 0-0.019 0h0.001c-0.006 0-0.012 0-0.019 0-3.448 0-6.57-1.398-8.83-3.658l-0-0c-2.264-2.26-3.665-5.383-3.665-8.831s1.401-6.571 3.665-8.831c2.259-2.26 5.381-3.658 8.83-3.658 0.006 0 0.013 0 0.019 0h-0.001c0.005 0 0.011 0 0.018 0 3.449 0 6.571 1.398 8.83 3.658l0 0c2.265 2.26 3.665 5.382 3.665 8.831h-2.706zM9.295 20.507c0-0.208 0.021-0.461 0.063-0.754 0-0.021 0.117-0.712 0.357-2.075l1.001-5.758c0.104-0.616 0.331-1.050 0.68-1.311 0.261-0.197 0.599-0.296 1.011-0.296 0.602 0 1.050 0.203 1.349 0.608 0.222 0.302 0.508 1.019 0.863 2.156l1.251 3.857 1.279-3.857c0.294-0.902 0.511-1.493 0.649-1.766 0.338-0.666 0.862-0.998 1.565-0.998 0.401 0 0.735 0.099 0.996 0.293 0.36 0.265 0.591 0.697 0.695 1.293l0.977 5.76c0.164 0.957 0.279 1.631 0.344 2.021s0.099 0.66 0.099 0.809c0 0.315-0.115 0.599-0.342 0.85s-0.526 0.38-0.896 0.38c-0.529 0-0.912-0.171-1.149-0.512-0.153-0.229-0.279-0.619-0.372-1.175l-0.755-4.973-1.743 5.508c-0.128 0.419-0.294 0.713-0.5 0.89-0.206 0.174-0.503 0.262-0.888 0.262-0.378 0-0.672-0.088-0.881-0.262-0.208-0.177-0.378-0.471-0.511-0.89l-1.704-5.51-0.787 4.975c-0.101 0.697-0.268 1.155-0.505 1.368s-0.555 0.32-0.956 0.32c-0.355 0-0.641-0.125-0.86-0.375-0.219-0.247-0.329-0.528-0.329-0.837z"></path>
<path fill="#a1a4a6" d="M6.912 0.656c6.198-0.538 11.813-0.526 18.013 0.041 3.404 0.311 6.039 2.939 6.339 6.324 0.55 6.219 0.538 11.834-0.041 18.056-0.315 3.383-2.961 6.001-6.367 6.297-6.198 0.539-11.813 0.526-18.013-0.040-3.404-0.311-6.039-2.94-6.339-6.325-0.55-6.22-0.538-11.834 0.041-18.056 0.314-3.383 2.961-6.001 6.366-6.297zM15.918 1.607c-2.877-0.006-5.793 0.125-8.89 0.394-1.38 0.12-2.603 0.706-3.507 1.601-0.907 0.899-1.507 2.106-1.631 3.451l-0.002 0.022c-0.286 3.074-0.432 5.994-0.439 8.908-0.006 2.882 0.128 5.804 0.403 8.911 0.121 1.368 0.71 2.579 1.609 3.476 0.906 0.905 2.127 1.499 3.503 1.624 3.063 0.279 5.977 0.423 8.886 0.429 2.877 0.006 5.793-0.125 8.89-0.394 1.381-0.119 2.603-0.705 3.507-1.6 0.907-0.899 1.508-2.106 1.632-3.452l0.002-0.022c0.286-3.074 0.432-5.994 0.438-8.908 0.006-2.882-0.128-5.803-0.403-8.911-0.121-1.368-0.71-2.579-1.609-3.476-0.907-0.905-2.127-1.499-3.504-1.624-3.063-0.279-5.977-0.423-8.886-0.429z"></path>
</svg>
