<!-- Generated by IcoMoon.io -->
<svg version="1.1" xmlns="http://www.w3.org/2000/svg" width="32" height="32" viewBox="0 0 32 32">
<title>orderconfirm</title>
<path fill="#a1a4a6" d="M7.373 2.042c5.802-0.509 11.056-0.496 16.861 0.035 3.187 0.295 5.654 2.771 5.936 5.959 0.515 5.856 0.502 11.145-0.038 17.005-0.295 3.187-2.771 5.651-5.962 5.93-5.801 0.509-11.056 0.496-16.861-0.035-3.187-0.294-5.654-2.771-5.936-5.958-0.515-5.856-0.502-11.145 0.039-17.005 0.294-3.187 2.771-5.651 5.961-5.93zM15.802 3.264c-2.672-0.006-5.395 0.118-8.291 0.371-1.213 0.105-2.285 0.621-3.078 1.411-0.797 0.794-1.322 1.862-1.434 3.069-0.265 2.886-0.403 5.629-0.41 8.358-0.003 2.695 0.122 5.44 0.378 8.365 0.109 1.213 0.627 2.285 1.415 3.078 0.793 0.794 1.865 1.319 3.072 1.431 2.858 0.259 5.578 0.397 8.288 0.4 2.672 0.006 5.395-0.115 8.291-0.371 1.213-0.105 2.285-0.621 3.078-1.411 0.797-0.793 1.322-1.862 1.434-3.069 0.265-2.886 0.403-5.629 0.41-8.358 0.003-2.698-0.122-5.44-0.378-8.365-0.109-1.213-0.627-2.285-1.418-3.078s-1.862-1.319-3.069-1.427c-2.858-0.266-5.578-0.4-8.288-0.403z"></path>
<path fill="#17374c" d="M8.905 19.139c0.97 0 1.767 0.797 1.767 1.763-0.002 0.975-0.792 1.765-1.766 1.767h-0c-0.966 0-1.763-0.797-1.763-1.767 0-0.966 0.797-1.763 1.763-1.763zM8.905 20.099c-0.443 0-0.802 0.36-0.803 0.803v0c0 0.445 0.362 0.807 0.803 0.807 0.001 0 0.002 0 0.003 0 0.443 0 0.803-0.36 0.803-0.803 0-0.001 0-0.003 0-0.004v0c-0.002-0.444-0.362-0.803-0.806-0.803 0 0 0 0 0 0v0zM17.472 23.965c-2.749-0.176-4.381-0.304-4.336-3.053 0.035-2.118 0.118-4.17-0.112-6.278 1.702-0.563 2.205-2.339 2.189-4.013-0.025-1.274-0.067-3.504 2.285-3.539 1.072-0.006 1.61 1.053 1.875 1.942 0.256 0.855 0.346 1.834 0.352 2.269 0.074 0.381-0.157 1.859-0.224 2.317l4.976 0.042c1.856-0.010 2.573 2.173 1.187 3.366 0.406 0.733 0.282 1.632-0.375 2.179 0.455 0.711 0.365 1.632-0.256 2.218 0.154 0.253 0.243 0.55 0.243 0.864-0.003 0.921-0.749 1.668-1.67 1.671l-6.135 0.016zM17.552 22.688l6.055-0.019c0 0 0.001 0 0.002 0 0.213 0 0.385-0.172 0.385-0.385 0-0.002 0-0.004-0-0.006v0c0-0 0-0 0-0.001 0-0.199-0.146-0.364-0.337-0.392l-0.002-0 0.138-1.271c0.295 0.003 0.49-0.16 0.509-0.458-0.003-0.205-0.214-0.512-0.422-0.518l0.176-1.264c0.733-0.013 0.691-0.877 0.186-0.963l0.192-1.264c0.406 0.016 0.665-0.256 0.682-0.656 0-0.359-0.304-0.563-0.637-0.563l-4.777-0.019c-0.759-0.009-1.498-0.393-1.485-1.238 0.448-1.594 0.717-5.347-0.707-5.312-0.829 0.019-1.033 1.437-1.021 2.243 0.016 1.625-0.605 3.952-2.086 4.861 0.17 1.664 0.042 3.767 0.013 5.469-0.025 1.641 1.597 1.657 3.139 1.757zM7.43 13.655h3.046c1.085 0 1.975 0.89 1.975 1.975v6.301c0 1.085-0.89 1.975-1.975 1.975h-3.046c-1.085 0-1.974-0.89-1.974-1.975v-6.301c0-1.085 0.89-1.974 1.975-1.974zM10.477 14.935h-3.046c-0.384 0-0.694 0.31-0.694 0.695v6.301c0 0.384 0.31 0.695 0.695 0.695h3.046c0.384 0 0.695-0.311 0.695-0.695v-6.301c0-0.384-0.311-0.694-0.695-0.694z"></path>
</svg>
