<!-- Generated by IcoMoon.io -->
<svg version="1.1" xmlns="http://www.w3.org/2000/svg" width="32" height="32" viewBox="0 0 32 32">
<title>orderpay</title>
<path fill="#a1a4a6" d="M7.372 2.040c5.802-0.507 11.059-0.495 16.863 0.038 3.187 0.293 5.653 2.768 5.933 5.956 0.516 5.858 0.504 11.145-0.038 17.005-0.294 3.187-2.771 5.652-5.96 5.931-5.802 0.507-11.059 0.495-16.863-0.038-3.187-0.293-5.653-2.769-5.933-5.957-0.515-5.858-0.504-11.145 0.038-17.005 0.294-3.187 2.772-5.652 5.96-5.931zM15.802 3.263c-2.674-0.006-5.395 0.118-8.293 0.371-1.211 0.105-2.284 0.623-3.078 1.412-0.796 0.793-1.32 1.862-1.432 3.069-0.267 2.887-0.403 5.628-0.409 8.36-0.006 2.695 0.12 5.438 0.377 8.364 0.107 1.211 0.624 2.283 1.415 3.077 0.793 0.796 1.863 1.32 3.069 1.43 2.859 0.262 5.578 0.397 8.288 0.403 2.674 0.005 5.395-0.118 8.293-0.371 1.211-0.106 2.284-0.623 3.078-1.413 0.796-0.793 1.32-1.863 1.432-3.068 0.267-2.887 0.404-5.628 0.409-8.36 0.006-2.695-0.12-5.438-0.377-8.364-0.106-1.211-0.624-2.283-1.415-3.077-0.793-0.796-1.863-1.319-3.069-1.43-2.859-0.263-5.578-0.397-8.288-0.403z"></path>
<path fill="#17374c" d="M24.475 10.853l-16.488-0.001c-0 0-0 0-0 0-0.65 0-1.177 0.527-1.177 1.177 0 0 0 0 0 0v-0l-0.001 9.421c0 0 0 0 0 0 0 0.65 0.527 1.178 1.178 1.178l16.488 0.001c0 0 0 0 0 0 0.65 0 1.177-0.527 1.177-1.177 0-0 0-0 0-0v0l0.001-9.422c0-0 0-0 0-0 0-0.65-0.527-1.178-1.178-1.178v0zM24.473 21.453l-16.488-0.002 0.001-5.888 16.488 0.001-0.001 5.889zM24.474 13.208l-16.488-0.001 0-1.178 16.488 0.001v1.178zM9.163 20.274h2.356v-1.178l-2.355-0v1.178zM12.696 20.274h2.355v-1.177l-2.355-0v1.178zM19.174 20.275c0.454 0 0.865-0.177 1.178-0.459 0.31 0.283 0.723 0.457 1.177 0.459h0c0.011 0 0.025 0 0.039 0 0.976 0 1.767-0.791 1.767-1.767s-0.791-1.767-1.767-1.767c-0.014 0-0.027 0-0.041 0l0.002-0c-0.454 0.001-0.868 0.175-1.179 0.459l0.001-0.001c-0.309-0.283-0.723-0.457-1.177-0.459h-0c-0.976 0-1.767 0.791-1.767 1.767s0.791 1.767 1.767 1.767v0z"></path>
</svg>
