<!-- Generated by IcoMoon.io -->
<svg version="1.1" xmlns="http://www.w3.org/2000/svg" width="32" height="32" viewBox="0 0 32 32">
<title>orderdelivery</title>
<path fill="#a1a4a6" d="M7.372 2.040c5.802-0.507 11.059-0.495 16.863 0.038 3.187 0.293 5.653 2.768 5.933 5.956 0.516 5.858 0.504 11.145-0.038 17.005-0.294 3.187-2.771 5.652-5.96 5.931-5.802 0.507-11.059 0.495-16.863-0.038-3.187-0.293-5.653-2.769-5.933-5.957-0.515-5.858-0.504-11.145 0.038-17.005 0.294-3.187 2.772-5.652 5.96-5.931zM15.802 3.263c-2.674-0.006-5.395 0.118-8.293 0.371-1.211 0.105-2.284 0.623-3.078 1.412-0.796 0.793-1.32 1.862-1.432 3.069-0.267 2.887-0.403 5.628-0.409 8.36-0.006 2.695 0.12 5.438 0.377 8.364 0.107 1.211 0.624 2.283 1.415 3.077 0.793 0.796 1.863 1.32 3.069 1.43 2.859 0.262 5.578 0.397 8.288 0.403 2.674 0.005 5.395-0.118 8.293-0.371 1.211-0.106 2.284-0.623 3.078-1.413 0.796-0.793 1.32-1.863 1.432-3.068 0.267-2.887 0.404-5.628 0.409-8.36 0.006-2.695-0.12-5.438-0.377-8.364-0.106-1.211-0.624-2.283-1.415-3.077-0.793-0.796-1.863-1.319-3.069-1.43-2.859-0.263-5.578-0.397-8.288-0.403z"></path>
<path fill="#17374c" d="M9.628 11.752c-0.442 0-0.8-0.358-0.8-0.8s0.358-0.8 0.8-0.8v0h9.684c0.425 0.001 0.81 0.174 1.088 0.453l0 0c0.282 0.278 0.457 0.664 0.457 1.091v0 0.748h1.748c0.524 0 1.015 0.147 1.431 0.415 0.424 0.278 0.757 0.664 0.965 1.119l0.007 0.017 0.632 1.391c0.042 0.094 0.093 0.175 0.152 0.246 0.058 0.068 0.131 0.132 0.22 0.192l0.221 0.149c0.362 0.244 0.654 0.565 0.858 0.94l0.007 0.014 0.003 0.003c0.193 0.358 0.306 0.783 0.306 1.235 0 0.005 0 0.010-0 0.015v-0.001 1.467c0 0.425-0.174 0.813-0.454 1.092s-0.665 0.453-1.091 0.453h-0.773c-0.343 0.978-1.259 1.667-2.335 1.667h-0c-0.68-0-1.296-0.276-1.741-0.723l-0-0-0.003-0.003c-0.258-0.258-0.459-0.573-0.584-0.924l-0.005-0.017h-5.13c-0.343 0.978-1.258 1.667-2.335 1.667h-0c-0.68-0-1.296-0.276-1.741-0.723l-0.003-0.003c-0.258-0.258-0.46-0.573-0.584-0.924l-0.005-0.017h-0.994c-0.427-0-0.813-0.173-1.092-0.453l-0-0c-0.28-0.279-0.453-0.665-0.453-1.092v-1.774c0-0.070 0.009-0.139 0.026-0.204h-1.909c-0.442 0-0.8-0.358-0.8-0.8s0.358-0.8 0.8-0.8h13.058v-4.317h-9.629zM20.857 14.045c0 1.548 0.070 3.245-0.004 4.777l0.16-0.175c0.446-0.447 1.062-0.723 1.743-0.723s1.297 0.276 1.743 0.723l0 0c0.257 0.259 0.459 0.575 0.584 0.927l0.005 0.018h0.719v-0.612h-0.263c-0 0-0 0-0.001 0-0.442 0-0.8-0.358-0.8-0.8 0-0.41 0.309-0.748 0.706-0.795l0.004-0-0.114-0.086-0.221-0.149c-0.208-0.14-0.387-0.301-0.542-0.482l-0.003-0.004c-0.15-0.178-0.279-0.382-0.379-0.602l-0.007-0.017-0.636-1.394c-0.083-0.186-0.213-0.338-0.374-0.445l-0.004-0.002c-0.157-0.1-0.349-0.159-0.555-0.159-0.005 0-0.010 0-0.015 0h-1.747zM19.257 18.744v-1.075h-9.6c0.017 0.065 0.026 0.133 0.026 0.204v1.719h0.939c0.13-0.369 0.331-0.683 0.589-0.941l0.003-0.003c0.445-0.447 1.061-0.723 1.742-0.723s1.296 0.276 1.742 0.723l0.003 0.003c0.258 0.258 0.46 0.573 0.584 0.924l0.005 0.017h5.13l0.067-0.174c-0.122 0.079-0.271 0.126-0.431 0.126-0.442 0-0.8-0.358-0.8-0.8 0-0 0-0 0-0v0zM11.213 14.087c0.442 0 0.8 0.358 0.8 0.8s-0.358 0.8-0.8 0.8h-2.744c-0.442 0-0.8-0.358-0.8-0.8s0.358-0.8 0.8-0.8h2.744zM6.801 12.077c0.442 0 0.8 0.358 0.8 0.8s-0.358 0.8-0.8 0.8h-1.093c-0.442 0-0.8-0.358-0.8-0.8s0.358-0.8 0.8-0.8v0h1.093zM7.411 10.151c0.442 0 0.8 0.358 0.8 0.8s-0.358 0.8-0.8 0.8v0h-1.093c-0.442 0-0.8-0.358-0.8-0.8s0.358-0.8 0.8-0.8v0h1.093zM6.028 14.087c0.442 0 0.8 0.358 0.8 0.8s-0.358 0.8-0.8 0.8h-1.093c-0.442 0-0.8-0.358-0.8-0.8s0.358-0.8 0.8-0.8h1.093zM13.394 12.077c0.442 0 0.8 0.358 0.8 0.8s-0.358 0.8-0.8 0.8h-4.312c-0.442 0-0.8-0.358-0.8-0.8s0.358-0.8 0.8-0.8v0h4.312zM12.956 21.259c0.241 0 0.459-0.097 0.615-0.252 0.156-0.158 0.252-0.376 0.252-0.615s-0.096-0.457-0.252-0.615l0 0c-0.157-0.156-0.373-0.252-0.612-0.252-0.001 0-0.002 0-0.003 0h0c-0.241 0-0.459 0.096-0.616 0.252s-0.252 0.374-0.252 0.616c0 0.241 0.097 0.459 0.252 0.615 0.157 0.156 0.374 0.252 0.615 0.252zM22.754 21.259c0 0 0.001 0 0.002 0 0.478 0 0.866-0.388 0.866-0.866 0-0.001 0-0.001 0-0.002v0c0-0.241-0.096-0.459-0.252-0.616-0.158-0.156-0.375-0.252-0.615-0.252s-0.457 0.096-0.615 0.252l0-0c-0.156 0.157-0.253 0.374-0.253 0.616s0.097 0.459 0.253 0.615c0.156 0.156 0.374 0.252 0.615 0.252z"></path>
</svg>
