<!-- Generated by IcoMoon.io -->
<svg version="1.1" xmlns="http://www.w3.org/2000/svg" width="20" height="32" viewBox="0 0 20 32">
<title>phone-icon</title>
<path d="M1.58 31.021h16.842c0.869 0 1.578-0.648 1.578-1.445v-27.936c0-0.797-0.707-1.445-1.58-1.445h-16.842c-0.869 0-1.578 0.647-1.578 1.445v27.934c0 0.797 0.707 1.445 1.58 1.445zM1.053 1.64c0-0.266 0.236-0.482 0.527-0.482h16.842c0.29 0 0.525 0.216 0.525 0.482v27.934c0 0.266-0.236 0.482-0.527 0.482h-16.842c-0.29 0-0.525-0.216-0.525-0.482v-27.934z"></path>
<path d="M2.632 26.205h14.737c0.29 0 0.525-0.216 0.525-0.482v-20.231c0-0.264-0.236-0.482-0.527-0.482h-14.737c-0.29 0-0.525 0.217-0.525 0.482v20.231c0 0.266 0.236 0.482 0.527 0.482zM3.158 5.974h13.684v19.267h-13.684v-19.267zM10.526 29.095c0.581 0 1.053-0.431 1.053-0.963s-0.472-0.963-1.053-0.963-1.053 0.431-1.053 0.963c0 0.532 0.472 0.963 1.053 0.963zM7.896 4.049h4.211c0.29 0 0.525-0.217 0.525-0.482 0-0.266-0.236-0.482-0.527-0.482h-4.211c-0.29 0-0.525 0.216-0.525 0.482 0 0.264 0.236 0.482 0.527 0.482z"></path>
</svg>
