<!-- Generated by IcoMoon.io -->
<svg version="1.1" xmlns="http://www.w3.org/2000/svg" width="31" height="32" viewBox="0 0 31 32">
<title>professional-icon</title>
<path fill="#a1a4a6" d="M24.562 22.781c1.549-1.927 2.486-4.404 2.486-7.099 0-0.006 0-0.012 0-0.018v0.001c0-6.312-5.117-11.429-11.429-11.429s-11.429 5.116-11.429 11.429c0 0.005 0 0.012 0 0.018 0 2.491 0.8 4.795 2.158 6.668l-0.023-0.033c-0.413 2.686-2.307 3.713-2.307 3.713l-1.003-1.003 1.524-1.955c-0.933-1.373-1.627-2.988-1.981-4.728l-0.014-0.085-2.458-0.305v-4.582l2.459-0.305c0.368-1.824 1.062-3.44 2.025-4.859l-0.030 0.046-1.524-1.955 3.24-3.24 1.956 1.525c1.372-0.933 2.988-1.627 4.727-1.981l0.085-0.014 0.305-2.459h4.582l0.305 2.459c1.824 0.368 3.44 1.063 4.859 2.025l-0.047-0.030 1.955-1.525 3.24 3.24-1.524 1.955c0.933 1.373 1.627 2.988 1.981 4.728l0.014 0.085 2.459 0.305v4.582l-2.459 0.305c-0.368 1.824-1.063 3.44-2.025 4.859l0.030-0.046 1.524 1.955-0.886 0.886s-2.361-0.447-2.775-3.133z"></path>
<path fill="#17374c" d="M4.526 31.962v-3.545c1.896-0.843 7.701-2.448 7.974-4.769 0.061-0.524-1.173-2.521-1.457-3.478-0.607-0.966-0.823-2.501-0.161-3.521 0.264-0.406 0.152-1.885 0.152-2.443 0-5.556 9.737-5.558 9.737 0 0 0.702-0.163 1.994 0.22 2.546 0.639 0.924 0.309 2.562-0.229 3.418-0.345 1.006-1.658 2.909-1.546 3.478 0.417 2.12 5.802 3.544 7.497 4.298v4.014l-22.187 0.002z"></path>
</svg>
