<!-- Generated by IcoMoon.io -->
<svg version="1.1" xmlns="http://www.w3.org/2000/svg" width="32" height="32" viewBox="0 0 32 32">
<title>pump</title>
<path fill="#17374c" d="M14.802 24.16c0.001-0.622 0.505-1.125 1.127-1.125 0 0 0 0 0 0h-0c0 0 0 0 0 0 0.622 0 1.126 0.504 1.127 1.125v4.243c-0.001 0.622-0.505 1.125-1.127 1.125-0 0-0 0-0 0h0c-0 0-0.001 0-0.001 0-0.622 0-1.126-0.504-1.127-1.125v-4.243zM14.828 3.451c0.001-0.622 0.505-1.125 1.127-1.125 0 0 0 0 0 0h-0c0 0 0 0 0 0 0.622 0 1.126 0.504 1.127 1.125v4.243c-0.001 0.622-0.505 1.125-1.127 1.125-0 0-0 0-0 0h0c-0 0-0 0-0 0-0.622 0-1.126-0.504-1.127-1.125v-4.243zM20.741 17.714l-4.721-8.162-4.722 8.162c1.378-0.69 3.003-1.094 4.721-1.094s3.343 0.404 4.784 1.122l-0.062-0.028zM22.572 16.179c0-1.831-0.744-3.489-1.945-4.689-1.2-1.2-2.857-1.942-4.687-1.942-0.004 0-0.007 0-0.011 0h0.001c-1.834 0-3.496 0.742-4.698 1.942-1.202 1.196-1.945 2.852-1.945 4.681 0 0.003 0 0.006 0 0.009v-0c0 1.831 0.744 3.488 1.945 4.688 1.2 1.2 2.857 1.942 4.688 1.942 0.003 0 0.007 0 0.010 0h-0.001c1.834 0 3.496-0.742 4.697-1.942 1.202-1.196 1.946-2.851 1.946-4.681 0-0.003 0-0.005 0-0.008v0zM22.539 9.581c1.692 1.683 2.738 4.013 2.738 6.588 0 0.004 0 0.007 0 0.011v-0.001c0 0.003 0 0.007 0 0.010 0 2.574-1.047 4.904-2.738 6.587l-0 0c-1.688 1.688-4.020 2.733-6.596 2.733-0.005 0-0.009 0-0.014 0h0.001c-0.004 0-0.009 0-0.014 0-2.576 0-4.909-1.044-6.597-2.733l-0-0c-1.692-1.683-2.739-4.013-2.739-6.588 0-0.004 0-0.007 0-0.011v0.001c0-0.003 0-0.006 0-0.010 0-2.575 1.047-4.905 2.738-6.588l0-0c1.688-1.689 4.021-2.733 6.597-2.733 0.005 0 0.009 0 0.014 0h-0.001c0.004 0 0.009 0 0.014 0 2.576 0 4.909 1.044 6.597 2.733l0 0z"></path>
<path fill="#a1a4a6" d="M7.035 0.658c6.199-0.539 11.814-0.526 18.014 0.040 3.404 0.311 6.039 2.939 6.339 6.324 0.551 6.22 0.538 11.835-0.041 18.057-0.314 3.383-2.961 6.001-6.366 6.296-6.198 0.539-11.813 0.526-18.014-0.040-3.404-0.311-6.039-2.94-6.338-6.324-0.551-6.22-0.538-11.835 0.041-18.056 0.313-3.383 2.96-6.001 6.365-6.297zM16.042 1.609c-2.877-0.007-5.793 0.125-8.89 0.394-1.381 0.12-2.603 0.706-3.507 1.6-0.907 0.899-1.508 2.106-1.632 3.451l-0.002 0.022c-0.285 3.073-0.432 5.994-0.438 8.908-0.006 2.882 0.128 5.803 0.403 8.911 0.121 1.368 0.71 2.579 1.609 3.476 0.907 0.905 2.127 1.499 3.504 1.625 3.063 0.279 5.977 0.422 8.886 0.429 2.877 0.006 5.793-0.125 8.89-0.394 1.381-0.12 2.603-0.706 3.507-1.6 0.907-0.899 1.508-2.106 1.632-3.451l0.002-0.022c0.285-3.074 0.432-5.993 0.438-8.908 0.006-2.882-0.128-5.804-0.403-8.911-0.121-1.368-0.71-2.579-1.609-3.476-0.907-0.905-2.127-1.499-3.504-1.625-3.063-0.279-5.977-0.422-8.886-0.429z"></path>
</svg>
