<!-- Generated by IcoMoon.io -->
<svg version="1.1" xmlns="http://www.w3.org/2000/svg" width="56" height="32" viewBox="0 0 56 32">
<title>punnctual-icon</title>
<path fill="#a1a4a6" d="M53.909 17.83l-26.437 12.696c-0.984 0.472-1.892 1.152-3.072 1.152-2.36 0-4.272-1.912-4.272-4.272s1.992-3.664 4.272-4.272l28.565-7.621c0.426-0.151 0.588-0.206 0.944-0.249 0.704-0.084 1.283 0.574 1.283 1.282s-0.612 0.943-1.283 1.283z"></path>
<path fill="#17374c" d="M5.495 21.13c-1.941 5.085-2.359 9.401-2.359 9.401l-2.994-0.19c0.059-4.075 0.356-7.345 1.196-10.501l4.157 1.29zM12.341 10.752c-2.807 2.178-4.727 5.475-6.115 8.571l-4.326-1.373c1.523-5.010 3.941-8.421 7.065-11.236l3.375 4.037zM24.217 6.915c-2.968 0.175-7.689 1.179-10.279 2.741l-3.162-4.436c3.668-2.724 8.623-4.34 13.358-4.903l0.082 6.598zM35.318 11.171l5.932-6.983c-3.679-2.421-9.488-4.041-14.852-4.013l-0.001 6.747c2.669 0.553 5.84 1.917 8.92 4.249zM37.29 12.61c1.365 1.107 2.838 2.389 4.46 3.861l9.641-2.121c-1.96-3.127-5.112-6.335-8.083-8.59l-6.018 6.851z"></path>
</svg>
