<!-- Generated by IcoMoon.io -->
<svg version="1.1" xmlns="http://www.w3.org/2000/svg" width="32" height="32" viewBox="0 0 32 32">
<title>tank</title>
<path fill="#17374c" d="M10.943 6.828c0.231 0.184 0.426 0.412 0.621 0.638 0.293 0.341 0.586 0.683 0.88 0.683 0.146 0 0.334-0.263 0.521-0.525 0.32-0.448 0.639-0.895 1.237-0.895 0.608 0 0.914 0.457 1.218 0.912 0.17 0.254 0.339 0.508 0.466 0.508 0.13 0 0.31-0.258 0.489-0.516 0.316-0.452 0.63-0.904 1.232-0.904s0.91 0.452 1.218 0.905c0.175 0.257 0.35 0.515 0.487 0.515 0.293 0 0.591-0.343 0.89-0.685 0.194-0.224 0.388-0.447 0.627-0.636l0.557 0.703c-0.159 0.126-0.332 0.325-0.504 0.522-0.435 0.498-0.87 0.996-1.57 0.996-0.61 0-0.921-0.457-1.23-0.912-0.173-0.254-0.345-0.508-0.475-0.508-0.134 0-0.313 0.258-0.493 0.516-0.314 0.453-0.627 0.904-1.229 0.904-0.605 0-0.909-0.454-1.212-0.909-0.17-0.255-0.342-0.511-0.471-0.511-0.136 0-0.32 0.257-0.504 0.516-0.322 0.451-0.646 0.904-1.253 0.904-0.706 0-1.135-0.5-1.564-1-0.166-0.193-0.333-0.388-0.497-0.518l0.56-0.703zM24.691 5.065v18.024c0 1.354-0.556 2.587-1.453 3.484l-0.005 0.005c-0.899 0.895-2.135 1.45-3.491 1.45h-7.715c-1.357 0-2.592-0.555-3.491-1.45l-0.005-0.005c-0.897-0.897-1.453-2.13-1.453-3.484v-18.025h2.706v18.025c0 0.001 0 0.002 0 0.003 0 0.616 0.25 1.174 0.654 1.577l0 0 0.005 0.005c0.404 0.404 0.963 0.654 1.579 0.654 0.001 0 0.003 0 0.004 0h7.715c0.001 0 0.002 0 0.004 0 0.617 0 1.175-0.25 1.579-0.654l-0 0 0.005-0.005c0.405-0.403 0.655-0.961 0.655-1.577 0-0.001 0-0.002 0-0.003v0-18.025h2.706zM10.753 16.738c0-0.952 0.268-1.715 0.804-2.29s1.252-0.861 2.145-0.861c0.887 0 1.598 0.286 2.136 0.857 0.538 0.572 0.807 1.336 0.807 2.294s-0.268 1.724-0.805 2.298c-0.536 0.574-1.248 0.861-2.138 0.861-0.894 0-1.609-0.287-2.145-0.861s-0.804-1.34-0.804-2.298zM12.218 16.738c0 0.534 0.115 0.969 0.345 1.308 0.264 0.385 0.643 0.58 1.139 0.583 0.493 0 0.87-0.195 1.134-0.583 0.23-0.342 0.345-0.777 0.345-1.308 0-0.527-0.115-0.962-0.345-1.303-0.264-0.385-0.641-0.578-1.134-0.578-0.494 0-0.874 0.193-1.139 0.578-0.23 0.336-0.345 0.77-0.345 1.303zM16.964 14.013c0-0.218 0.077-0.404 0.23-0.557s0.337-0.23 0.552-0.23c0.219 0 0.404 0.076 0.555 0.225 0.153 0.151 0.229 0.338 0.229 0.562 0 0.225-0.076 0.413-0.229 0.564-0.137 0.141-0.328 0.229-0.54 0.229-0.005 0-0.011-0-0.016-0h0.001c-0.22 0-0.404-0.076-0.556-0.229-0.15-0.151-0.226-0.338-0.226-0.564zM17.274 19.62c-0.122-0.128-0.184-0.294-0.184-0.496v-3.243c0-0.19 0.060-0.353 0.181-0.483 0.121-0.132 0.279-0.197 0.475-0.197 0.191 0 0.349 0.064 0.472 0.193s0.186 0.291 0.186 0.487v3.243c0 0.197-0.060 0.361-0.181 0.492-0.121 0.132-0.28 0.197-0.477 0.197-0.192 0-0.349-0.064-0.471-0.193zM18.964 19.124v-5.209c0-0.196 0.060-0.361 0.181-0.491 0.121-0.132 0.279-0.198 0.474-0.198 0.191 0 0.349 0.068 0.473 0.202 0.123 0.133 0.185 0.297 0.185 0.487v5.209c0 0.197-0.060 0.361-0.181 0.492-0.121 0.132-0.281 0.197-0.477 0.197-0.192 0-0.349-0.064-0.471-0.193s-0.183-0.294-0.183-0.496z"></path>
<path fill="#a1a4a6" d="M6.912 0.512c6.198-0.538 11.813-0.526 18.013 0.041 3.404 0.311 6.039 2.939 6.339 6.324 0.55 6.219 0.538 11.834-0.041 18.056-0.315 3.383-2.961 6.001-6.367 6.297-6.198 0.539-11.813 0.526-18.013-0.040-3.404-0.311-6.039-2.94-6.339-6.325-0.55-6.22-0.538-11.834 0.041-18.056 0.314-3.383 2.961-6.001 6.366-6.297zM15.918 1.463c-2.877-0.006-5.793 0.125-8.89 0.394-1.38 0.12-2.603 0.706-3.507 1.601-0.907 0.899-1.507 2.106-1.631 3.451l-0.002 0.022c-0.286 3.074-0.432 5.994-0.439 8.908-0.006 2.882 0.128 5.804 0.403 8.911 0.121 1.368 0.71 2.579 1.609 3.476 0.906 0.905 2.127 1.499 3.503 1.624 3.063 0.279 5.977 0.423 8.886 0.429 2.877 0.006 5.793-0.125 8.89-0.394 1.381-0.119 2.603-0.705 3.507-1.6 0.907-0.899 1.508-2.106 1.632-3.451l0.002-0.022c0.286-3.074 0.432-5.994 0.438-8.908 0.006-2.882-0.128-5.804-0.403-8.911-0.121-1.368-0.71-2.579-1.609-3.476-0.907-0.905-2.127-1.499-3.504-1.624-3.063-0.279-5.977-0.423-8.886-0.429z"></path>
</svg>
