<!-- Generated by IcoMoon.io -->
<svg version="1.1" xmlns="http://www.w3.org/2000/svg" width="32" height="32" viewBox="0 0 32 32">
<title>valve</title>
<path fill="#17374c" d="M5.567 5.080c-0.003-0-0.007-0-0.011-0-0.125 0-0.237 0.052-0.317 0.135l-0.002 0.002-0.013 0.014v0.001c-0.049 0.057-0.085 0.126-0.104 0.202l-0.001 0.003c-0.007 0.030-0.011 0.064-0.011 0.1v4.566c0 0.528 0.768 0.64 0.904 0.101 0.006-0.035 0.011-0.064 0.011-0.101v-4.109h3.504c0.53 0 0.641-0.768 0.101-0.902-0.030-0.007-0.065-0.011-0.1-0.011h-3.962zM18.788 23.817c-0.058 0.21-0.216 0.39-0.438 0.466l-1.678 0.576 1.573 0.276c0.324 0.058 0.567 0.338 0.567 0.674 0 0.317-0.216 0.584-0.508 0.661l-0.005 0.001-4.143 1.389c-0.065 0.022-0.139 0.035-0.217 0.035-0.377 0-0.683-0.306-0.683-0.683 0-0.299 0.193-0.554 0.461-0.646l0.005-0.001 1.637-0.549-1.527-0.268c-0.329-0.054-0.577-0.336-0.577-0.676 0-0.298 0.191-0.552 0.457-0.646l0.005-0.001 1.775-0.609h-4.281c-0 0-0.001 0-0.001 0-0.697 0-1.327-0.282-1.783-0.739l-0-0c-0.457-0.455-0.741-1.085-0.741-1.781 0-0 0-0 0-0v0-4.222h-1.24c-0.386 0.606-1.055 1.003-1.816 1.003-0.001 0-0.001 0-0.002 0h0c-0.001 0-0.001 0-0.002 0-1.183 0-2.143-0.959-2.144-2.142v-0c0.001-1 0.686-1.84 1.614-2.076l0.015-0.003v-1.014c0-0.037 0.005-0.066 0.011-0.101 0.135-0.539 0.904-0.428 0.904 0.101v0.988c0.6 0.116 1.102 0.468 1.413 0.954l0.005 0.009h1.241v-4.085c0-0.694 0.284-1.325 0.741-1.781 0.456-0.457 1.087-0.74 1.784-0.74 0 0 0.001 0 0.001 0h5.177v-2.193h-4.113c-0.037 0-0.066-0.005-0.101-0.011-0.54-0.135-0.43-0.902 0.101-0.902h4.574c0.038 0 0.066 0.005 0.101 0.011 0.261 0.065 0.369 0.277 0.353 0.48v2.615h3.634c0.695 0 1.327 0.283 1.784 0.74s0.741 1.087 0.741 1.781v4.088h1.822c0.386-0.605 1.054-1.001 1.815-1.001 0.001 0 0.001 0 0.002 0h-0c0.001 0 0.001 0 0.002 0 1.184 0 2.143 0.959 2.144 2.143v0c-0.001 1.183-0.961 2.142-2.144 2.142-0.001 0-0.002 0-0.002 0h0c-0 0-0.001 0-0.001 0-0.761 0-1.429-0.396-1.81-0.992l-0.005-0.009h-1.823v4.221c0 0.694-0.283 1.325-0.741 1.781s-1.087 0.739-1.783 0.739c-0 0-0.001 0-0.001 0h-2.148zM11.44 13.904h4.789v0.884l4.788-1.768-4.788-1.768v0.884h-4.789v1.768zM20.935 10.469h-9.726c-0.065 0-0.125 0.027-0.167 0.070l-0 0c-0.043 0.043-0.070 0.101-0.071 0.167v10.591c0 0.064 0.027 0.123 0.071 0.167s0.102 0.070 0.167 0.070h9.726c0.064 0 0.123-0.027 0.167-0.070s0.070-0.102 0.070-0.167v-10.591c0-0.064-0.027-0.123-0.070-0.167s-0.102-0.070-0.167-0.070h-0z"></path>
<path fill="#a1a4a6" d="M6.971 0.423c6.287-0.546 11.982-0.533 18.271 0.041 3.452 0.315 6.126 2.982 6.429 6.414 0.558 6.309 0.545 12.004-0.041 18.314-0.319 3.432-3.003 6.087-6.457 6.387-6.287 0.546-11.982 0.533-18.271-0.040-3.452-0.315-6.125-2.982-6.429-6.415-0.558-6.309-0.545-12.003 0.041-18.314 0.319-3.432 3.003-6.087 6.457-6.387zM16.106 1.387c-2.918-0.006-5.875 0.127-9.017 0.4-1.4 0.122-2.64 0.716-3.558 1.624-0.92 0.912-1.529 2.136-1.655 3.5l-0.002 0.022c-0.29 3.118-0.438 6.080-0.444 9.035-0.006 2.923 0.13 5.887 0.409 9.039 0.123 1.387 0.72 2.616 1.632 3.526 0.919 0.918 2.158 1.52 3.554 1.648 3.106 0.283 6.062 0.429 9.013 0.435 2.918 0.006 5.876-0.127 9.017-0.4 1.4-0.121 2.64-0.715 3.558-1.623 0.92-0.912 1.529-2.136 1.655-3.5l0.002-0.022c0.29-3.118 0.438-6.080 0.445-9.035 0.006-2.923-0.13-5.886-0.409-9.038-0.122-1.387-0.72-2.616-1.632-3.526-0.919-0.917-2.158-1.52-3.554-1.648-3.106-0.283-6.063-0.429-9.013-0.435z"></path>
</svg>
