<?xml version="1.0" encoding="UTF-8"?>
<!DOCTYPE svg PUBLIC "-//W3C//DTD SVG 1.1//EN" "http://www.w3.org/Graphics/SVG/1.1/DTD/svg11.dtd">
<!-- Creator: CorelDRAW 2021.5 -->
<svg xmlns="http://www.w3.org/2000/svg" xml:space="preserve" width="20.108mm" height="20.108mm" version="1.1" style="shape-rendering:geometricPrecision; text-rendering:geometricPrecision; image-rendering:optimizeQuality; fill-rule:evenodd; clip-rule:evenodd"
viewBox="0 0 2010.8 2010.8"
 xmlns:xlink="http://www.w3.org/1999/xlink"
 xmlns:xodm="http://www.corel.com/coreldraw/odm/2003">
 <defs>
  <style type="text/css">
   <![CDATA[
    .fil1 {fill:#A1A4A6}
    .fil0 {fill:#17374C;fill-rule:nonzero}
   ]]>
  </style>
 </defs>
 <g id="Layer_x0020_1">
  <metadata id="CorelCorpID_0Corel-Layer"/>
  <path class="fil0" d="M1592.92 1003.12c0,-158.91 -64.41,-302.78 -168.53,-406.89 -104.12,-104.12 -247.99,-168.53 -406.9,-168.53 -158.91,0 -302.78,64.41 -406.89,168.53 -104.12,104.11 -168.53,247.98 -168.53,406.89 0,158.91 64.41,302.78 168.53,406.89 104.11,104.12 247.98,168.53 406.89,168.53 158.91,0 302.78,-64.4 406.89,-168.52 104.32,-104.31 168.86,-248.21 168.86,-406.89l158.12 0c-0.01,202.92 -82.07,386.47 -214.74,519.13 -132.85,132.87 -316.41,215.04 -519.13,215.04 -202.72,0 -386.28,-82.18 -519.13,-215.05 -132.87,-132.85 -215.05,-316.41 -215.05,-519.13 0,-202.72 82.18,-386.28 215.05,-519.13 132.85,-132.87 316.41,-215.05 519.13,-215.05 202.72,0 386.28,82.19 519.14,215.05 132.87,132.85 215.05,316.41 215.05,519.13l-158.76 0zm-962.04 264.02c0,-12.23 1.23,-27.06 3.67,-44.34 0,-1.22 6.88,-41.88 20.95,-121.99l58.7 -338.45c6.11,-36.23 19.41,-61.76 39.9,-77.05 15.28,-11.62 35.16,-17.42 59.31,-17.42 35.31,0 61.61,11.92 79.19,35.77 12.99,17.73 29.81,59.92 50.6,126.73l73.38 226.7 75.05 -226.7c17.28,-53.05 29.97,-87.75 38.07,-103.8 19.87,-39.14 50.6,-58.7 91.87,-58.7 23.55,0 43.11,5.8 58.4,17.27 21.1,15.59 34.7,40.97 40.82,75.98l57.32 338.6c9.63,56.26 16.36,95.85 20.18,118.78 3.82,22.93 5.81,38.83 5.81,47.55 0,18.49 -6.73,35.16 -20.03,49.98 -13.29,14.83 -30.87,22.32 -52.58,22.32 -31.04,0 -53.51,-10.09 -67.42,-30.11 -9.02,-13.45 -16.36,-36.39 -21.86,-69.1l-44.33 -292.29 -102.27 323.78c-7.49,24.61 -17.28,41.89 -29.35,52.28 -12.08,10.25 -29.51,15.44 -52.13,15.44 -22.17,0 -39.44,-5.19 -51.67,-15.44 -12.23,-10.39 -22.17,-27.67 -29.96,-52.28l-99.98 -323.93 -46.17 292.44c-5.96,40.97 -15.74,67.87 -29.65,80.41 -13.91,12.54 -32.56,18.8 -56.11,18.8 -20.79,0 -37.6,-7.33 -50.44,-22.01 -12.85,-14.52 -19.27,-31.03 -19.27,-49.22z"/>
  <path class="fil1" d="M491.03 100.27c363.66,-31.65 693.13,-30.91 1056.92,2.36 199.73,18.27 354.34,172.81 371.92,371.77 32.3,365.6 31.56,695.67 -2.37,1061.42 -18.45,198.89 -173.73,352.77 -373.55,370.16 -363.65,31.66 -693.13,30.91 -1056.92,-2.35 -199.72,-18.27 -354.33,-172.82 -371.91,-371.78 -32.3,-365.6 -31.55,-695.66 2.37,-1061.41 18.45,-198.89 173.73,-352.77 373.54,-370.17zm528.41 55.89c-168.78,-0.37 -339.88,7.36 -521.59,23.17 -81.01,7.05 -152.72,41.49 -205.79,94.09 -53.33,52.84 -88.38,123.99 -95.82,204.15 -16.75,180.7 -25.33,352.35 -25.71,523.63 -0.37,169.41 7.51,341.15 23.65,523.83 7.1,80.41 41.65,151.62 94.4,204.35 53.2,53.18 124.84,88.11 205.58,95.5 179.68,16.42 350.69,24.83 521.38,25.21 168.78,0.37 339.89,-7.36 521.59,-23.17 81.01,-7.04 152.72,-41.48 205.8,-94.08 53.33,-52.84 88.38,-123.99 95.82,-204.15 16.76,-180.69 25.33,-352.34 25.71,-523.64 0.37,-169.41 -7.52,-341.16 -23.65,-523.83 -7.1,-80.41 -41.65,-151.61 -94.4,-204.34 -53.2,-53.18 -124.84,-88.11 -205.59,-95.5 -179.68,-16.43 -350.7,-24.84 -521.38,-25.22z"/>
 </g>
</svg>
