<svg xmlns="http://www.w3.org/2000/svg" width="71" height="71" fill="none"><path fill="#17374C" d="M57.004 35.534a21.63 21.63 0 0 0-6.373-15.358 21.713 21.713 0 0 0-15.387-6.361c-6.01 0-11.45 2.431-15.386 6.36a21.63 21.63 0 0 0-6.373 15.359 21.63 21.63 0 0 0 6.373 15.357 21.712 21.712 0 0 0 15.386 6.361c6.01 0 11.45-2.43 15.387-6.36 3.944-3.937 6.385-9.369 6.385-15.358h5.98c-.001 7.66-3.104 14.587-8.121 19.594a27.7 27.7 0 0 1-19.63 8.117 27.7 27.7 0 0 1-19.632-8.117c-5.024-5.014-8.132-11.943-8.132-19.594 0-7.652 3.108-14.58 8.132-19.594a27.7 27.7 0 0 1 19.631-8.117 27.703 27.703 0 0 1 19.631 8.117c5.025 5.014 8.132 11.942 8.132 19.594h-6.003Zm-36.38 9.965c0-.462.047-1.022.14-1.674 0-.046.26-1.58.791-4.604l2.22-12.775c.231-1.367.734-2.33 1.509-2.908.578-.438 1.33-.657 2.243-.657 1.335 0 2.33.45 2.994 1.35.492.669 1.128 2.261 1.914 4.783l2.775 8.557 2.838-8.557c.653-2.002 1.133-3.312 1.44-3.918.75-1.477 1.913-2.215 3.473-2.215.89 0 1.63.219 2.209.651.798.589 1.312 1.547 1.543 2.868l2.168 12.78c.364 2.124.618 3.618.763 4.484.145.865.22 1.465.22 1.794 0 .698-.255 1.328-.758 1.887-.502.56-1.167.842-1.988.842-1.174 0-2.024-.38-2.55-1.136-.34-.508-.618-1.374-.826-2.608L42.066 33.41l-3.868 12.22c-.283.93-.653 1.581-1.11 1.974-.456.387-1.116.582-1.971.582-.838 0-1.491-.195-1.954-.582-.462-.392-.838-1.045-1.133-1.974l-3.78-12.226-1.747 11.038c-.225 1.546-.595 2.562-1.12 3.035-.527.473-1.232.71-2.122.71-.787 0-1.422-.277-1.908-.831-.486-.548-.729-1.172-.729-1.858Z"/><path fill="#A1A4A6" fill-rule="evenodd" d="M15.336 1.456C29.088.262 41.546.29 55.303 1.546c7.553.689 13.4 6.522 14.065 14.032 1.22 13.799 1.193 26.257-.09 40.062-.698 7.507-6.57 13.315-14.126 13.971-13.751 1.195-26.21 1.167-39.967-.088C7.632 68.833 1.785 63 1.12 55.49c-1.221-13.8-1.193-26.257.09-40.062.697-7.507 6.57-13.315 14.125-13.972Zm19.982 2.11c-6.383-.014-12.853.278-19.724.874-3.063.266-5.775 1.566-7.782 3.552a12.402 12.402 0 0 0-3.623 7.705c-.634 6.82-.958 13.3-.973 19.764-.014 6.394.284 12.877.895 19.772.268 3.035 1.575 5.723 3.57 7.713 2.011 2.007 4.72 3.325 7.773 3.604 6.795.62 13.262.938 19.716.952 6.383.014 12.853-.278 19.724-.875 3.064-.265 5.775-1.565 7.782-3.55A12.402 12.402 0 0 0 66.3 55.37c.634-6.82.958-13.299.972-19.765.014-6.394-.284-12.876-.894-19.771-.269-3.035-1.575-5.723-3.57-7.713-2.012-2.007-4.72-3.325-7.774-3.604-6.795-.62-13.262-.938-19.716-.952Z" clip-rule="evenodd"/></svg>