<?xml version="1.0" encoding="UTF-8"?>
<!DOCTYPE svg PUBLIC "-//W3C//DTD SVG 1.1//EN" "http://www.w3.org/Graphics/SVG/1.1/DTD/svg11.dtd">
<!-- Creator: CorelDRAW 2021.5 -->
<svg xmlns="http://www.w3.org/2000/svg" xml:space="preserve" width="400px" height="200px" version="1.1" style="shape-rendering:geometricPrecision; text-rendering:geometricPrecision; image-rendering:optimizeQuality; fill-rule:evenodd; clip-rule:evenodd"
viewBox="0 0 40000 20000"
 xmlns:xlink="http://www.w3.org/1999/xlink"
 xmlns:xodm="http://www.corel.com/coreldraw/odm/2003">
 <defs>
  <style type="text/css">
   <![CDATA[
    .fil0 {fill:#2B2A29}
    .fil1 {fill:#2B2A29;fill-rule:nonzero}
   ]]>
  </style>
 </defs>
 <g id="Layer_x0020_1">
  <metadata id="CorelCorpID_0Corel-Layer"/>
  <circle class="fil0" cx="33159" cy="8363" r="1376"/>
  <path class="fil1" d="M33159 6886c408,0 777,165 1044,433 267,267 433,636 433,1044 0,407 -166,776 -433,1044 -267,267 -636,432 -1044,432 -408,0 -777,-165 -1044,-432 -245,-246 -404,-577 -429,-944l-27364 0 0 -200 27364 0c25,-368 184,-699 429,-944 267,-268 636,-433 1044,-433zm-1272 1377l1272 0 0 200 -1272 0c24,312 161,593 370,802 231,231 550,374 902,374 353,0 672,-143 903,-374 231,-231 373,-550 373,-902 0,-353 -142,-672 -373,-903 -231,-231 -550,-374 -903,-374 -352,0 -671,143 -902,374 -209,209 -346,490 -370,803z"/>
  <path class="fil1" d="M31610 6813c201,-201 443,-364 712,-475 258,-107 541,-166 837,-166 296,0 579,59 838,166 269,111 510,274 712,475 201,202 364,443 475,712 107,258 166,542 166,838 0,295 -59,579 -166,837 -111,269 -274,511 -475,712 -202,201 -443,364 -712,475 -259,107 -542,167 -838,167 -296,0 -579,-60 -837,-167 -269,-111 -511,-274 -712,-475l141 -142c184,184 404,333 646,433 234,97 492,151 762,151 271,0 528,-54 762,-151 243,-100 462,-249 646,-433 184,-183 332,-403 433,-646 97,-233 150,-491 150,-761 0,-271 -53,-528 -150,-762 -101,-243 -249,-462 -433,-646 -184,-184 -403,-332 -646,-433 -234,-97 -491,-150 -762,-150 -270,0 -528,53 -762,150 -242,101 -462,249 -646,433l-141 -142z"/>
 </g>
</svg>
