<svg xmlns="http://www.w3.org/2000/svg" width="71" height="71" fill="none"><path fill="#17374C" d="M32.842 53.605a2.5 2.5 0 0 1 2.501-2.497 2.5 2.5 0 0 1 2.501 2.497v9.414a2.5 2.5 0 0 1-2.501 2.497 2.5 2.5 0 0 1-2.502-2.497v-9.414ZM32.9 7.656a2.5 2.5 0 0 1 2.501-2.497 2.5 2.5 0 0 1 2.501 2.497v9.414a2.5 2.5 0 0 1-2.501 2.497A2.5 2.5 0 0 1 32.9 17.07V7.656Zm13.118 31.648-10.475-18.11-10.476 18.11a23.827 23.827 0 0 1 20.951 0Zm4.063-3.406c0-4.063-1.65-7.742-4.316-10.404a14.708 14.708 0 0 0-10.423-4.308c-4.07 0-7.756 1.647-10.423 4.308a14.653 14.653 0 0 0-4.316 10.404c0 4.062 1.65 7.74 4.316 10.402a14.708 14.708 0 0 0 10.423 4.309c4.07 0 7.756-1.647 10.422-4.309a14.65 14.65 0 0 0 4.317-10.402Zm-.072-14.64a20.62 20.62 0 0 1 6.076 14.64 20.619 20.619 0 0 1-6.076 14.639A20.697 20.697 0 0 1 35.344 56.6a20.698 20.698 0 0 1-14.668-6.064 20.62 20.62 0 0 1-6.076-14.64 20.62 20.62 0 0 1 6.076-14.639 20.697 20.697 0 0 1 14.667-6.064 20.697 20.697 0 0 1 14.667 6.064Z"/><path fill="#A1A4A6" fill-rule="evenodd" d="M15.61 1.46C29.364.265 41.822.293 55.579 1.549c7.553.69 13.4 6.522 14.064 14.032 1.222 13.8 1.194 26.258-.09 40.063-.697 7.507-6.569 13.315-14.125 13.97-13.752 1.196-26.21 1.168-39.968-.088-7.552-.69-13.398-6.523-14.063-14.032-1.222-13.8-1.193-26.258.09-40.062C2.182 7.925 8.054 2.117 15.61 1.46Zm19.983 2.11c-6.383-.015-12.853.277-19.724.874-3.064.266-5.775 1.566-7.782 3.551a12.402 12.402 0 0 0-3.624 7.706C3.83 22.52 3.505 29 3.491 35.465c-.014 6.394.284 12.876.894 19.771.269 3.035 1.575 5.723 3.57 7.713 2.012 2.008 4.72 3.326 7.774 3.605 6.795.62 13.261.937 19.716.951 6.383.014 12.853-.277 19.724-.874 3.063-.266 5.775-1.566 7.782-3.551a12.402 12.402 0 0 0 3.624-7.706c.633-6.82.958-13.298.972-19.764.014-6.394-.284-12.877-.894-19.771-.269-3.036-1.575-5.723-3.57-7.713-2.012-2.007-4.72-3.326-7.774-3.605-6.795-.62-13.262-.937-19.716-.952Z" clip-rule="evenodd"/></svg>