<?xml version="1.0" encoding="UTF-8"?>
<!DOCTYPE svg PUBLIC "-//W3C//DTD SVG 1.1//EN" "http://www.w3.org/Graphics/SVG/1.1/DTD/svg11.dtd">
<!-- Creator: CorelDRAW 2021.5 -->
<svg xmlns="http://www.w3.org/2000/svg" xml:space="preserve" width="20.108mm" height="20.108mm" version="1.1" style="shape-rendering:geometricPrecision; text-rendering:geometricPrecision; image-rendering:optimizeQuality; fill-rule:evenodd; clip-rule:evenodd"
viewBox="0 0 2010.8 2010.8"
 xmlns:xlink="http://www.w3.org/1999/xlink"
 xmlns:xodm="http://www.corel.com/coreldraw/odm/2003">
 <defs>
  <style type="text/css">
   <![CDATA[
    .fil1 {fill:#A1A4A6}
    .fil0 {fill:#17374C;fill-rule:nonzero}
   ]]>
  </style>
 </defs>
 <g id="Layer_x0020_1">
  <metadata id="CorelCorpID_0Corel-Layer"/>
  <path class="fil0" d="M942.8 1490.28c0,-36.53 29.62,-66.15 66.15,-66.15 36.53,0 66.15,29.62 66.15,66.15l0 249.42c0,36.53 -29.62,66.15 -66.15,66.15 -36.53,0 -66.15,-29.62 -66.15,-66.15l0 -249.42zm1.56 -1217.37c0,-36.53 29.62,-66.15 66.15,-66.15 36.53,0 66.15,29.62 66.15,66.15l0 249.42c0,36.53 -29.62,66.15 -66.15,66.15 -36.53,0 -66.15,-29.62 -66.15,-66.15l0 -249.42zm346.92 838.48l-277.02 -479.81 -277.02 479.81c174.74,-85.71 379.31,-85.71 554.04,0zm107.44 -90.24c0,-107.65 -43.63,-205.11 -114.15,-275.63 -70.52,-70.52 -167.98,-114.15 -275.62,-114.15 -107.64,0 -205.1,43.63 -275.62,114.15 -70.52,70.52 -114.15,167.98 -114.15,275.62 0,107.64 43.63,205.09 114.15,275.61 70.52,70.52 167.98,114.15 275.62,114.15 107.65,0 205.1,-43.63 275.62,-114.15 70.52,-70.51 114.15,-167.96 114.15,-275.6zm-1.91 -387.87c99.27,99.27 160.67,236.41 160.67,387.86 0,151.46 -61.41,288.6 -160.67,387.85 -99.27,99.27 -236.4,160.67 -387.84,160.67 -151.47,0 -288.61,-61.4 -387.88,-160.67 -99.27,-99.27 -160.67,-236.4 -160.67,-387.85 0,-151.45 61.4,-288.59 160.67,-387.86 99.27,-99.27 236.41,-160.67 387.86,-160.67 151.45,0 288.59,61.4 387.86,160.67z"/>
  <path class="fil1" d="M487.14 108.74c363.66,-31.65 693.13,-30.91 1056.92,2.36 199.73,18.27 354.34,172.81 371.92,371.77 32.3,365.6 31.56,695.67 -2.37,1061.42 -18.45,198.89 -173.73,352.77 -373.55,370.16 -363.65,31.66 -693.13,30.91 -1056.92,-2.35 -199.72,-18.27 -354.33,-172.82 -371.91,-371.78 -32.3,-365.6 -31.55,-695.66 2.37,-1061.41 18.45,-198.89 173.73,-352.77 373.54,-370.17zm528.41 55.89c-168.78,-0.37 -339.88,7.36 -521.59,23.17 -81.01,7.05 -152.72,41.49 -205.79,94.09 -53.33,52.84 -88.38,123.99 -95.82,204.15 -16.75,180.7 -25.33,352.35 -25.71,523.63 -0.37,169.41 7.51,341.15 23.65,523.83 7.1,80.41 41.65,151.62 94.4,204.35 53.2,53.18 124.84,88.11 205.58,95.5 179.68,16.42 350.69,24.83 521.38,25.21 168.78,0.37 339.89,-7.36 521.59,-23.17 81.01,-7.04 152.72,-41.48 205.8,-94.08 53.33,-52.84 88.38,-123.99 95.82,-204.15 16.76,-180.69 25.33,-352.34 25.71,-523.64 0.37,-169.41 -7.52,-341.16 -23.65,-523.83 -7.1,-80.41 -41.65,-151.61 -94.4,-204.34 -53.2,-53.18 -124.84,-88.11 -205.59,-95.5 -179.68,-16.43 -350.7,-24.84 -521.38,-25.22z"/>
 </g>
</svg>
