<?xml version="1.0" encoding="UTF-8"?>
<!DOCTYPE svg PUBLIC "-//W3C//DTD SVG 1.1//EN" "http://www.w3.org/Graphics/SVG/1.1/DTD/svg11.dtd">
<!-- Creator: CorelDRAW 2021.5 -->
<svg xmlns="http://www.w3.org/2000/svg" xml:space="preserve" width="20.108mm" height="20.108mm" version="1.1" style="shape-rendering:geometricPrecision; text-rendering:geometricPrecision; image-rendering:optimizeQuality; fill-rule:evenodd; clip-rule:evenodd"
viewBox="0 0 2010.8 2010.8"
 xmlns:xlink="http://www.w3.org/1999/xlink"
 xmlns:xodm="http://www.corel.com/coreldraw/odm/2003">
 <defs>
  <style type="text/css">
   <![CDATA[
    .fil1 {fill:#A1A4A6}
    .fil0 {fill:#17374C;fill-rule:nonzero}
   ]]>
  </style>
 </defs>
 <g id="Layer_x0020_1">
  <metadata id="CorelCorpID_0Corel-Layer"/>
  <path class="fil0" d="M727.55 471.53c13.55,10.81 24.99,24.18 36.41,37.51 17.2,20.07 34.42,40.16 51.66,40.16 8.55,0 19.57,-15.46 30.52,-30.84 18.77,-26.35 37.49,-52.62 72.57,-52.62 35.72,0 53.61,26.84 71.47,53.61 9.96,14.93 19.91,29.85 27.31,29.85 7.64,0 18.17,-15.16 28.68,-30.3 18.5,-26.56 36.99,-53.16 72.3,-53.16 35.38,0 53.4,26.56 71.47,53.2 10.25,15.09 20.54,30.26 28.58,30.26 17.19,0 34.7,-20.14 52.2,-40.27 11.36,-13.16 22.74,-26.25 36.82,-37.4l32.66 41.34c-9.31,7.38 -19.46,19.04 -29.58,30.68 -25.52,29.27 -51.04,58.57 -92.1,58.57 -35.81,0 -54.04,-26.87 -72.2,-53.62 -10.13,-14.94 -20.25,-29.84 -27.85,-29.84 -7.84,0 -18.37,15.18 -28.88,30.32 -18.41,26.62 -36.8,53.14 -72.1,53.14 -35.49,0 -53.3,-26.69 -71.13,-53.41 -10.01,-15 -20.04,-30.05 -27.65,-30.05 -7.97,0 -18.76,15.13 -29.57,30.3 -18.89,26.52 -37.9,53.16 -73.52,53.16 -41.41,0 -66.59,-29.39 -91.76,-58.76 -9.74,-11.37 -19.52,-22.78 -29.17,-30.49l32.86 -41.34zm806.64 -103.66l0 1059.53c0,79.57 -32.63,152.07 -85.24,204.82l-0.31 0.31c-52.75,52.61 -125.25,85.24 -204.82,85.24l-452.65 0c-79.57,0 -152.07,-32.63 -204.82,-85.24l-0.31 -0.31c-52.61,-52.75 -85.24,-125.25 -85.24,-204.82l0 -1059.53 158.76 0 0 1059.53c0,36.32 14.72,69.2 38.41,92.89l0.31 0.31c23.69,23.69 56.57,38.41 92.89,38.41l452.65 0c36.32,0 69.2,-14.72 92.89,-38.41l0.31 -0.31c23.69,-23.69 38.41,-56.57 38.41,-92.89l0 -1059.53 158.76 0zm-817.8 686.22c0,-55.97 15.72,-100.84 47.16,-134.59 31.45,-33.74 73.43,-50.62 125.86,-50.62 52.03,0 93.76,16.79 125.37,50.38 31.53,33.66 47.33,78.53 47.33,134.83 0,56.3 -15.72,101.33 -47.25,135.08 -31.44,33.75 -73.26,50.62 -125.45,50.62 -52.43,0 -94.41,-16.87 -125.86,-50.62 -31.44,-33.75 -47.16,-78.78 -47.16,-135.08zm85.93 0c0,31.36 6.75,56.96 20.25,76.88 15.48,22.64 37.7,34.08 66.84,34.24 28.9,0 51.04,-11.44 66.51,-34.24 13.5,-20.08 20.25,-45.68 20.25,-76.88 0,-31.03 -6.75,-56.55 -20.25,-76.64 -15.47,-22.63 -37.61,-33.99 -66.51,-33.99 -28.97,0 -51.28,11.36 -66.84,33.99 -13.5,19.76 -20.25,45.28 -20.25,76.64zm278.47 -160.19c0,-12.84 4.53,-23.78 13.5,-32.76 8.98,-8.97 19.76,-13.5 32.35,-13.5 12.84,0 23.71,4.45 32.6,13.26 8.97,8.89 13.42,19.83 13.42,33 0,13.26 -4.45,24.29 -13.42,33.18 -8.89,8.97 -19.76,13.41 -32.6,13.41 -12.92,0 -23.7,-4.44 -32.59,-13.41 -8.81,-8.89 -13.26,-19.92 -13.26,-33.18zm18.2 329.59c-7.17,-7.57 -10.79,-17.28 -10.79,-29.14l0 -190.64c0,-11.19 3.54,-20.74 10.62,-28.4 7.08,-7.73 16.38,-11.6 27.82,-11.6 11.2,0 20.5,3.78 27.74,11.36 7.25,7.57 10.87,17.12 10.87,28.64l0 190.64c0,11.53 -3.54,21.24 -10.62,28.9 -7.08,7.73 -16.46,11.6 -27.99,11.6 -11.27,0 -20.49,-3.78 -27.65,-11.36zm99.18 -29.14l0 -306.21c0,-11.52 3.54,-21.23 10.62,-28.89 7.08,-7.74 16.38,-11.61 27.82,-11.61 11.2,0 20.5,3.95 27.74,11.86 7.25,7.82 10.87,17.45 10.87,28.64l0 306.21c0,11.53 -3.54,21.24 -10.62,28.9 -7.08,7.73 -16.46,11.6 -27.99,11.6 -11.27,0 -20.49,-3.78 -27.65,-11.36 -7.17,-7.57 -10.79,-17.28 -10.79,-29.14z"/>
  <path class="fil1" d="M491.03 100.27c363.66,-31.65 693.13,-30.91 1056.92,2.36 199.73,18.27 354.34,172.81 371.92,371.77 32.3,365.6 31.56,695.67 -2.37,1061.42 -18.45,198.89 -173.73,352.77 -373.55,370.16 -363.65,31.66 -693.13,30.91 -1056.92,-2.35 -199.72,-18.27 -354.33,-172.82 -371.91,-371.78 -32.3,-365.6 -31.55,-695.66 2.37,-1061.41 18.45,-198.89 173.73,-352.77 373.54,-370.17zm528.41 55.89c-168.78,-0.37 -339.88,7.36 -521.59,23.17 -81.01,7.05 -152.72,41.49 -205.79,94.09 -53.33,52.84 -88.38,123.99 -95.82,204.15 -16.75,180.7 -25.33,352.35 -25.71,523.63 -0.37,169.41 7.51,341.15 23.65,523.83 7.1,80.41 41.65,151.62 94.4,204.35 53.2,53.18 124.84,88.11 205.58,95.5 179.68,16.42 350.69,24.83 521.38,25.21 168.78,0.37 339.89,-7.36 521.59,-23.17 81.01,-7.04 152.72,-41.48 205.8,-94.08 53.33,-52.84 88.38,-123.99 95.82,-204.15 16.76,-180.69 25.33,-352.34 25.71,-523.64 0.37,-169.41 -7.52,-341.16 -23.65,-523.83 -7.1,-80.41 -41.65,-151.61 -94.4,-204.34 -53.2,-53.18 -124.84,-88.11 -205.59,-95.5 -179.68,-16.43 -350.7,-24.84 -521.38,-25.22z"/>
 </g>
</svg>
