<svg xmlns="http://www.w3.org/2000/svg" width="71" height="71" fill="none"><path fill="#17374C" d="M24.28 15.15c.512.408.945.913 1.377 1.416.65.757 1.301 1.516 1.953 1.516.324 0 .74-.584 1.155-1.164.71-.995 1.417-1.986 2.744-1.986 1.35 0 2.027 1.013 2.702 2.023.377.564.753 1.127 1.033 1.127.289 0 .687-.573 1.085-1.144.7-1.002 1.398-2.006 2.734-2.006 1.337 0 2.019 1.002 2.702 2.008.388.57.777 1.142 1.081 1.142.65 0 1.312-.76 1.974-1.52.43-.497.86-.991 1.392-1.412l1.235 1.56c-.352.279-.736.72-1.118 1.158-.965 1.105-1.93 2.211-3.483 2.211-1.354 0-2.043-1.014-2.73-2.024-.383-.564-.766-1.126-1.053-1.126-.297 0-.695.573-1.093 1.144-.696 1.005-1.391 2.006-2.726 2.006-1.342 0-2.016-1.007-2.69-2.016-.378-.566-.758-1.134-1.045-1.134-.302 0-.71.571-1.119 1.144-.714 1-1.433 2.006-2.78 2.006-1.566 0-2.518-1.11-3.47-2.218-.368-.429-.738-.86-1.103-1.15l1.243-1.56Zm30.503-3.912v39.99c0 3.004-1.234 5.74-3.223 7.731l-.012.012c-1.995 1.986-4.736 3.217-7.745 3.217H26.686c-3.01 0-5.75-1.231-7.745-3.217l-.012-.012c-1.99-1.99-3.224-4.727-3.224-7.73V11.237h6.004V51.23a4.94 4.94 0 0 0 1.452 3.506l.012.011a4.96 4.96 0 0 0 3.513 1.45h17.117a4.959 4.959 0 0 0 3.512-1.45l.012-.011a4.94 4.94 0 0 0 1.453-3.506V11.237h6.003Zm-30.925 25.9c0-2.112.594-3.806 1.783-5.08 1.19-1.273 2.777-1.91 4.76-1.91 1.967 0 3.545.634 4.74 1.901 1.193 1.27 1.79 2.964 1.79 5.09 0 2.124-.594 3.824-1.786 5.098-1.19 1.274-2.77 1.91-4.744 1.91-1.983 0-3.57-.636-4.76-1.91-1.189-1.274-1.783-2.974-1.783-5.099Zm3.25 0c0 1.184.255 2.15.765 2.902.585.855 1.426 1.287 2.528 1.293 1.093 0 1.93-.432 2.515-1.293.51-.758.766-1.724.766-2.902 0-1.17-.256-2.134-.766-2.892-.585-.855-1.422-1.283-2.515-1.283-1.096 0-1.94.428-2.528 1.283-.51.745-.766 1.709-.766 2.892Zm10.53-6.046c0-.484.171-.897.51-1.236.34-.339.747-.51 1.224-.51.485 0 .896.168 1.232.5.34.336.508.749.508 1.246 0 .5-.169.917-.508 1.252a1.67 1.67 0 0 1-1.232.507c-.489 0-.897-.168-1.233-.507-.333-.335-.501-.751-.501-1.252Zm.688 12.44c-.271-.285-.408-.652-.408-1.1v-7.195c0-.422.134-.783.401-1.072.268-.292.62-.438 1.053-.438.423 0 .775.143 1.048.429.275.286.412.646.412 1.08v7.196c0 .436-.134.802-.402 1.091-.268.292-.622.438-1.058.438-.427 0-.775-.143-1.046-.429Zm3.75-1.1V30.875c0-.435.134-.802.402-1.09.268-.293.62-.439 1.052-.439.424 0 .775.15 1.05.448.273.295.41.658.41 1.08v11.558c0 .436-.134.802-.401 1.091-.268.292-.623.438-1.059.438-.426 0-.775-.143-1.046-.429-.27-.285-.407-.652-.407-1.1Z"/><path fill="#A1A4A6" fill-rule="evenodd" d="M15.336 1.137c13.752-1.194 26.21-1.166 39.967.09 7.553.689 13.4 6.522 14.065 14.032 1.22 13.799 1.193 26.257-.09 40.062-.698 7.507-6.57 13.315-14.126 13.971-13.751 1.195-26.21 1.167-39.967-.088-7.553-.69-13.4-6.523-14.064-14.033-1.221-13.8-1.193-26.257.09-40.062.697-7.507 6.57-13.315 14.125-13.972Zm19.982 2.11c-6.383-.014-12.853.278-19.724.874-3.063.266-5.775 1.566-7.782 3.552a12.402 12.402 0 0 0-3.623 7.705c-.634 6.82-.958 13.3-.973 19.764-.014 6.394.284 12.877.895 19.772.268 3.035 1.575 5.722 3.57 7.713 2.011 2.007 4.72 3.325 7.773 3.604 6.795.62 13.262.938 19.716.952 6.383.014 12.853-.278 19.724-.875 3.064-.265 5.775-1.565 7.782-3.55a12.402 12.402 0 0 0 3.624-7.706c.634-6.82.958-13.299.972-19.764.014-6.395-.284-12.877-.894-19.772-.269-3.035-1.575-5.722-3.57-7.713-2.012-2.007-4.72-3.325-7.774-3.604-6.795-.62-13.262-.938-19.716-.952Z" clip-rule="evenodd"/></svg>