<?xml version="1.0" encoding="UTF-8"?>
<!DOCTYPE svg PUBLIC "-//W3C//DTD SVG 1.1//EN" "http://www.w3.org/Graphics/SVG/1.1/DTD/svg11.dtd">
<!-- Creator: CorelDRAW 2021.5 -->
<svg xmlns="http://www.w3.org/2000/svg" xml:space="preserve" width="20.108mm" height="20.108mm" version="1.1" style="shape-rendering:geometricPrecision; text-rendering:geometricPrecision; image-rendering:optimizeQuality; fill-rule:evenodd; clip-rule:evenodd"
viewBox="0 0 2010.8 2010.8"
 xmlns:xlink="http://www.w3.org/1999/xlink"
 xmlns:xodm="http://www.corel.com/coreldraw/odm/2003">
 <defs>
  <style type="text/css">
   <![CDATA[
    .fil1 {fill:#A1A4A6}
    .fil0 {fill:#17374C;fill-rule:nonzero}
   ]]>
  </style>
 </defs>
 <g id="Layer_x0020_1">
  <metadata id="CorelCorpID_0Corel-Layer"/>
  <path class="fil0" d="M449.3 382.48c-8.09,0 -14.49,3.1 -18.96,7.81l-0.08 0.08 -0.74 0.82 -0.03 0.04c-2.68,3.08 -4.79,7.04 -6.01,11.9 -0.37,1.99 -0.64,3.65 -0.64,5.81l0 264.6c0,30.64 44.47,37.06 52.28,5.81 0.37,-1.99 0.64,-3.65 0.64,-5.81l0 -238.14 202.73 0c30.64,0 37.06,-44.47 5.81,-52.28 -1.99,-0.37 -3.65,-0.64 -5.81,-0.64l-229.19 0zm764.77 1085.94c-3.37,12.2 -12.49,22.59 -25.36,27l-97.04 33.38 90.99 16.01c21.57,3.76 36,24.31 32.24,45.88 -2.76,15.81 -14.54,27.79 -29.13,31.57l-239.63 80.5c-20.71,6.93 -43.14,-4.24 -50.07,-24.95 -6.93,-20.71 4.24,-43.14 24.95,-50.07l94.65 -31.79 -88.29 -15.54c-14.02,-2.23 -26.39,-11.94 -31.31,-26.3 -7.1,-20.71 3.93,-43.28 24.64,-50.38l102.65 -35.31 -247.67 0c-40.24,0 -76.78,-16.42 -103.21,-42.85 -26.43,-26.43 -42.85,-62.97 -42.85,-103.21l0 -244.71 -71.7 0c-21.97,34.9 -60.84,58.1 -105.12,58.1 -68.57,0 -124.16,-55.59 -124.16,-124.15 0,-58.24 40.1,-107.1 94.19,-120.51l0 -58.79c0,-2.16 0.27,-3.82 0.64,-5.81 7.81,-31.25 52.28,-24.83 52.28,5.81l0 57.26c34.49,6.45 63.96,27.17 82.06,55.79l71.81 0 0 -236.8c0,-40.24 16.42,-76.78 42.85,-103.21 26.43,-26.43 62.97,-42.85 103.21,-42.85l299.48 0 0 -127.09 -237.92 0c-2.16,0 -3.82,-0.27 -5.81,-0.64 -31.25,-7.81 -24.83,-52.28 5.81,-52.28l264.6 0c2.16,0 3.82,0.27 5.81,0.64 15.08,3.77 21.37,16.07 20.43,27.79l0 151.58 210.22 0c40.24,0 76.78,16.42 103.21,42.85 26.43,26.43 42.85,62.97 42.85,103.21l0 236.9 105.41 0c21.99,-34.85 60.83,-58.01 105.08,-58.01 68.56,0 124.15,55.58 124.15,124.16 0,68.56 -55.59,124.15 -124.15,124.15 -44.25,0 -83.08,-23.16 -105.07,-58l-105.42 0 0 244.61c0,40.24 -16.42,76.78 -42.85,103.21 -26.43,26.43 -62.97,42.85 -103.21,42.85l-124.24 0zm-425.04 -574.52l276.97 0 0 51.22 276.97 -102.46 -276.97 -102.46 0 51.23 -276.97 0 0 102.47zm549.28 -199.11l-562.62 0c-3.72,0 -7.16,1.58 -9.67,4.09 -2.51,2.51 -4.09,5.95 -4.09,9.67l0 302.95 0 310.86c0,3.72 1.58,7.16 4.09,9.67 2.51,2.51 5.95,4.09 9.67,4.09l562.62 0c3.72,0 7.16,-1.58 9.67,-4.09 2.51,-2.51 4.09,-5.95 4.09,-9.67l0 -613.81c0,-3.72 -1.58,-7.16 -4.09,-9.67 -2.51,-2.51 -5.95,-4.09 -9.67,-4.09z"/>
  <path class="fil1" d="M530.54 112.59c363.66,-31.65 693.13,-30.91 1056.92,2.36 199.73,18.27 354.34,172.81 371.92,371.77 32.3,365.6 31.56,695.67 -2.37,1061.42 -18.45,198.89 -173.73,352.77 -373.55,370.16 -363.65,31.66 -693.13,30.91 -1056.92,-2.35 -199.72,-18.27 -354.33,-172.82 -371.91,-371.78 -32.3,-365.6 -31.55,-695.66 2.37,-1061.41 18.45,-198.89 173.73,-352.77 373.54,-370.17zm528.41 55.89c-168.78,-0.37 -339.88,7.36 -521.59,23.17 -81.01,7.05 -152.72,41.49 -205.79,94.09 -53.33,52.84 -88.38,123.99 -95.82,204.15 -16.75,180.7 -25.33,352.35 -25.71,523.63 -0.37,169.41 7.51,341.15 23.65,523.83 7.1,80.41 41.65,151.62 94.4,204.35 53.2,53.18 124.84,88.11 205.58,95.5 179.68,16.42 350.69,24.83 521.38,25.21 168.78,0.37 339.89,-7.36 521.59,-23.17 81.01,-7.04 152.72,-41.48 205.8,-94.08 53.33,-52.84 88.38,-123.99 95.82,-204.15 16.76,-180.69 25.33,-352.34 25.71,-523.64 0.37,-169.41 -7.52,-341.16 -23.65,-523.83 -7.1,-80.41 -41.65,-151.61 -94.4,-204.34 -53.2,-53.18 -124.84,-88.11 -205.59,-95.5 -179.68,-16.43 -350.7,-24.84 -521.38,-25.22z"/>
 </g>
</svg>
