<svg xmlns="http://www.w3.org/2000/svg" width="71" height="70" fill="none"><path fill="#17374C" d="M12.178 11.112a.963.963 0 0 0-.717.295l-.003.003-.028.03v.002a1.072 1.072 0 0 0-.228.45 1.112 1.112 0 0 0-.024.219v9.987c0 1.156 1.681 1.399 1.977.22.014-.076.024-.139.024-.22V13.11h7.666c1.159 0 1.402-1.679.22-1.974a1.124 1.124 0 0 0-.22-.024h-8.667ZM41.098 52.1c-.127.46-.472.853-.959 1.02l-3.67 1.259 3.441.604a1.497 1.497 0 0 1 .118 2.924l-9.062 3.038a1.493 1.493 0 1 1-.95-2.832l3.58-1.2-3.34-.586a1.497 1.497 0 0 1-.252-2.894l3.882-1.333h-9.365a5.514 5.514 0 0 1-3.903-1.617 5.493 5.493 0 0 1-1.62-3.896v-9.236h-2.712a4.693 4.693 0 0 1-3.975 2.193 4.69 4.69 0 0 1-4.695-4.686 4.69 4.69 0 0 1 3.562-4.549V28.09c0-.081.01-.144.024-.22.295-1.179 1.977-.936 1.977.22v2.161a4.7 4.7 0 0 1 3.103 2.106h2.715V23.42c0-1.518.621-2.898 1.62-3.895a5.514 5.514 0 0 1 3.904-1.618h11.325V13.11h-8.997c-.082 0-.145-.01-.22-.025-1.182-.295-.94-1.973.22-1.973h10.005c.082 0 .145.01.22.024.57.143.808.607.773 1.05v5.72h7.95c1.52 0 2.903.62 3.902 1.618 1 .997 1.62 2.377 1.62 3.895v8.942h3.986a4.694 4.694 0 0 1 3.974-2.19 4.69 4.69 0 0 1 4.695 4.687 4.69 4.69 0 0 1-4.695 4.686 4.694 4.694 0 0 1-3.973-2.19h-3.987v9.233c0 1.519-.62 2.898-1.62 3.896a5.514 5.514 0 0 1-3.903 1.617h-4.698ZM25.025 30.415H35.5v1.934l10.473-3.868L35.5 24.614v1.934H25.025v3.867ZM45.796 22.9H24.521a.52.52 0 0 0-.366.154.518.518 0 0 0-.155.365v23.168c0 .14.06.27.155.365a.52.52 0 0 0 .366.154h21.275c.14 0 .27-.06.366-.154a.518.518 0 0 0 .154-.365V23.42c0-.14-.06-.27-.154-.365a.52.52 0 0 0-.366-.154Z"/><path fill="#A1A4A6" fill-rule="evenodd" d="M15.25.925c13.752-1.194 26.211-1.166 39.968.09 7.552.689 13.4 6.522 14.064 14.031 1.221 13.8 1.193 26.258-.09 40.063-.697 7.507-6.57 13.315-14.125 13.971-13.752 1.195-26.211 1.167-39.968-.088-7.552-.69-13.399-6.523-14.064-14.033-1.221-13.8-1.193-26.257.09-40.062C1.823 7.39 7.695 1.582 15.25.925Zm19.982 2.11c-6.382-.014-12.852.278-19.724.874-3.063.266-5.775 1.566-7.782 3.552a12.402 12.402 0 0 0-3.623 7.705c-.634 6.82-.958 13.3-.972 19.764-.014 6.394.284 12.877.894 19.772.268 3.035 1.575 5.723 3.57 7.713 2.011 2.007 4.72 3.325 7.774 3.604 6.794.62 13.261.938 19.716.952 6.382.014 12.853-.278 19.724-.875 3.063-.265 5.775-1.565 7.782-3.55a12.402 12.402 0 0 0 3.623-7.706c.634-6.82.958-13.299.973-19.765.014-6.394-.285-12.876-.895-19.771-.268-3.035-1.575-5.722-3.57-7.713-2.011-2.007-4.72-3.325-7.774-3.604-6.794-.62-13.262-.938-19.716-.952Z" clip-rule="evenodd"/></svg>